<svg width="16" height="16" viewBox="0 0 16 16" fill="none" xmlns="http://www.w3.org/2000/svg">
<g clip-path="url(#clip0_220_14720)">
<path d="M15.464 14.8854L12.817 8.70989C12.7475 8.54773 12.5879 8.44256 12.4116 8.44256H10.7306C11.4109 7.25397 11.9704 5.93847 11.9704 4.82542C11.9704 -0.906467 4.02959 -0.97639 4.02959 4.82542C4.02959 5.93847 4.58909 7.25397 5.26944 8.44256H3.58842C3.41195 8.44256 3.25242 8.54773 3.18295 8.70989L0.536047 14.8854C0.411536 15.1758 0.624854 15.5002 0.941512 15.5002H15.0585C15.3745 15.5002 15.5887 15.1765 15.464 14.8854ZM12.1206 9.32478L13.4267 12.3719C13.3858 12.3932 9.1348 14.6006 9.10435 14.618H8.18093C8.15758 14.5919 8.35602 14.7914 5.48081 11.9165L7.07783 11.0992C7.40342 11.5147 7.6315 11.7787 7.66709 11.8197C7.84287 12.022 8.15724 12.0217 8.33279 11.8197C8.40661 11.7348 9.30588 10.6928 10.1918 9.32478H12.1206ZM8 1.38475C9.48727 1.38475 11.0881 2.46153 11.0881 4.82542C11.0881 6.81303 8.86002 9.77099 8 10.8385C7.13998 9.77087 4.91193 6.81303 4.91193 4.82542C4.91193 2.44871 6.46283 1.38475 8 1.38475ZM3.87932 9.32478C6.01639 9.32478 5.77355 9.32512 5.80777 9.32409C6.05622 9.70781 6.3057 10.0659 6.53779 10.3845L2.55044 12.4252L3.87932 9.32478ZM2.00627 13.6948L4.65558 12.3389L6.93501 14.618H1.61053L2.00627 13.6948ZM11.0164 14.618L13.7753 13.185L14.3895 14.618H11.0164Z" fill="black"/>
<path d="M9.32342 4.47232C9.32342 3.74265 8.7297 3.14893 8.00002 3.14893C7.27023 3.14893 6.67651 3.74265 6.67651 4.47232C6.67651 5.202 7.27023 5.7956 8.00002 5.7956C8.7297 5.7956 9.32342 5.202 9.32342 4.47232ZM7.55885 4.47232C7.55885 4.22902 7.75672 4.03115 8.00002 4.03115C8.24321 4.03115 8.44119 4.22902 8.44119 4.47232C8.44119 4.71551 8.24321 4.91338 8.00002 4.91338C7.75672 4.91338 7.55885 4.71551 7.55885 4.47232Z" fill="black"/>
</g>
<defs>
<clipPath id="clip0_220_14720">
<rect width="15" height="15" fill="white" transform="translate(0.5 0.5)"/>
</clipPath>
</defs>
</svg>
