<svg width="20" height="21" viewBox="0 0 20 21" fill="none" xmlns="http://www.w3.org/2000/svg">
<path fill-rule="evenodd" clip-rule="evenodd" d="M6.90558 15.497L6.87332 15.4961C5.83871 15.4961 4.99902 16.3358 4.99902 17.3704C4.99902 18.405 5.83871 19.2447 6.87332 19.2447C7.21819 19.2447 7.49809 18.9648 7.49809 18.6199C7.49809 18.2751 7.21819 17.9952 6.87332 17.9952C6.52845 17.9952 6.24855 17.7153 6.24855 17.3704C6.24855 17.0364 6.51118 16.7633 6.84106 16.7465L6.90558 16.7447C7.23546 16.7279 7.49809 16.4548 7.49809 16.1209C7.49809 15.7869 7.23546 15.5138 6.90558 15.497Z" fill="white"/>
<path fill-rule="evenodd" clip-rule="evenodd" d="M15.625 5.5H16.875C17.0406 5.5 17.2 5.56563 17.3169 5.68313C17.4344 5.8 17.5 5.95938 17.5 6.125V16.125C17.5 16.6225 17.3025 17.0994 16.9506 17.4506C16.5994 17.8025 16.1225 18 15.625 18C12.3106 18 6.875 18 6.875 18C6.53 18 6.25 18.28 6.25 18.625C6.25 18.97 6.53 19.25 6.875 19.25H15.625C16.4537 19.25 17.2487 18.9206 17.835 18.335C18.4206 17.7487 18.75 16.9537 18.75 16.125C18.75 13.1731 18.75 8.38125 18.75 6.125C18.75 5.6275 18.5525 5.15063 18.2006 4.79938C17.8494 4.4475 17.3725 4.25 16.875 4.25H15.625C15.28 4.25 15 4.53 15 4.875C15 5.22 15.28 5.5 15.625 5.5Z" fill="white"/>
<path fill-rule="evenodd" clip-rule="evenodd" d="M4.85989 2.48262L4.12362 4.21643L2.32917 4.41003C1.86326 4.46056 1.46401 4.78606 1.31939 5.25068C1.17855 5.70218 1.31059 6.19699 1.64886 6.51462L3.00947 7.78906L2.62468 9.66199C2.52911 10.1279 2.71082 10.607 3.07989 10.8872C3.4672 11.1806 3.98404 11.2075 4.39775 10.9568L5.95265 10.0164L7.50755 10.9568C7.92127 11.2075 8.4381 11.1806 8.82541 10.8872C9.19449 10.607 9.3762 10.1279 9.28063 9.66199L8.89583 7.78906L10.2564 6.51462C10.5947 6.19699 10.7268 5.70218 10.5859 5.25068C10.4413 4.78606 10.042 4.46056 9.57614 4.41003L7.78168 4.21643L7.04542 2.48262C6.85428 2.03309 6.42359 1.75024 5.95265 1.75024C5.48172 1.75024 5.05103 2.03309 4.85989 2.48262Z" fill="white"/>
<path fill-rule="evenodd" clip-rule="evenodd" d="M8.06125 1.75C8.105 1.82812 8.14437 1.90937 8.18 1.99312L8.62937 3.05125L9.69438 3.16625C10.6456 3.26937 11.4669 3.92813 11.7625 4.87813C12.0462 5.78875 11.7769 6.78562 11.0944 7.42563L10.2444 8.22125L10.4881 9.40938C10.6812 10.35 10.31 11.3156 9.56438 11.8812C8.76563 12.4869 7.69937 12.5419 6.845 12.025L5.9375 11.4756L5.03 12.025C5.02 12.0306 5.01 12.0369 5 12.0425V17.375C5 17.72 5.28 18 5.625 18C5.97 18 6.25 17.72 6.25 17.375C6.25 17.375 6.25 16.75 6.875 16.75H14.375C15.4106 16.75 16.25 15.9106 16.25 14.875V3.625C16.25 3.1275 16.0525 2.65062 15.7006 2.29937C15.3494 1.9475 14.8725 1.75 14.375 1.75H8.06125Z" fill="white"/>
</svg>
