<svg width="20" height="21" viewBox="0 0 20 21" fill="none" xmlns="http://www.w3.org/2000/svg">
<path d="M15.8337 13.4167H5.83366C5.60354 13.4167 5.41699 13.6033 5.41699 13.8334V15.5001C5.41699 15.7302 5.60354 15.9167 5.83366 15.9167H15.8337C16.0638 15.9167 16.2503 15.7302 16.2503 15.5001V13.8334C16.2503 13.6033 16.0638 13.4167 15.8337 13.4167Z" fill="white"/>
<path d="M14.1667 16.75H4.16667C3.93655 16.75 3.75 16.9365 3.75 17.1667V18.8333C3.75 19.0635 3.93655 19.25 4.16667 19.25H14.1667C14.3968 19.25 14.5833 19.0635 14.5833 18.8333V17.1667C14.5833 16.9365 14.3968 16.75 14.1667 16.75Z" fill="white"/>
<path d="M9.99968 1.75C8.92836 1.75 7.88111 2.06768 6.99034 2.66287C6.09957 3.25806 5.4053 4.10403 4.99533 5.0938C4.58535 6.08356 4.47809 7.17268 4.68709 8.22341C4.89609 9.27414 5.41198 10.2393 6.16952 10.9968C6.92705 11.7544 7.89221 12.2703 8.94294 12.4793C9.99367 12.6883 11.0828 12.581 12.0725 12.171C13.0623 11.761 13.9083 11.0668 14.5035 10.176C15.0987 9.28524 15.4163 8.23798 15.4163 7.16667C15.4135 5.73094 14.842 4.35481 13.8267 3.33959C12.8115 2.32438 11.4354 1.7528 9.99968 1.75ZM11.458 8.275C11.5684 8.27533 11.6742 8.31933 11.7523 8.3974C11.8303 8.47547 11.8743 8.58126 11.8747 8.69167C11.8752 8.74654 11.8648 8.80096 11.8441 8.85176C11.8233 8.90256 11.7927 8.94871 11.7539 8.98751C11.7151 9.02631 11.6689 9.05698 11.6181 9.07773C11.5673 9.09847 11.5129 9.10888 11.458 9.10833H10.4163V9.45833C10.4163 9.56884 10.3724 9.67482 10.2943 9.75296C10.2162 9.8311 10.1102 9.875 9.99968 9.875C9.88917 9.875 9.78319 9.8311 9.70505 9.75296C9.62691 9.67482 9.58301 9.56884 9.58301 9.45833V9.10833H8.54134C8.48647 9.10888 8.43205 9.09847 8.38125 9.07773C8.33045 9.05698 8.2843 9.02631 8.2455 8.98751C8.2067 8.94871 8.17603 8.90256 8.15528 8.85176C8.13454 8.80096 8.12413 8.74654 8.12468 8.69167C8.12501 8.58126 8.16901 8.47547 8.24708 8.3974C8.32515 8.31933 8.43094 8.27533 8.54134 8.275H9.58301V7.58333H8.54134C8.43084 7.58333 8.32486 7.53944 8.24672 7.4613C8.16858 7.38315 8.12468 7.27717 8.12468 7.16667C8.12468 7.05616 8.16858 6.95018 8.24672 6.87204C8.32486 6.7939 8.43084 6.75 8.54134 6.75H9.58301V6.56667L8.24134 5.16667C8.20277 5.12733 8.17235 5.08075 8.15183 5.02963C8.1313 4.9785 8.12108 4.92382 8.12174 4.86873C8.1224 4.81364 8.13393 4.75922 8.15568 4.7086C8.17742 4.65798 8.20895 4.61215 8.24845 4.57374C8.28796 4.53534 8.33466 4.50511 8.38587 4.4848C8.43708 4.46449 8.4918 4.45449 8.54689 4.45538C8.60198 4.45627 8.65635 4.46804 8.70688 4.48999C8.75741 4.51195 8.8031 4.54367 8.84134 4.58333L9.99968 5.8L11.158 4.58333C11.1963 4.54367 11.2419 4.51195 11.2925 4.48999C11.343 4.46804 11.3974 4.45627 11.4525 4.45538C11.5075 4.45449 11.5623 4.46449 11.6135 4.4848C11.6647 4.50511 11.7114 4.53534 11.7509 4.57374C11.7904 4.61215 11.8219 4.65798 11.8437 4.7086C11.8654 4.75922 11.877 4.81364 11.8776 4.86873C11.8783 4.92382 11.8681 4.9785 11.8475 5.02963C11.827 5.08075 11.7966 5.12733 11.758 5.16667L10.4163 6.56667V6.75H11.458C11.5685 6.75 11.6745 6.7939 11.7526 6.87204C11.8308 6.95018 11.8747 7.05616 11.8747 7.16667C11.8747 7.27717 11.8308 7.38315 11.7526 7.4613C11.6745 7.53944 11.5685 7.58333 11.458 7.58333H10.4163V8.275H11.458Z" fill="white"/>
</svg>
