<svg width="438" height="38" viewBox="0 0 438 38" fill="none" xmlns="http://www.w3.org/2000/svg">
<path d="M22.02 32.46C22.02 35.66 20.42 37.26 17.22 37.26H10.1V31.38H14.98V25.74C12.5 28.58 5.62 33.22 0.1 35.54V28.14C3.22 26.94 7.1 24.78 10.86 22.02C7.26 20.86 3.74 19.98 1.22 19.42V13.38C6.14 14.3 9.42 15.1 11.74 15.86V21.34C12.86 20.46 13.94 19.58 14.98 18.62V11.54H1.22V5.66H14.98V0.939998H22.02V5.66H27.1L25.06 1.54H32.22L33.9 5.66H35.86V11.54H22.02V14.02H24.74C24.94 15.54 25.02 16.02 25.46 17.5C29.06 16.38 32.26 15.22 35.86 13.7V20.14C33.66 20.82 29.94 21.94 27.62 22.62C30.26 25.54 32.1 26.74 36.9 28.54V35.66C32.86 34.5 30.38 33.3 27.62 31.22C25.02 29.26 23.62 27.58 22.02 24.5V32.46ZM76.7 36.9C73.02 35.86 70.1 34.18 66.58 31.1C62.46 27.34 60.74 24.7 58.62 18.78C55.82 27.78 49.38 34.1 40.18 36.86V28.98C45.34 27.34 49.06 23.86 51.98 18.06C53.74 14.42 54.62 9.66 54.62 3.58V1.18H61.7V3.62C61.74 9.86 62.98 15.02 65.46 19.34C67.74 23.46 73.1 28.1 76.7 29.14V36.9ZM83.54 13.14H79.82V7.54H83.54V1.06H89.66V7.54H92.9V13.14H89.66V18.18L92.98 17.5V23.06L89.66 23.9V31.82C89.66 35.5 87.78 37.18 83.54 37.18H80.46V31.18H83.54V25.1L79.66 25.66V19.54L83.54 19.14V13.14ZM103.66 9.38C102.98 11.94 101.9 14.66 100.3 17.3H93.66C95.22 14.82 96.3 12.7 97.14 10.38H93.82V1.58H116.34V10.38H112.66C113.62 12.58 114.98 14.94 116.42 17.3H109.3C107.78 14.54 106.78 12.34 105.82 9.38H109.82V6.7H99.7V9.38H103.66ZM92.98 36.66V30.26C95.94 29.22 98.02 27.42 99.34 24.62H93.94V19.3H101.7V16.3H108.14V19.42H116.38V24.62H110.54C112.7 27.54 114.22 28.9 116.98 29.98V36.66C114.78 36.06 113.58 35.22 111.66 33.82C109.94 32.54 108.74 31.18 107.94 29.82V37.26H101.62V30.38C100.3 32.42 99.5 33.3 97.98 34.38C96.46 35.46 95.1 36.1 92.98 36.66ZM136.9 37.54C130.98 37.54 126.98 35.58 125.3 31.86C124.62 30.38 124.3 27.22 124.3 22.02L124.42 1.62H131.62L131.46 21.9L131.42 23.34V24.3C131.42 26.9 131.66 28.34 132.26 29.18C132.98 30.14 134.66 30.66 137.06 30.66C140.42 30.66 143.14 29.54 144.94 27.38C146.78 25.14 147.54 22.18 147.78 16.38H155.22C154.38 25.5 153.38 28.98 150.58 32.22C147.78 35.5 142.5 37.54 136.9 37.54ZM163.14 36.54C162.78 28.62 162.7 26.46 162.7 22.74C162.7 17.02 163.26 10.82 164.5 2.62H171.38C169.82 11.62 169.5 15.3 169.5 24.1C169.5 24.9 169.62 30.74 169.78 36.54H163.14ZM174.86 11.22V4.74H194.82V11.22H174.86ZM185.98 35.82C181.54 35.82 179.06 35.26 177.1 33.86C175.06 32.42 173.74 29.82 173.74 27.26C173.74 25.18 174.38 22.54 175.54 19.94H182.38C180.98 22.66 180.54 23.98 180.54 25.5C180.54 27.1 181.18 28.18 182.5 28.82C183.42 29.26 184.3 29.38 186.46 29.38C190.18 29.38 192.46 29.34 195.26 29.18V35.66C193.02 35.74 187.94 35.82 185.98 35.82ZM221.66 37.18C221.3 37.18 220.94 37.18 220.38 37.14V30.5C223.82 30.42 225.06 30.14 226.22 29.18C227.34 28.18 228.02 26.7 228.02 25.1C228.02 24.18 227.74 23.26 227.34 22.7C225.98 20.94 223.02 19.7 220.22 19.7C219.82 19.7 218.98 19.78 218.06 19.9V29.34C218.06 32.1 217.78 33.74 217.14 34.94C216.42 36.3 214.66 37.02 212.18 37.02C205.18 37.02 200.7 32.94 200.7 26.58C200.7 23.02 202.34 19.82 205.5 17.26C206.98 16.06 208.18 15.46 211.74 14.18L211.66 11.54H202.78V5.14H211.58V1.42H218.42V5.14H225.3V11.5H218.42V13.58C219.42 13.54 220.26 13.5 220.7 13.5C229.86 13.5 235.62 18.06 235.62 25.22C235.62 28.86 234.22 31.9 231.7 33.9C229.06 35.94 225.3 37.18 221.66 37.18ZM228.74 11.7C227.66 8.02 227.46 7.46 225.86 3.62H232.46C234.34 7.58 234.7 8.58 235.46 11.7H228.74ZM210.34 29.98C211.22 29.98 211.46 29.46 211.46 27.58V21.18C210.06 21.66 209.42 22.02 208.82 22.74C207.98 23.74 207.42 25.22 207.42 26.46C207.42 28.34 208.78 29.98 210.34 29.98ZM240.9 1.46H276.26V29.94C276.26 32.5 275.9 33.86 274.94 34.9C273.66 36.26 271.94 36.74 268.18 36.74H240.9V1.46ZM247.3 30.86H269.46V6.86H247.3V30.86ZM253.82 17.46H248.7V12.02H255.3V7.86H261.42V12.02H268.1V17.46H263.18C264.26 19.14 266.06 20.66 268.1 21.66V29.1C265.18 27.62 263.18 25.7 261.42 23.38V29.86H255.3V23.7C253.9 25.46 251.3 27.62 248.7 28.82V21.98C250.86 20.94 252.9 18.98 253.82 17.46ZM285.06 37.18V30.3H293.86C300.02 30.3 302.22 29.66 304.46 27.14C305.94 25.5 306.78 22.74 306.78 19.62C306.78 17.5 306.5 14.34 306.18 13.18C305.82 11.82 304.86 10.9 303.7 10.9C303.1 10.9 302.42 11.3 301.66 12.22C300.94 13.06 300.3 14.02 296.7 19.7C292.66 26.1 292.18 26.42 287.46 26.54H285.26V2.26H292.3V15.42C299.22 4.78 300.46 3.54 304.54 3.54C308.06 3.54 310.54 5.06 311.94 8.02C313.06 10.46 313.9 15.3 313.9 19.22C313.9 25.62 312.3 29.94 308.78 33.06C306.94 34.66 304.58 35.82 301.54 36.54C299.58 37.02 297.74 37.18 294.3 37.18H285.06ZM339.46 36.7V30.26C343.3 30.14 345.06 29.54 346.5 27.74C347.94 26.02 348.82 22.7 348.82 19.1C348.82 15.98 348.14 13.34 346.9 11.5C346.06 10.26 345.06 9.7 342.9 9.38C341.34 19.34 340.82 22.06 339.54 26.38C338.46 30.02 337.42 32.06 335.94 33.38C334.62 34.58 332.94 35.3 331.38 35.3C328.78 35.3 325.78 33.66 323.94 31.3C322.06 28.82 320.9 24.74 320.9 20.46C320.9 16.54 321.82 12.82 323.58 9.98C326.62 4.94 331.82 2.46 339.26 2.46C350.18 2.46 355.74 8.1 355.74 19.18C355.74 25.5 353.7 30.82 350.22 33.66C347.62 35.78 344.46 36.7 339.82 36.7H339.46ZM330.78 27.38C331.74 27.38 332.5 26.62 332.98 25.18C333.82 22.54 335.26 15.22 336.1 9.02C333.3 9.46 331.94 10.06 330.54 11.58C328.7 13.58 327.62 16.94 327.62 20.62C327.62 24.62 328.9 27.38 330.78 27.38ZM360.58 37.62V30.62C364.06 29.82 366.74 27.58 368.22 24.3C369.5 21.38 369.9 18.1 369.9 11.78H360.7V5.42H374.74V1.22H382.22V5.42H395.74V11.78H376.9V14.86H393.54C393.34 24.98 393.14 28.42 392.62 30.38C392.1 32.46 390.9 34.3 389.3 35.46C387.1 36.94 386.22 37.1 380.78 37.14H376.14V30.74H381.46C386.02 30.7 386.06 30.58 386.18 22.42L386.22 21.06H376.38C375.14 29.9 369.14 36.18 360.58 37.62ZM428.62 36.34L418.74 14.5C417.22 11.22 416.98 10.9 415.9 10.9C414.86 10.9 414.86 10.94 412.86 14.98L407.78 26.62H399.62L407.7 10.18L408.54 8.74C409.82 6.22 409.9 6.1 410.78 5.26C412.14 4.02 413.98 3.38 416.34 3.38C419.02 3.38 420.34 4.02 422.02 6.22C423.1 7.66 423.46 8.34 425.38 12.42L437.02 36.34H428.62Z" fill="#C71B21"/>
</svg>
