<svg width="736" height="60" viewBox="0 0 736 60" fill="none" xmlns="http://www.w3.org/2000/svg">
<g clip-path="url(#clip0_98_154)">
<path d="M0 38.0548L0 21.9448L13.14 30.0048L0 38.0548Z" fill="#C71B21"/>
<path d="M26.7109 38.0548L26.7109 21.9448L39.8609 30.0048L26.7109 38.0548Z" fill="#C71B21"/>
<path d="M53.4297 38.0548V21.9448L66.5697 30.0048L53.4297 38.0548Z" fill="#C71B21"/>
<path d="M80.1406 38.0548V21.9448L93.2906 30.0048L80.1406 38.0548Z" fill="#C71B21"/>
<path d="M106.859 38.0548V21.9448L119.999 30.0048L106.859 38.0548Z" fill="#C71B21"/>
</g>
<path d="M162.24 58.544V50.224L165.696 50.16C168.384 50.096 170.368 50.032 171.264 50.032L174.976 49.968V47.664H163.968V40.496H174.976V38.448H163.328V31.216H174.976V28.848H163.968V12.784H167.104V10.928H162.432V3.312H167.104V0.303997H176.384V3.312H182.784V0.303997H191.808V3.312H196.992V10.928H191.808V12.784H195.776V22.448C195.904 27.312 194.304 28.72 188.544 28.848H184.256V31.216H195.968V38.448H184.256V40.496H194.88V47.664H184.256V49.584C187.776 49.456 188.864 49.456 195.008 49.008V56.56C187.776 57.328 169.6 58.48 162.24 58.544ZM195.776 58.416V47.344C197.952 44.784 199.616 41.328 200.32 37.744C200.832 35.056 200.896 33.136 201.216 22H197.248V12.656H201.408L201.536 0.687996H210.496L210.176 12.656H221.184L221.056 16.88C220.672 33.456 220.16 44.4 219.648 48.368C219.008 54.192 216.128 56.752 210.176 56.88H206.08V48.432C203.84 53.424 199.808 57.328 195.776 58.416ZM176.384 12.784H182.784V10.928H176.384V12.784ZM172.16 22.128H174.976V19.44H172.16V22.128ZM184.256 22.128H186.816V19.44H184.256V22.128ZM206.528 47.408H208.448C210.304 47.344 211.072 46.064 211.328 42.544C211.648 36.848 211.84 31.472 212.096 22H209.856C209.472 36.656 208.832 41.648 206.528 47.408ZM253.632 30.448V21.552C256.512 21.104 257.792 20.656 260.608 19.312C259.008 17.584 258.816 17.328 257.472 15.472L253.184 18.096V7.728C257.216 5.04 259.072 3.248 260.864 0.303997H271.872L269.12 4.016H284.48V11.184H282.112C279.296 15.792 278.336 17.072 276.096 19.568C278.976 20.656 281.664 21.104 285.632 21.168V30.192C278.976 29.808 272.448 28.08 268.544 25.648C263.808 28.144 259.328 29.552 253.632 30.448ZM230.144 58.224V49.52H234.688V40.816C231.872 46.64 229.952 49.072 226.368 51.44V38.448C229.952 34.864 231.104 33.008 232.64 28.912H226.496V20.592H231.808C230.336 17.136 229.568 15.472 227.84 11.952H235.968L237.952 15.92L240.512 10.16H227.52V1.904H251.392V9.52L245.824 20.592H252.48V33.52H261.504V29.104H270.976V33.52H283.968C283.904 44.016 283.328 50.672 282.368 52.208C280.64 55.92 277.44 57.392 271.424 57.328H266.624V50.48C263.616 54.832 258.624 57.328 251.264 58.224V48.816C256.832 47.792 259.84 45.616 260.16 42.224H251.84V36.08C251.072 39.152 249.536 40.112 245.44 40.112H243.264V49.776C243.52 56.048 241.6 58.096 235.392 58.224H230.144ZM268.096 14.512C269.568 13.04 269.76 12.784 270.976 11.312H264.896C266.24 12.912 266.432 13.168 268.096 14.512ZM243.264 32.24H245.44V28.912H243.264V32.24ZM267.648 48.752H270.592C273.216 48.752 273.92 47.6 273.92 43.248V42.224H269.76C269.056 45.36 268.928 45.808 267.648 48.752ZM321.024 57.968C314.688 57.648 313.088 55.728 313.088 48.56V27.824L309.184 28.464V24.496H305.024V39.6L309.824 38.192V48.112C301.504 50.48 296.832 51.632 290.112 52.976V42.928L292.928 42.416L295.488 41.904V24.496H290.432V15.152H295.488V1.648H305.024V15.152H309.504V18.608L313.088 18.032V2.096H322.112V16.368L325.056 15.856V0.431999H334.272V14.192L347.264 11.824V35.312C347.328 40.432 345.408 42.288 339.776 42.608H335.552V33.072H337.856V23.216L334.272 23.856V45.488H325.056V25.52L322.112 26.096V48.56H338.368C343.296 48.432 346.368 47.344 349.44 44.656V55.024C347.2 56.944 344.256 57.84 340.096 57.968H321.024ZM372.256 56.496C371.584 56.496 370.624 56.496 369.472 56.448V48.48C370.336 48.528 371.68 48.528 371.872 48.528C374.416 48.528 375.328 47.952 375.808 46.08C376.096 45.024 376.384 41.952 376.384 39.696C376.384 37.872 376.144 35.088 375.904 34.368C375.568 33.312 374.416 32.544 373.12 32.544H370.528C368.128 44.928 366.88 49.68 364.432 56.256H355.456C358.72 48.288 361.024 40.656 362.512 32.592L355.504 32.928V24.432H363.856C364.192 21.792 364.336 19.92 364.528 15.456H372.832C372.64 18.672 372.496 20.4 371.92 24.432H376.432C379.84 24.432 382.624 25.968 383.68 28.464C384.64 30.624 385.12 34.416 385.12 39.36C385.12 45.408 384.64 49.056 383.488 51.456C381.904 54.816 378.16 56.496 372.256 56.496ZM389.056 45.696C389.2 42.384 389.248 40.752 389.248 38.832C389.248 32.496 388.912 29.808 387.76 26.832C386.848 24.48 386.032 22.896 384.688 20.88H393.04C395.632 23.808 396.496 26.064 397.216 31.488C397.552 33.888 397.696 36.912 397.696 40.512C397.696 41.712 397.648 43.008 397.6 45.696H389.056ZM437.2 23.616C425.584 22.848 419.392 22.608 411.904 22.608H406.672V15.216C423.424 15.408 424.48 15.456 437.2 16.128V23.616ZM407.008 56.736V48.672H417.664C425.584 48.672 425.92 48.672 427.696 48.528C430.768 48.288 431.872 47.904 432.688 46.896C433.408 45.936 433.792 44.832 433.792 43.728C433.792 40.848 431.344 39.168 427.216 39.168C424 39.168 420.784 40.128 418.192 41.808C416.992 42.576 416.176 43.296 414.64 45.024H407.008V25.584H415.264V35.952C421.6 32.784 425.056 31.776 429.232 31.776C437.392 31.776 443.104 36.624 443.104 43.632C443.104 48.528 440.752 52.656 436.72 54.816C434.608 55.968 432.448 56.448 428.32 56.64C426.304 56.736 424.768 56.736 417.712 56.736H407.008ZM456.064 19.824H450.112V10.864H456.064V0.495998H465.856V10.864H471.04V19.824H465.856V27.888L471.168 26.8V35.696L465.856 37.04V49.712C465.856 55.6 462.848 58.288 456.064 58.288H451.136V48.688H456.064V38.96L449.856 39.856V30.064L456.064 29.424V19.824ZM488.256 13.808C487.168 17.904 485.44 22.256 482.88 26.48H472.256C474.752 22.512 476.48 19.12 477.824 15.408H472.512V1.328H508.544V15.408H502.656C504.192 18.928 506.368 22.704 508.672 26.48H497.28C494.848 22.064 493.248 18.544 491.712 13.808H498.112V9.52H481.92V13.808H488.256ZM471.168 57.456V47.216C475.904 45.552 479.232 42.672 481.344 38.192H472.704V29.68H485.12V24.88H495.424V29.872H508.608V38.192H499.264C502.72 42.864 505.152 45.04 509.568 46.768V57.456C506.048 56.496 504.128 55.152 501.056 52.912C498.304 50.864 496.384 48.688 495.104 46.512V58.416H484.992V47.408C482.88 50.672 481.6 52.08 479.168 53.808C476.736 55.536 474.56 56.56 471.168 57.456ZM525.12 58.288V47.984H535.424C542.912 47.984 544.384 46.96 544.896 41.456C541.504 43.056 539.648 43.504 536.704 43.504C529.6 43.504 524.288 38.64 524.288 32.112C524.288 28.784 525.696 25.84 528.576 23.344C531.328 20.976 534.144 20.016 538.56 20.016C540.48 20.016 541.76 20.208 544.384 20.784V17.392L516.288 17.712V7.856L544.384 7.664V1.008H555.776V7.472L570.688 7.28V17.264L555.776 17.392V41.648C555.84 46.768 554.816 49.968 551.936 53.296C548.224 57.136 544.832 58.288 537.024 58.288H525.12ZM539.264 34.736C542.144 34.736 544.064 33.392 544.064 31.408C544.064 29.744 542.208 28.592 539.584 28.592C537.088 28.592 534.848 30.128 534.848 31.792C534.848 33.52 536.64 34.736 539.264 34.736Z" fill="#C71B21"/>
<g clip-path="url(#clip1_98_154)">
<path d="M616 38.0548V21.9448L629.14 30.0048L616 38.0548Z" fill="#C71B21"/>
<path d="M642.711 38.0548V21.9448L655.861 30.0048L642.711 38.0548Z" fill="#C71B21"/>
<path d="M669.43 38.0548V21.9448L682.57 30.0048L669.43 38.0548Z" fill="#C71B21"/>
<path d="M696.141 38.0548V21.9448L709.291 30.0048L696.141 38.0548Z" fill="#C71B21"/>
<path d="M722.859 38.0548V21.9448L735.999 30.0048L722.859 38.0548Z" fill="#C71B21"/>
</g>
<defs>
<clipPath id="clip0_98_154">
<rect width="120" height="16.11" fill="white" transform="translate(0 21.9448)"/>
</clipPath>
<clipPath id="clip1_98_154">
<rect width="120" height="16.11" fill="white" transform="translate(616 21.9448)"/>
</clipPath>
</defs>
</svg>
