<svg width="865" height="61" viewBox="0 0 865 61" fill="none" xmlns="http://www.w3.org/2000/svg">
<g clip-path="url(#clip0_98_182)">
<path d="M0.5 38.1759L0.5 22.0659L13.64 30.1259L0.5 38.1759Z" fill="white"/>
<path d="M27.2109 38.1759L27.2109 22.0659L40.3609 30.1259L27.2109 38.1759Z" fill="white"/>
<path d="M53.9297 38.1759V22.0659L67.0697 30.1259L53.9297 38.1759Z" fill="white"/>
<path d="M80.6406 38.1759V22.0659L93.7906 30.1259L80.6406 38.1759Z" fill="white"/>
<path d="M107.359 38.1759V22.0659L120.499 30.1259L107.359 38.1759Z" fill="white"/>
</g>
<path d="M150.388 55.9131V45.0331H191.156V22.3771C191.156 17.9611 189.94 16.5531 186.228 16.5531H150.772V5.41709H189.364C197.236 5.41709 202.356 10.2171 202.356 17.8331V55.9131H150.388ZM244.148 23.0811C234.228 19.6891 223.156 16.2971 214.836 14.1211V2.79309C226.228 5.73709 238.452 9.38509 244.148 11.5611V23.0811ZM214.324 56.7451V45.6731H232.244C239.86 45.6091 246.068 44.5851 249.076 42.8571C253.748 40.5531 256.628 35.5611 256.692 29.6731V8.10509H268.084V27.3691C268.02 38.5691 265.076 45.6091 258.356 50.6011C252.724 54.9531 245.62 56.6171 232.052 56.7451H214.324ZM284.276 57.0011V46.6971H298.74C308.02 46.8251 311.988 42.1531 311.86 31.2731V23.7211H295.988V37.3531H285.044V23.7211H274.42V13.3531H285.044V2.47309H295.988V13.3531H311.86V2.47309H323.252V13.3531H334.324V23.7211H323.252V31.2091C323.572 47.5931 314.676 57.0011 298.932 57.0011H284.276ZM338.676 58.0891V45.9291C344.884 44.0731 346.868 40.6171 347.252 31.2731V2.40909H358.132V30.2491C358.388 46.5051 351.476 56.4251 338.676 58.0891ZM365.172 56.1051V2.40909H376.244V44.5851C385.14 44.1371 386.292 42.5371 386.42 30.0571V15.0811H397.172V31.5931C397.172 42.3451 395.892 47.1451 391.988 50.8571C387.892 54.6331 383.22 56.0411 374.836 56.1051H365.172ZM406.26 56.9371V46.3131H428.852C439.796 46.4411 445.236 43.1131 446.772 35.4331H420.532V24.9371H447.028V14.2491H423.476C421.876 25.6411 415.412 32.7451 404.084 35.6251V24.3611C410.228 22.2491 412.724 16.9371 413.62 3.81709H458.42V30.5051C458.42 48.9371 449.332 56.9371 428.532 56.9371H406.26ZM500.148 23.0811C490.228 19.6891 479.156 16.2971 470.836 14.1211V2.79309C482.228 5.73709 494.452 9.38509 500.148 11.5611V23.0811ZM470.324 56.7451V45.6731H488.244C495.86 45.6091 502.068 44.5851 505.076 42.8571C509.748 40.5531 512.628 35.5611 512.692 29.6731V8.10509H524.084V27.3691C524.02 38.5691 521.076 45.6091 514.356 50.6011C508.724 54.9531 501.62 56.6171 488.052 56.7451H470.324ZM540.788 58.1531V1.44909H552.5V18.5371C567.412 22.1211 572.852 23.6571 582.26 26.9211V38.7611C573.684 35.6251 565.62 33.2571 552.5 30.0571V58.1531H540.788ZM604.02 59.0491V33.9611H594.804V25.8331H597.876L601.14 21.1611L596.66 15.3371C595.444 13.6731 594.996 12.7131 594.996 11.6891C594.996 10.6011 595.124 10.4091 596.916 7.46509L600.948 0.48909H610.804L605.236 10.8571L606.836 12.8411L611.7 5.80109H622.196L612.532 20.0091H619.956L622.132 25.8331V30.1851C622.004 33.4491 621.236 33.9611 616.884 33.9611H613.108V59.0491H604.02ZM623.22 31.0811V21.2251C627.316 19.8811 628.724 17.5131 629.428 10.7931H623.284V2.15309H653.108C652.98 14.6971 652.788 19.0491 652.276 22.3771C651.38 27.4331 648.372 29.4171 641.716 29.2891H636.98V20.1371H638.964C642.548 20.1371 642.804 19.4971 642.868 10.7931H638.964C637.492 23.2731 633.204 28.7771 623.22 31.0811ZM608.5 25.8331H613.428L611.828 21.0971L608.5 25.8331ZM623.22 57.4491V31.9131H652.532V48.8091C652.596 55.7851 650.612 57.6411 643.252 57.4491H623.22ZM593.46 53.8011C594.74 48.4891 594.996 45.8011 595.124 36.8411H602.292C602.1 46.3771 601.844 49.1931 601.076 53.8011H593.46ZM614.452 52.9051V36.8411H621.3V52.9051H614.452ZM633.268 48.6171H642.228V40.0411H633.268V48.6171ZM660.596 60.1371V48.5531C668.404 46.5051 670.9 43.3691 671.028 35.6251V22.6331C666.228 24.6811 663.732 25.5131 658.74 26.9211V15.7851C669.236 12.7131 676.084 8.42509 682.356 1.00109H694.132C700.02 8.04109 707.764 12.7131 718.004 15.3371V26.4091C713.908 25.6411 711.668 25.0011 706.292 23.0171V59.6891H695.156V22.3771H704.692C697.46 18.9211 693.62 15.9771 687.988 9.64109C683.572 15.2731 678.836 18.9851 672.052 22.1211H681.972V35.3051C681.908 46.0571 679.924 50.7291 673.652 55.2091C669.876 57.7051 666.164 59.1131 660.596 60.1371Z" fill="white"/>
<g clip-path="url(#clip1_98_182)">
<path d="M744.5 38.1759V22.0659L757.64 30.1259L744.5 38.1759Z" fill="white"/>
<path d="M771.211 38.1759V22.0659L784.361 30.1259L771.211 38.1759Z" fill="white"/>
<path d="M797.93 38.1759V22.0659L811.07 30.1259L797.93 38.1759Z" fill="white"/>
<path d="M824.641 38.1759V22.0659L837.791 30.1259L824.641 38.1759Z" fill="white"/>
<path d="M851.359 38.1759V22.0659L864.499 30.1259L851.359 38.1759Z" fill="white"/>
</g>
<defs>
<clipPath id="clip0_98_182">
<rect width="120" height="16.11" fill="white" transform="translate(0.5 22.0659)"/>
</clipPath>
<clipPath id="clip1_98_182">
<rect width="120" height="16.11" fill="white" transform="translate(744.5 22.0659)"/>
</clipPath>
</defs>
</svg>
