<svg width="932" height="65" viewBox="0 0 932 65" fill="none" xmlns="http://www.w3.org/2000/svg">
<g clip-path="url(#clip0_221_15894)">
<path d="M114 40.5548V24.4448L127.14 32.5048L114 40.5548Z" fill="white" fill-opacity="0.929412"/>
<path d="M140.71 40.5548V24.4448L153.86 32.5048L140.71 40.5548Z" fill="white" fill-opacity="0.929412"/>
<path d="M167.43 40.5548V24.4448L180.57 32.5048L167.43 40.5548Z" fill="white" fill-opacity="0.929412"/>
<path d="M194.14 40.5548V24.4448L207.29 32.5048L194.14 40.5548Z" fill="white" fill-opacity="0.929412"/>
<path d="M220.86 40.5548V24.4448L234 32.5048L220.86 40.5548Z" fill="white" fill-opacity="0.929412"/>
</g>
<path d="M351.44 61.044V44.276C347.344 44.98 346.512 45.108 341.392 45.812V36.468C346.384 35.828 347.152 35.764 351.44 35.06V23.284H348.816C347.472 27.892 344.656 31.028 340.24 32.884V22.068C342.032 19.7 342.16 19.124 342.352 9.588L342.416 6.132H349.712C349.712 10.1 349.712 10.676 349.648 14.068H351.44V3.06H361.104V14.068H365.456V23.284H361.104V33.716L365.584 32.884V41.716L361.104 42.676V61.044H351.44ZM379.728 60.916V52.852H371.024C369.936 48.564 369.296 46.452 367.632 42.292H377.296C379.024 46.452 379.664 48.308 380.432 51.764H385.744V40.244H366.608V31.476H385.744V28.084H366.608V20.02H378.064V16.052H367.824V7.412H378.064V3.124H387.728V7.412H398.288V16.052H387.728V20.02H399.888V28.084H395.6V31.476H399.888V40.244H395.6V51.508C395.792 58.548 393.808 60.916 387.472 60.916H379.728ZM404.752 61.556V52.468C410.96 51.956 416.72 50.164 421.584 47.348H405.072V40.18H428.496V38.132H409.552V21.428C407.696 23.412 407.248 23.732 404.624 25.908V13.236C408.592 10.1 411.024 7.092 413.136 2.74H423.952C422.864 4.916 422.672 5.3 421.648 6.836H429.52L431.44 2.356H442.832L441.104 6.836H459.984V13.492H439.376V15.796H457.552V21.556H439.376V23.86H457.552V29.62H439.376V31.988H460.432V38.132H439.12V40.18H462.608V47.348H446.672C450.896 49.332 457.04 50.932 462.992 51.508V60.916C453.776 60.212 446.544 57.588 439.12 52.34V61.364H428.176V53.684C421.84 58.1 414.736 60.468 404.752 61.556ZM419.984 15.796H429.136V13.492H419.984V15.796ZM419.984 23.86H429.136V21.556H419.984V23.86ZM419.984 31.988H429.136V29.62H419.984V31.988ZM471.824 10.932V3.508H492.496V10.932H471.824ZM506.448 60.404C497.808 60.276 495.888 58.74 495.952 52.084V24.884H514.256V13.748H496.4V4.148H525.584V24.5C525.84 32.82 524.304 34.868 517.52 34.996H506.512V50.292H516.112C521.872 50.164 522.96 49.716 526.672 46.324V57.524C523.344 59.956 521.552 60.404 514.96 60.404H506.448ZM468.112 19.828V12.212H495.056V19.828H468.112ZM471.696 28.788V21.364H492.88V28.788H471.696ZM471.696 37.94V30.516H492.88V37.94H471.696ZM470.928 60.084V39.924H493.584V52.276C493.52 58.612 491.728 60.276 485.072 60.084H470.928ZM479.824 51.636H483.92V47.924H479.824V51.636ZM546.256 61.172V52.276H556.432V49.844H535.888V43.892H556.432V42.1H532.688V35.636H556.432V33.716H535.888V28.34H556.432V26.548H538.32V13.684H556.432V11.7H534.416V5.3H556.432V1.972H567.312V5.3H589.584V11.7H567.312V13.684H586.256V21.62C586.128 25.46 584.976 26.548 580.88 26.548H567.312V28.34H587.024V35.636H591.248V42.1H587.024V43.892C587.024 48.18 585.04 49.844 579.984 49.844H567.312V54.58C567.312 58.868 565.008 61.044 560.464 61.172H546.256ZM548.432 21.492H556.432V18.932H548.432V21.492ZM567.312 21.492H575.056V18.932H567.312V21.492ZM567.312 35.636H576.528V33.716H567.312V35.636ZM567.312 43.892H576.528V42.1H567.312V43.892Z" fill="#C71B21"/>
<g clip-path="url(#clip1_221_15894)">
<path d="M698 40.5548V24.4448L711.14 32.5048L698 40.5548Z" fill="white" fill-opacity="0.929412"/>
<path d="M724.71 40.5548V24.4448L737.86 32.5048L724.71 40.5548Z" fill="white" fill-opacity="0.929412"/>
<path d="M751.43 40.5548V24.4448L764.57 32.5048L751.43 40.5548Z" fill="white" fill-opacity="0.929412"/>
<path d="M778.14 40.5548V24.4448L791.29 32.5048L778.14 40.5548Z" fill="white" fill-opacity="0.929412"/>
<path d="M804.86 40.5548V24.4448L818 32.5048L804.86 40.5548Z" fill="white" fill-opacity="0.929412"/>
</g>
<defs>
<clipPath id="clip0_221_15894">
<rect width="120" height="16.11" fill="white" transform="translate(114 24.4448)"/>
</clipPath>
<clipPath id="clip1_221_15894">
<rect width="120" height="16.11" fill="white" transform="translate(698 24.4448)"/>
</clipPath>
</defs>
</svg>
