<svg width="253" height="26" viewBox="0 0 253 26" fill="none" xmlns="http://www.w3.org/2000/svg">
<g clip-path="url(#clip0_283_28929)">
<path d="M0.373047 16.8076L0.373047 8.80762L6.94305 12.8101L0.373047 16.8076Z" fill="white" fill-opacity="0.929412"/>
<path d="M13.7285 16.8076L13.7285 8.80762L20.3035 12.8101L13.7285 16.8076Z" fill="white" fill-opacity="0.929412"/>
<path d="M27.0879 16.8076V8.80762L33.6579 12.8101L27.0879 16.8076Z" fill="white" fill-opacity="0.929412"/>
<path d="M40.4434 16.8076V8.80762L47.0184 12.8101L40.4434 16.8076Z" fill="white" fill-opacity="0.929412"/>
<path d="M53.8027 16.8076V8.80762L60.3727 12.8101L53.8027 16.8076Z" fill="white" fill-opacity="0.929412"/>
</g>
<path d="M153.525 22.6788V19.6927H156.941V18.8764H150.045V16.8786H156.941V16.2771H148.971V14.1073H156.941V13.4629H150.045V11.6583H156.941V11.0568H150.861V6.73889H156.941V6.07294H149.551V3.9247H156.941V2.80762H160.593V3.9247H168.069V6.07294H160.593V6.73889H166.951V9.4027C166.908 10.6916 166.522 11.0568 165.147 11.0568H160.593V11.6583H167.209V14.1073H168.627V16.2771H167.209V16.8786C167.209 18.3179 166.543 18.8764 164.846 18.8764H160.593V20.4661C160.593 21.9054 159.819 22.6358 158.294 22.6788H153.525ZM154.255 9.35974H156.941V8.50044H154.255V9.35974ZM160.593 9.35974H163.192V8.50044H160.593V9.35974ZM160.593 14.1073H163.686V13.4629H160.593V14.1073ZM160.593 16.8786H163.686V16.2771H160.593V16.8786Z" fill="#C71B21"/>
<path d="M128.541 5.8152V3.32324H135.48V5.8152H128.541ZM140.163 22.4211C137.263 22.3781 136.618 21.8625 136.64 19.6283V10.4983H142.784V6.76042H136.79V3.53807H146.586V10.3695C146.672 13.1622 146.156 13.8496 143.879 13.8926H140.184V19.0268H143.407C145.34 18.9839 145.705 18.8335 146.951 17.6949V21.4543C145.834 22.2707 145.233 22.4211 143.02 22.4211H140.163ZM127.295 8.80124V6.24484H136.339V8.80124H127.295ZM128.498 11.8088V9.31682H135.609V11.8088H128.498ZM128.498 14.8807V12.3888H135.609V14.8807H128.498ZM128.24 22.3136V15.5467H135.845V19.6928C135.823 21.8195 135.222 22.3781 132.988 22.3136H128.24ZM131.226 19.478H132.601V18.232H131.226V19.478Z" fill="#C71B21"/>
<path d="M106.027 22.8077V19.7572C108.111 19.5853 110.045 18.9838 111.677 18.0386H106.135V15.6326H113.997V14.9452H107.639V9.33826C107.016 10.0042 106.865 10.1116 105.984 10.842V6.58852C107.316 5.53589 108.133 4.52622 108.842 3.06542H112.472C112.107 3.79582 112.042 3.92471 111.699 4.44029H114.341L114.985 2.93652H118.809L118.229 4.44029H124.567V6.67445H117.649V7.44782H123.75V9.38123H117.649V10.1546H123.75V12.088H117.649V12.8829H124.717V14.9452H117.563V15.6326H125.447V18.0386H120.098C121.516 18.7046 123.578 19.2416 125.576 19.435V22.5929C122.483 22.3566 120.055 21.4758 117.563 19.7142V22.7433H113.89V20.1654C111.763 21.6477 109.379 22.4425 106.027 22.8077ZM111.14 7.44782H114.212V6.67445H111.14V7.44782ZM111.14 10.1546H114.212V9.38123H111.14V10.1546ZM111.14 12.8829H114.212V12.088H111.14V12.8829Z" fill="#C71B21"/>
<path d="M88.1325 22.6359V17.0075C86.7576 17.2438 86.4783 17.2868 84.7597 17.5231V14.3866C86.4354 14.1718 86.6931 14.1503 88.1325 13.914V9.96127H87.2517C86.8006 11.508 85.8553 12.5606 84.373 13.1836V9.55311C84.9746 8.75826 85.0175 8.56492 85.082 5.36405L85.1034 4.204H87.5524C87.5524 5.53591 87.5524 5.72925 87.531 6.86782H88.1325V3.17285H91.3763V6.86782H92.8371V9.96127H91.3763V13.4629L92.8801 13.1836V16.1482L91.3763 16.4704V22.6359H88.1325ZM97.6277 22.5929V19.8861H94.7061C94.3409 18.4468 94.126 17.7379 93.5675 16.3415H96.8113C97.3914 17.7379 97.6062 18.3609 97.864 19.5209H99.647V15.6541H93.2238V12.711H99.647V11.5725H93.2238V8.86567H97.0691V7.53377H93.6319V4.63365H97.0691V3.19433H100.313V4.63365H103.858V7.53377H100.313V8.86567H104.395V11.5725H102.955V12.711H104.395V15.6541H102.955V19.435C103.02 21.7981 102.354 22.5929 100.227 22.5929H97.6277Z" fill="#C71B21"/>
<g clip-path="url(#clip1_283_28929)">
<path d="M192.627 16.8076V8.80762L199.197 12.8101L192.627 16.8076Z" fill="white" fill-opacity="0.929412"/>
<path d="M205.982 16.8076V8.80762L212.557 12.8101L205.982 16.8076Z" fill="white" fill-opacity="0.929412"/>
<path d="M219.342 16.8076V8.80762L225.912 12.8101L219.342 16.8076Z" fill="white" fill-opacity="0.929412"/>
<path d="M232.697 16.8076V8.80762L239.272 12.8101L232.697 16.8076Z" fill="white" fill-opacity="0.929412"/>
<path d="M246.057 16.8076V8.80762L252.627 12.8101L246.057 16.8076Z" fill="white" fill-opacity="0.929412"/>
</g>
<defs>
<clipPath id="clip0_283_28929">
<rect width="60" height="8" fill="white" transform="translate(0.373047 8.80762)"/>
</clipPath>
<clipPath id="clip1_283_28929">
<rect width="60" height="8" fill="white" transform="translate(192.627 8.80762)"/>
</clipPath>
</defs>
</svg>
