<svg width="375" height="86" viewBox="0 0 375 86" fill="none" xmlns="http://www.w3.org/2000/svg">
<path d="M390.397 0.681366H371.693V53.1126L339.601 0.681366H317.831V84.5918H336.228V31.6496L369.138 84.5918H390.397V0.681366ZM391.078 85.2732H368.759L336.91 34.0364V85.2732H317.15V0H339.983L340.182 0.326044L371.012 50.6939V0H391.078V85.2732Z" fill="#C71B21" fill-opacity="0.4"/>
<path d="M304.074 68.4433H249.292V48.8201H298.35V32.6716H249.292V16.7281H304.074V0.681366H230.997V84.5918H304.074V68.4433ZM304.755 17.4094H249.973V31.9903H299.031V49.5015H249.973V67.762H304.755V85.2732H230.316V0H304.755V17.4094Z" fill="#C71B21" fill-opacity="0.4"/>
<path d="M218.75 68.4433H168.159V0.681366H149.353V84.5918H218.75V68.4433ZM168.84 67.762H219.431V85.2732H148.672V0H168.84V67.762Z" fill="#C71B21" fill-opacity="0.4"/>
<path d="M137.106 68.4433H86.5141V0.681366H67.7087V84.5918H137.106V68.4433ZM87.1955 67.762H137.787V85.2732H67.0273V0H87.1955V67.762Z" fill="#C71B21" fill-opacity="0.4"/>
<path d="M30.2129 0L58.4643 85.2732H37.507L31.068 65.7518H1.91628L-4.0124 85.2732H-24.8872L4.0908 0H30.2129ZM4.57853 0.681366L-23.9364 84.5918H-4.51743L1.41058 65.0704H31.561L38.0001 84.5918H57.5208L29.7212 0.681366H4.57853ZM27.5746 48.9226H6.0098L16.4346 14.684L27.5746 48.9226ZM6.92938 48.2412H26.6371L16.4559 16.9523L6.92938 48.2412Z" fill="#C71B21" fill-opacity="0.4"/>
</svg>
