<svg width="146" height="81" viewBox="0 0 146 81" fill="none" xmlns="http://www.w3.org/2000/svg">
<path d="M143.387 64.7119H97.3076V58.4717C97.3077 51.3108 99.5597 48.4749 108.254 48.3047L109.115 48.2959H119.387C128.698 48.2959 134.363 46.7601 138.299 43.1123C142.391 39.3923 144.771 32.7888 144.916 24.9609L144.923 24.2002C144.923 17.3842 143.099 10.8557 140.123 7.30371C136.667 3.07986 130.139 1.06445 120.251 1.06445V0.0644531C130.204 0.0644531 137.141 2.07943 140.897 6.6709H140.896C144.079 10.476 145.923 17.2687 145.923 24.2002C145.923 32.5101 143.484 39.7426 138.978 43.8447L138.979 43.8457C134.761 47.7545 128.777 49.2959 119.387 49.2959H109.115C104.442 49.2959 101.834 50.0035 100.357 51.3506C98.9134 52.6678 98.3077 54.827 98.3076 58.4717V63.7119H144.387V80.8799H78.3555V62.3115C78.3555 51.2858 80.4018 43.4127 85.4492 38.3271C90.4986 33.2397 98.3265 31.168 109.308 31.168V32.168L108.296 32.1738C87.2624 32.429 79.3556 40.7658 79.3555 62.3115V79.8799H143.387V64.7119ZM119.1 31.168V32.168H109.308V31.168H119.1ZM126.067 24.2002C126.067 20.8895 125.585 19.3475 124.445 18.4795C123.845 18.0222 122.967 17.6748 121.636 17.4502C120.306 17.2258 118.602 17.1357 116.411 17.1357H81.043V0.0644531H120.251V1.06445H82.043V16.1357H116.411C125.243 16.1357 127.067 17.5762 127.067 24.2002L127.063 24.8145C126.986 30.7975 125.696 32.0871 119.713 32.1641L119.1 32.168V31.168C120.763 31.168 122.017 31.0889 122.975 30.8887C123.921 30.6907 124.504 30.3897 124.896 29.9971C125.289 29.6044 125.59 29.022 125.788 28.0752C125.988 27.1173 126.067 25.8632 126.067 24.2002Z" fill="white"/>
<path d="M67.2051 59.5283V22.376C67.2051 14.4082 65.7653 10.7603 61.3496 6.44043C57.7227 3.09251 52.9244 1.1853 47.6533 1.06934L47.1416 1.06445V0.0644531C52.8509 0.0645049 58.0888 2.06957 62.0273 5.70508L62.0381 5.71484L62.0488 5.72559C64.3228 7.95017 65.8906 10.0616 66.8701 12.6904C67.8426 15.3008 68.2051 18.3426 68.2051 22.376V59.5283C68.205 66.2851 66.3279 71.6699 62.4863 75.3574C58.6514 79.0385 53.0129 80.8798 45.7979 80.8799H23.0449C15.7579 80.8798 10.179 79.1945 6.42773 75.585C2.66869 71.968 0.925785 66.5942 0.925781 59.624V22.2803C0.925781 15.1064 2.45911 9.50785 5.93945 5.70508C9.43665 1.88407 14.7245 0.0644531 21.7979 0.0644531V1.06445L21.1553 1.06934C7.78591 1.28777 1.92578 8.38871 1.92578 22.2803V59.624L1.93066 60.2578C2.14048 73.4612 8.96471 79.8797 23.0449 79.8799H45.7979L46.4541 79.875C59.9187 79.6572 66.9796 72.7004 67.2002 60.1396L67.2051 59.5283ZM41.6689 63.8076V64.8076H28.709V63.8076H41.6689ZM48.1572 56.168V25.2559C48.1572 21.9386 47.6207 20.0628 46.4434 18.9512C45.2453 17.8202 43.1275 17.2324 39.2695 17.2324H28.8057C25.3208 17.2324 23.4849 17.7533 22.4414 18.8613C21.3784 19.9902 20.877 21.9948 20.877 25.7363V55.1123C20.877 57.2762 20.9208 58.8954 21.0996 60.1289C21.2784 61.3621 21.5761 62.0784 21.9824 62.5381C22.3757 62.9829 22.9854 63.3153 24.0771 63.5264C25.1847 63.7404 26.6716 63.8076 28.709 63.8076V64.8076C21.0593 64.8076 19.9904 63.8797 19.8867 56.6445L19.877 55.1123V25.7363C19.877 18.4824 21.6792 16.3636 28.1631 16.2383L28.8057 16.2324H39.2695C47.0453 16.2325 49.1572 18.536 49.1572 25.2559V56.168C49.1572 63.656 48.1969 64.8076 41.6689 64.8076V63.8076C43.2894 63.8076 44.4816 63.7348 45.376 63.5352C46.2494 63.3401 46.7602 63.0416 47.1045 62.6426C47.4626 62.2274 47.7415 61.5869 47.9189 60.5137C48.0967 59.4389 48.1572 58.0324 48.1572 56.168ZM47.1416 0.0644531V1.06445H21.7979V0.0644531H47.1416Z" fill="white"/>
</svg>
