<svg width="331" height="31" viewBox="0 0 331 31" fill="none" xmlns="http://www.w3.org/2000/svg">
<g clip-path="url(#clip0_287_3335)">
<path d="M0.986328 19.0288L0.986328 11.0288L7.55633 15.0313L0.986328 19.0288Z" fill="#EEEEEE" fill-opacity="0.929412"/>
<path d="M14.3413 19.0288L14.3413 11.0288L20.9163 15.0313L14.3413 19.0288Z" fill="#EEEEEE" fill-opacity="0.929412"/>
<path d="M27.7012 19.0288V11.0288L34.2712 15.0313L27.7012 19.0288Z" fill="#EEEEEE" fill-opacity="0.929412"/>
<path d="M41.0562 19.0288V11.0288L47.6312 15.0313L41.0562 19.0288Z" fill="#EEEEEE" fill-opacity="0.929412"/>
<path d="M54.4165 19.0288V11.0288L60.9865 15.0313L54.4165 19.0288Z" fill="#EEEEEE" fill-opacity="0.929412"/>
</g>
<path d="M246.014 27.0648C243.503 26.3552 241.51 25.2089 239.108 23.1073C236.297 20.5418 235.124 18.7405 233.677 14.7012C231.767 20.842 227.373 25.1543 221.095 27.0375V21.6608C224.616 20.5418 227.154 18.1673 229.147 14.2099C230.347 11.7263 230.948 8.47844 230.948 4.32995V2.69238H235.779V4.35724C235.806 8.6149 236.652 12.1357 238.344 15.0833C239.9 17.8944 243.557 21.0604 246.014 21.77V27.0648Z" fill="#C71B21"/>
<path d="M208.704 24.0355C208.704 26.2189 207.612 27.3106 205.429 27.3106H200.571V23.2986H203.9V19.4503C202.208 21.3881 197.514 24.554 193.748 26.137V21.0878C195.876 20.2691 198.524 18.7953 201.089 16.9121C198.633 16.1206 196.231 15.5201 194.512 15.138V11.0168C197.869 11.6446 200.107 12.1904 201.69 12.709V16.4481C202.454 15.8476 203.191 15.2472 203.9 14.5922V9.76138H194.512V5.74935H203.9V2.52881H208.704V5.74935H212.17L210.778 2.9382H215.664L216.81 5.74935H218.147V9.76138H208.704V11.4535H210.56C210.696 12.4906 210.751 12.8182 211.051 13.828C213.508 13.0638 215.691 12.2723 218.147 11.2352V15.6293C216.646 16.0933 214.108 16.8575 212.525 17.3215C214.326 19.3138 215.582 20.1326 218.857 21.3608V26.2189C216.1 25.4274 214.408 24.6086 212.525 23.1894C210.751 21.852 209.796 20.7057 208.704 18.6042V24.0355Z" fill="#C71B21"/>
<path d="M180.484 27.5287C180.348 27.5287 180.129 27.5287 179.856 27.5014V23.4075C182.449 23.08 183.623 22.7252 184.578 22.0974C185.697 21.306 186.379 19.5046 186.379 17.2939C186.379 15.9566 186.106 14.5919 185.588 13.5548C185.288 12.8998 185.015 12.5723 184.25 11.9173C182.968 16.2568 181.849 19.2317 180.757 21.2787C178.765 24.9905 176.472 26.6826 173.497 26.6826C171.095 26.6826 169.294 25.509 168.066 23.1619C167.192 21.497 166.701 19.5046 166.701 17.676C166.701 15.8747 167.138 13.9915 167.929 12.4358C168.721 10.9347 169.458 10.0886 171.204 8.80589C170.713 6.64977 170.495 5.53077 170.195 3.40194L174.807 3.18359C174.971 4.54823 175.053 5.20325 175.38 6.8954C177.973 6.43143 178.191 6.40413 180.648 6.34955L181.194 3.40194H186.079L185.26 7.41396C187.171 8.3965 188.044 9.02423 188.945 10.1705C190.309 11.89 191.074 14.4555 191.074 17.3485C191.074 21.497 189.436 24.4446 186.188 26.2186C184.578 27.092 182.667 27.5287 180.484 27.5287ZM178.273 15.9839C179.065 13.9642 179.529 12.2994 179.802 10.6072C177.973 10.6072 177.482 10.6618 176.39 11.0712C177.236 14.0461 177.509 14.7557 178.273 15.9839ZM173.852 21.7426C174.534 21.7426 174.944 21.4697 175.517 20.6236C173.879 17.3485 173.361 16.1476 172.487 13.7459C171.778 14.5101 171.614 14.7557 171.396 15.5745C171.232 16.2295 171.15 16.8572 171.15 17.4577C171.15 18.5221 171.477 19.8321 171.941 20.6236C172.323 21.306 173.088 21.7426 173.852 21.7426Z" fill="#C71B21"/>
<path d="M143.666 27.2556V22.8615H148.06C151.253 22.8615 151.881 22.4248 152.099 20.0776C150.653 20.7599 149.861 20.951 148.606 20.951C145.576 20.951 143.311 18.8767 143.311 16.0929C143.311 14.6736 143.911 13.4182 145.14 12.3538C146.313 11.3439 147.514 10.9345 149.397 10.9345C150.216 10.9345 150.762 11.0164 151.881 11.2621V9.81555L139.899 9.95201V5.74893L151.881 5.66706V2.82861H156.739V5.58518L163.098 5.5033V9.76096L156.739 9.81555V20.1595C156.766 22.3429 156.33 23.7075 155.101 25.1268C153.519 26.7643 152.072 27.2556 148.742 27.2556H143.666ZM149.698 17.2119C150.926 17.2119 151.744 16.6387 151.744 15.7926C151.744 15.083 150.953 14.5918 149.834 14.5918C148.77 14.5918 147.814 15.2468 147.814 15.9564C147.814 16.6933 148.579 17.2119 149.698 17.2119Z" fill="#C71B21"/>
<path d="M116.373 27.2556V22.8615H120.767C123.961 22.8615 124.588 22.4248 124.807 20.0776C123.36 20.7599 122.569 20.951 121.313 20.951C118.284 20.951 116.019 18.8767 116.019 16.0929C116.019 14.6736 116.619 13.4182 117.847 12.3538C119.021 11.3439 120.222 10.9345 122.105 10.9345C122.924 10.9345 123.469 11.0164 124.588 11.2621V9.81555L112.607 9.95201V5.74893L124.588 5.66706V2.82861H129.447V5.58518L135.806 5.5033V9.76096L129.447 9.81555V20.1595C129.474 22.3429 129.037 23.7075 127.809 25.1268C126.226 26.7643 124.78 27.2556 121.45 27.2556H116.373ZM122.405 17.2119C123.633 17.2119 124.452 16.6387 124.452 15.7926C124.452 15.083 123.66 14.5918 122.541 14.5918C121.477 14.5918 120.522 15.2468 120.522 15.9564C120.522 16.6933 121.286 17.2119 122.405 17.2119Z" fill="#C71B21"/>
<path d="M99.2877 27.2556C99.0421 27.2556 98.7965 27.2556 98.4144 27.2283V22.6978C100.762 22.6432 101.608 22.4521 102.399 21.7971C103.163 21.1148 103.627 20.1049 103.627 19.0132C103.627 18.3855 103.436 17.7578 103.163 17.3757C102.235 16.1748 100.216 15.3287 98.3052 15.3287C98.0323 15.3287 97.4591 15.3833 96.8314 15.4652V21.9063C96.8314 23.7895 96.6403 24.9085 96.2037 25.7272C95.7124 26.6552 94.5115 27.1465 92.8193 27.1465C88.0431 27.1465 84.9863 24.3626 84.9863 20.0231C84.9863 17.594 86.1053 15.4106 88.2615 13.6639C89.2713 12.8451 90.0901 12.4357 92.5191 11.5623L92.4645 9.76101H86.4056V5.39418H92.41V2.85596H97.077V5.39418H101.771V9.73372H97.077V11.1529C97.7593 11.1256 98.3325 11.0984 98.6327 11.0984C104.883 11.0984 108.813 14.2097 108.813 19.0951C108.813 21.5788 107.858 23.653 106.138 25.0176C104.337 26.4096 101.771 27.2556 99.2877 27.2556ZM104.119 9.87018C103.382 7.35925 103.245 6.97715 102.153 4.35706H106.657C107.94 7.05903 108.185 7.74135 108.704 9.87018H104.119ZM91.5639 22.3429C92.1643 22.3429 92.3281 21.9881 92.3281 20.7054V16.3386C91.3728 16.6661 90.9361 16.9117 90.5268 17.403C89.9536 18.0853 89.5715 19.0951 89.5715 19.9412C89.5715 21.2239 90.4995 22.3429 91.5639 22.3429Z" fill="#C71B21"/>
<g clip-path="url(#clip1_287_3335)">
<path d="M270.014 19.0288V11.0288L276.584 15.0313L270.014 19.0288Z" fill="#EEEEEE" fill-opacity="0.929412"/>
<path d="M283.369 19.0288V11.0288L289.944 15.0313L283.369 19.0288Z" fill="#EEEEEE" fill-opacity="0.929412"/>
<path d="M296.729 19.0288V11.0288L303.299 15.0313L296.729 19.0288Z" fill="#EEEEEE" fill-opacity="0.929412"/>
<path d="M310.083 19.0288V11.0288L316.658 15.0313L310.083 19.0288Z" fill="#EEEEEE" fill-opacity="0.929412"/>
<path d="M323.444 19.0288V11.0288L330.014 15.0313L323.444 19.0288Z" fill="#EEEEEE" fill-opacity="0.929412"/>
</g>
<defs>
<clipPath id="clip0_287_3335">
<rect width="60" height="8" fill="white" transform="translate(0.986328 11.0288)"/>
</clipPath>
<clipPath id="clip1_287_3335">
<rect width="60" height="8" fill="white" transform="translate(270.014 11.0288)"/>
</clipPath>
</defs>
</svg>
