<svg width="118" height="38" viewBox="0 0 118 38" fill="none" xmlns="http://www.w3.org/2000/svg">
<path d="M1.6 37.48V31.72H4.68V24.96L0.6 25.64V19.52L4.68 19.04V13.48H0.6V7.52H4.68V0.919999H11.08V7.52H14.08V13.32H11.08V18.12L14.12 17.56V23.28L11.08 23.8V32.88C11.04 35.76 8.88 37.44 5.24 37.48H1.6ZM13.32 37.8V31.04C16.92 29.96 18.32 29.28 21.2 27.2C18.52 23.56 17.64 21.88 16.48 18.16H15V12.72H22.16V9.88H14.88V4.32H22.16V0.919999H28.8V4.32H36.72V9.88H28.92V12.72H35.64V18.16C33.96 21.88 32.28 24.64 30.08 27.24C33.16 29.32 34.36 29.92 37.36 30.88V37.44C32.48 35.96 28.44 33.88 25.84 31.6C22.32 35 18.64 36.84 13.32 37.8ZM25.48 23C26.96 21.28 27.4 20.52 28.36 18.16H22.88C23.68 20.32 24.2 21.24 25.48 23ZM42.96 37V23.76C41.76 24.64 41.6 24.76 40.4 25.48V17.92C43.72 15.76 45.56 13.44 47 9.48C44.48 11.48 43.24 12.2 40.4 13.36V7C43.88 5.32 45.72 3.48 46.76 0.639998H53.4C52.36 3.36 50.84 5.76 48.92 7.76H53.52L52.92 9.72H56.04V1.2H61.64V2.84H65.76C66.48 4.8 66.92 6.28 67.52 8.64H63.12C62.72 6.68 62.48 5.88 61.64 3.28V9.72H65.32V15.76H61.64V37H56.04V15.76H51.44V13.64C50.56 15.68 50 16.6 48.68 18.4V37H42.96ZM67.32 7.04V1.4H76.16V7.04H67.32ZM66.2 36.8V31.2H62.84V17.56H66.32V11.88H77.2V17.8H75.12V31.48C75.2 35.76 74.04 36.76 69.12 36.8H66.2ZM66.84 30.88H69.36V17.8H66.84V30.88ZM49.84 32.24C50.52 28.96 51 22.8 51 17.88H55.04C55 23.68 54.72 28.96 54.28 32.24H49.84ZM117.4 37.52C114.44 36.56 113.32 35.88 111.04 33.68C108.72 35.6 107.4 36.32 104.56 37.16V33.68C103.16 35.12 102.48 35.36 99.32 35.32H94.28V19.04H105.2V30.32C106.36 30 106.56 29.88 107.6 29.04C106.36 26.08 105.64 22.28 105.4 17.68H93.12V36.84H87.76V33.04L80.08 34.28V28.24L81.84 28.12V6.88H80.32V1.4H94.6V4.48H97.2V0.319997H102.44V4.48H105.4V0.319997H110.48V2.96C110.52 5.96 110.56 8.04 110.56 8.96C110.56 9.56 110.6 10.88 110.64 12.44H117.28V17.68H110.68C110.8 20.72 110.92 21.76 111.44 24.08C112.08 22 112.24 21.08 112.44 18.88H117.76C117.44 22.76 116.4 26.2 114.8 29C115.52 29.76 115.92 30 117.4 30.56V37.52ZM112.28 10.28C111.72 6.12 111.6 5.44 111.08 3.12H116.12C116.68 5.36 117 6.84 117.52 10.28H112.28ZM86.52 10.48H88.12V6.88H86.52V10.48ZM93.12 12.6H95.48L94.88 9.48H94V6.88H93.12V12.6ZM99.24 12.6H100.16L100.76 9.48H98.68L99.24 12.6ZM103.84 12.6H105.4V9.48H104.68L103.84 12.6ZM86.52 18.92H88.12V15.28H86.52V18.92ZM98.48 25.12H100.52V23.36H98.48V25.12ZM86.52 27.6L88.12 27.48V23.76H86.52V27.6ZM98.48 30.32H100.52V28.52H98.48V30.32Z" fill="#C71B21"/>
</svg>
