<svg width="321" height="31" viewBox="0 0 321 31" fill="none" xmlns="http://www.w3.org/2000/svg">
<g clip-path="url(#clip0_287_3286)">
<path d="M0.0629883 19.5274L0.0629883 11.4724L6.63299 15.5024L0.0629883 19.5274Z" fill="#C71B21"/>
<path d="M13.418 19.5274L13.418 11.4724L19.993 15.5024L13.418 19.5274Z" fill="#C71B21"/>
<path d="M26.7778 19.5274V11.4724L33.3478 15.5024L26.7778 19.5274Z" fill="#C71B21"/>
<path d="M40.1328 19.5274V11.4724L46.7078 15.5024L40.1328 19.5274Z" fill="#C71B21"/>
<path d="M53.4932 19.5274V11.4724L60.0632 15.5024L53.4932 19.5274Z" fill="#C71B21"/>
</g>
<path d="M213.413 30.4338V25.1145H218.732C222.598 25.1145 223.358 24.5858 223.622 21.7444C221.871 22.5704 220.913 22.8017 219.393 22.8017C215.726 22.8017 212.983 20.2907 212.983 16.9207C212.983 15.2026 213.71 13.6828 215.197 12.3943C216.618 11.1718 218.072 10.6762 220.351 10.6762C221.342 10.6762 222.003 10.7754 223.358 11.0727V9.32162L208.854 9.48682V4.39875L223.358 4.29963V0.863525H229.239V4.20051L236.937 4.10139V9.25554L229.239 9.32162V21.8436C229.272 24.4867 228.743 26.1387 227.257 27.8567C225.34 29.8391 223.589 30.4338 219.558 30.4338H213.413ZM220.715 18.2753C222.201 18.2753 223.193 17.5815 223.193 16.5573C223.193 15.6982 222.235 15.1035 220.88 15.1035C219.591 15.1035 218.435 15.8965 218.435 16.7555C218.435 17.6476 219.36 18.2753 220.715 18.2753Z" fill="#C71B21"/>
<path d="M177.762 10.5773H174.69V5.95175H177.762V0.599365H182.817V5.95175H185.494V10.5773H182.817V14.7402L185.56 14.1786V18.7711L182.817 19.4649V26.0067C182.817 29.0463 181.265 30.434 177.762 30.434H175.218V25.4781H177.762V20.4561L174.558 20.9186V15.8636L177.762 15.5332V10.5773ZM194.381 7.47157C193.82 9.58609 192.928 11.8328 191.606 14.0134H186.121C187.41 11.9649 188.302 10.2138 188.996 8.29755H186.254V1.02888H204.855V8.29755H201.815C202.608 10.1147 203.731 12.064 204.921 14.0134H199.04C197.784 11.7337 196.958 9.91648 196.165 7.47157H199.469V5.25792H191.11V7.47157H194.381ZM185.56 30.0045V24.7182C188.005 23.8591 189.723 22.3724 190.813 20.0596H186.353V15.6653H192.762V13.1874H198.082V15.7645H204.888V20.0596H200.064C201.848 22.4715 203.104 23.5948 205.383 24.4869V30.0045C203.566 29.5089 202.575 28.815 200.989 27.6587C199.568 26.6014 198.577 25.4781 197.917 24.3547V30.5H192.696V24.8173C191.606 26.5023 190.945 27.2291 189.69 28.1212C188.434 29.0133 187.311 29.5419 185.56 30.0045Z" fill="#C71B21"/>
<path d="M166.537 30.0041C159.847 30.0041 158.062 29.905 156.625 29.4094C155.337 28.9882 154.37 28.0218 153.825 26.6093C153.602 26.0642 153.503 25.5438 153.503 24.9987C153.503 23.388 154.618 21.7773 156.576 20.6375C157.889 19.8445 158.954 19.448 161.655 18.7542C161.655 17.9365 161.606 17.5896 161.457 17.317C161.259 16.9701 160.887 16.7718 160.441 16.7718C158.979 16.7718 157.393 17.763 155.832 19.7206H151.05C153.032 17.2179 154.048 15.7559 155.684 13.0301H151.223V9.5362H157.864L158.781 7.67773H163.217L162.473 9.5362H170.254V13.0301H160.317L159.301 14.839C160.863 13.9965 161.705 13.724 162.746 13.724C163.985 13.724 164.951 14.2939 165.521 15.3346C165.794 15.8798 165.868 16.3754 165.868 17.9365L171.468 17.3418V21.3065L165.868 21.7278V24.8748H161.655V22.4464C158.88 23.165 158.013 23.7597 158.013 24.9243C158.013 26.0394 158.657 26.3368 161.135 26.3368C163.638 26.3368 166.958 26.2129 170.155 25.9898V29.9298C168.396 29.9793 167.726 30.0041 166.537 30.0041Z" fill="#C71B21"/>
<path d="M147.333 30.2022C144.294 29.3432 141.882 27.9555 138.975 25.4115C135.571 22.3058 134.151 20.1252 132.4 15.2353C130.087 22.6692 124.768 27.8895 117.168 30.1692V23.6604C121.431 22.3058 124.503 19.4314 126.915 14.6406C128.369 11.6341 129.096 7.70236 129.096 2.68036V0.697998H134.944V2.7134C134.977 7.86755 136.001 12.1296 138.049 15.6979C139.933 19.101 144.36 22.9335 147.333 23.7926V30.2022Z" fill="#C71B21"/>
<path d="M102.169 26.5351C102.169 29.1782 100.847 30.4998 98.2039 30.4998H92.3229V25.643H96.3537V20.9844C94.3052 23.3302 88.6224 27.1628 84.063 29.0791V22.9668C86.6401 21.9756 89.8449 20.1915 92.9506 17.9118C89.9771 16.9536 87.0696 16.2268 84.9881 15.7642V10.7753C89.0519 11.5352 91.7612 12.196 93.6775 12.8237V17.3501C94.6026 16.6232 95.4946 15.8964 96.3537 15.1034V9.25545H84.9881V4.39865H96.3537V0.5H102.169V4.39865H106.365L104.68 0.995591H110.594L111.981 4.39865H113.6V9.25545H102.169V11.3039H104.415C104.581 12.5594 104.647 12.9559 105.01 14.1783C107.984 13.2532 110.627 12.2951 113.6 11.0396V16.3589C111.783 16.9206 108.71 17.8457 106.794 18.4074C108.975 20.8193 110.495 21.8104 114.459 23.2972V29.1782C111.122 28.2201 109.074 27.2289 106.794 25.5109C104.647 23.8919 103.49 22.5043 102.169 19.9602V26.5351Z" fill="#C71B21"/>
<g clip-path="url(#clip1_287_3286)">
<path d="M260.937 19.5274V11.4724L267.507 15.5024L260.937 19.5274Z" fill="#C71B21"/>
<path d="M274.292 19.5274V11.4724L280.867 15.5024L274.292 19.5274Z" fill="#C71B21"/>
<path d="M287.652 19.5274V11.4724L294.222 15.5024L287.652 19.5274Z" fill="#C71B21"/>
<path d="M301.007 19.5274V11.4724L307.582 15.5024L301.007 19.5274Z" fill="#C71B21"/>
<path d="M314.367 19.5274V11.4724L320.937 15.5024L314.367 19.5274Z" fill="#C71B21"/>
</g>
<defs>
<clipPath id="clip0_287_3286">
<rect width="60" height="8.055" fill="white" transform="translate(0.0629883 11.4724)"/>
</clipPath>
<clipPath id="clip1_287_3286">
<rect width="60" height="8.055" fill="white" transform="translate(260.937 11.4724)"/>
</clipPath>
</defs>
</svg>
