<svg width="375" height="25" viewBox="0 0 375 25" fill="none" xmlns="http://www.w3.org/2000/svg">
<g clip-path="url(#clip0_283_5034)">
<path d="M52.542 16.5V8.5L59.112 12.5025L52.542 16.5Z" fill="white"/>
<path d="M65.8975 16.5V8.5L72.4725 12.5025L65.8975 16.5Z" fill="white"/>
<path d="M79.2568 16.5V8.5L85.8268 12.5025L79.2568 16.5Z" fill="white"/>
<path d="M92.6123 16.5V8.5L99.1873 12.5025L92.6123 16.5Z" fill="white"/>
<path d="M105.972 16.5V8.5L112.542 12.5025L105.972 16.5Z" fill="white"/>
</g>
<path d="M222.775 22.456V18.9097H226.321C228.898 18.9097 229.405 18.5573 229.581 16.663C228.414 17.2137 227.775 17.3679 226.762 17.3679C224.317 17.3679 222.489 15.6939 222.489 13.4472C222.489 12.3018 222.973 11.2886 223.964 10.4295C224.912 9.61456 225.881 9.28416 227.401 9.28416C228.061 9.28416 228.502 9.35024 229.405 9.54848V8.38108L219.735 8.49121V5.09914L229.405 5.03306V2.74231H233.326V4.96698L238.458 4.9009V8.33702L233.326 8.38108V16.7291C233.348 18.4912 232.995 19.5925 232.004 20.7379C230.727 22.0595 229.559 22.456 226.872 22.456H222.775ZM227.643 14.3502C228.634 14.3502 229.295 13.8877 229.295 13.2049C229.295 12.6322 228.656 12.2357 227.753 12.2357C226.894 12.2357 226.123 12.7643 226.123 13.337C226.123 13.9317 226.74 14.3502 227.643 14.3502Z" fill="white"/>
<path d="M199.009 9.21802H196.96V6.13432H199.009V2.56604H202.379V6.13432H204.163V9.21802H202.379V11.9934L204.207 11.6189V14.6806L202.379 15.1431V19.5044C202.379 21.5308 201.343 22.4559 199.009 22.4559H197.313V19.1519H199.009V15.8039L196.872 16.1123V12.7423L199.009 12.522V9.21802ZM210.088 7.14754C209.713 8.55723 209.119 10.055 208.238 11.5088H204.581C205.44 10.1431 206.035 8.97573 206.498 7.6982H204.669V2.85238H217.07V7.6982H215.044C215.572 8.90965 216.321 10.2092 217.114 11.5088H213.194C212.357 9.98895 211.806 8.77749 211.277 7.14754H213.48V5.67177H207.907V7.14754H210.088ZM204.207 22.1696V18.6453C205.837 18.0726 206.982 17.0815 207.709 15.5396H204.735V12.6101H209.009V10.9581H212.555V12.6762H217.092V15.5396H213.876C215.066 17.1475 215.903 17.8964 217.423 18.4911V22.1696C216.211 21.8392 215.55 21.3766 214.493 20.6057C213.546 19.9008 212.885 19.1519 212.445 18.403V22.5H208.965V18.7114C208.238 19.8348 207.797 20.3193 206.96 20.9141C206.123 21.5088 205.374 21.8612 204.207 22.1696Z" fill="white"/>
<path d="M191.526 22.1696C187.066 22.1696 185.876 22.1036 184.918 21.7732C184.059 21.4923 183.415 20.8481 183.051 19.9064C182.903 19.543 182.837 19.1961 182.837 18.8326C182.837 17.7588 183.58 16.6851 184.885 15.9251C185.761 15.3965 186.471 15.1322 188.272 14.6696C188.272 14.1245 188.239 13.8932 188.139 13.7115C188.007 13.4802 187.76 13.3481 187.462 13.3481C186.488 13.3481 185.43 14.0088 184.389 15.3139H181.201C182.523 13.6454 183.2 12.6707 184.29 10.8536H181.317V8.52427H185.744L186.355 7.28528H189.312L188.817 8.52427H194.004V10.8536H187.38L186.702 12.0595C187.743 11.4978 188.305 11.3161 188.999 11.3161C189.825 11.3161 190.469 11.6961 190.849 12.3899C191.03 12.7533 191.08 13.0837 191.08 14.1245L194.813 13.728V16.3712L191.08 16.652V18.75H188.272V17.1311C186.421 17.6102 185.843 18.0066 185.843 18.7831C185.843 19.5265 186.273 19.7247 187.925 19.7247C189.593 19.7247 191.807 19.6421 193.938 19.4934V22.1201C192.765 22.1531 192.319 22.1696 191.526 22.1696Z" fill="white"/>
<path d="M178.722 22.3018C176.696 21.7291 175.088 20.804 173.15 19.108C170.881 17.0375 169.934 15.5837 168.766 12.3238C167.225 17.2798 163.678 20.76 158.612 22.2798V17.9406C161.454 17.0375 163.502 15.1212 165.11 11.9274C166.079 9.92295 166.564 7.30181 166.564 3.95379V2.6322H170.463V3.97582C170.485 7.41194 171.167 10.2533 172.533 12.6322C173.788 14.9009 176.74 17.456 178.722 18.0287V22.3018Z" fill="white"/>
<path d="M148.612 19.8568C148.612 21.6189 147.731 22.5 145.969 22.5H142.049V19.2621H144.736V16.1564C143.37 17.7203 139.582 20.2753 136.542 21.5529V17.478C138.26 16.8172 140.397 15.6278 142.467 14.1079C140.485 13.4692 138.546 12.9846 137.159 12.6762V9.35022C139.868 9.85683 141.674 10.2974 142.952 10.7159V13.7335C143.568 13.2489 144.163 12.7643 144.736 12.2357V8.337H137.159V5.09912H144.736V2.5H148.612V5.09912H151.41L150.286 2.8304H154.229L155.154 5.09912H156.234V8.337H148.612V9.70264H150.11C150.22 10.5396 150.264 10.804 150.507 11.6189C152.489 11.0022 154.251 10.3634 156.234 9.52643V13.0727C155.022 13.4471 152.974 14.0639 151.696 14.4383C153.15 16.0463 154.163 16.707 156.806 17.6982V21.6189C154.582 20.9802 153.216 20.3194 151.696 19.174C150.264 18.0947 149.494 17.1696 148.612 15.4736V19.8568Z" fill="white"/>
<g clip-path="url(#clip1_283_5034)">
<path d="M262.458 16.5V8.5L269.028 12.5025L262.458 16.5Z" fill="white"/>
<path d="M275.813 16.5V8.5L282.388 12.5025L275.813 16.5Z" fill="white"/>
<path d="M289.173 16.5V8.5L295.743 12.5025L289.173 16.5Z" fill="white"/>
<path d="M302.528 16.5V8.5L309.103 12.5025L302.528 16.5Z" fill="white"/>
<path d="M315.888 16.5V8.5L322.458 12.5025L315.888 16.5Z" fill="white"/>
</g>
<defs>
<clipPath id="clip0_283_5034">
<rect width="59.9999" height="8" fill="white" transform="translate(52.542 8.5)"/>
</clipPath>
<clipPath id="clip1_283_5034">
<rect width="59.9999" height="8" fill="white" transform="translate(262.458 8.5)"/>
</clipPath>
</defs>
</svg>
