<svg width="784" height="61" viewBox="0 0 784 61" fill="none" xmlns="http://www.w3.org/2000/svg">
<g clip-path="url(#clip0_98_196)">
<path d="M0 38.1759L0 22.0659L13.14 30.1259L0 38.1759Z" fill="#EEEEEE" fill-opacity="0.929412"/>
<path d="M26.7109 38.1759L26.7109 22.0659L39.8609 30.1259L26.7109 38.1759Z" fill="#EEEEEE" fill-opacity="0.929412"/>
<path d="M53.4297 38.1759V22.0659L66.5697 30.1259L53.4297 38.1759Z" fill="#EEEEEE" fill-opacity="0.929412"/>
<path d="M80.1406 38.1759V22.0659L93.2906 30.1259L80.1406 38.1759Z" fill="#EEEEEE" fill-opacity="0.929412"/>
<path d="M106.859 38.1759V22.0659L119.999 30.1259L106.859 38.1759Z" fill="#EEEEEE" fill-opacity="0.929412"/>
</g>
<path d="M147.584 58.6651V50.1531H137.856V41.9611H147.584V39.1451H139.264V14.4411H147.584V12.1371H137.856V4.71309H147.584V0.233089H157.056V4.71309H166.784V12.1371H157.056V14.4411H165.888V31.9771C165.952 37.4811 164.352 39.2731 159.616 39.1451H157.056V41.9611H166.464V47.9771L169.088 47.7211L172.544 30.2491H167.424V20.9051H196.992V30.2491H182.656L179.392 46.5691C181.376 46.1851 181.824 46.1211 184.384 45.4811C183.552 41.9611 183.36 41.3211 182.016 37.1611H191.616C193.728 42.3451 195.84 49.0651 198.016 57.7051H187.456L186.624 54.0571C179.52 56.1051 175.232 56.8091 166.016 57.6411V50.1531H157.056V58.6651H147.584ZM169.536 12.0731V3.43309H195.584V12.0731H169.536ZM147.328 23.5291H149.504V21.4811H147.328V23.5291ZM155.328 23.5291H157.76V21.4811H155.328V23.5291ZM147.328 31.9771H149.504V29.0971H147.328V31.9771ZM155.328 31.9771H157.76V29.0971H155.328V31.9771ZM261.44 59.7531C256.704 58.2171 254.912 57.1291 251.264 53.6091C247.552 56.6811 245.44 57.8331 240.896 59.1771V53.6091C238.656 55.9131 237.568 56.2971 232.512 56.2331H224.448V30.1851H241.92V48.2331C243.776 47.7211 244.096 47.5291 245.76 46.1851C243.776 41.4491 242.624 35.3691 242.24 28.0091H222.592V58.6651H214.016V52.5851L201.728 54.5691V44.9051L204.544 44.7131V10.7291H202.112V1.96109H224.96V6.88909H229.12V0.233089H237.504V6.88909H242.24V0.233089H250.368V4.45709C250.432 9.25709 250.496 12.5851 250.496 14.0571C250.496 15.0171 250.56 17.1291 250.624 19.6251H261.248V28.0091H250.688C250.88 32.8731 251.072 34.5371 251.904 38.2491C252.928 34.9211 253.184 33.4491 253.504 29.9291H262.016C261.504 36.1371 259.84 41.6411 257.28 46.1211C258.432 47.3371 259.072 47.7211 261.44 48.6171V59.7531ZM253.248 16.1691C252.352 9.51309 252.16 8.42509 251.328 4.71309H259.392C260.288 8.29709 260.8 10.6651 261.632 16.1691H253.248ZM212.032 16.4891H214.592V10.7291H212.032V16.4891ZM222.592 19.8811H226.368L225.408 14.8891H224V10.7291H222.592V19.8811ZM232.384 19.8811H233.856L234.816 14.8891H231.488L232.384 19.8811ZM239.744 19.8811H242.24V14.8891H241.088L239.744 19.8811ZM212.032 29.9931H214.592V24.1691H212.032V29.9931ZM231.168 39.9131H234.432V37.0971H231.168V39.9131ZM212.032 43.8811L214.592 43.6891V37.7371H212.032V43.8811ZM231.168 48.2331H234.432V45.3531H231.168V48.2331ZM266.56 24.9371V16.6811H285.76V13.1611H270.464V4.84109H285.76V0.361092H296.704V4.84109H309.504C310.528 3.88109 311.488 2.53709 312.256 1.44909H324.352C320.448 7.84909 316.416 13.1611 313.152 16.6811H325.44V24.9371H306.112C304.512 26.2171 303.232 27.2411 301.44 28.3931H320.448V49.1291C320.448 52.0731 319.68 54.5691 318.016 56.1051C316.288 57.7051 313.984 58.1531 308.672 58.1531H276.096V40.3611C272.192 41.7691 270.912 42.2171 266.56 43.3691V32.4251C274.368 30.8251 283.2 28.0091 288.384 24.9371H266.56ZM304.064 13.1611H296.704V16.6811H300.416C301.568 15.6571 303.04 14.3131 304.064 13.1611ZM287.104 38.8891H309.44V35.6891H287.104V38.8891ZM287.104 49.4491H309.44V45.9931H287.104V49.4491ZM331.712 57.9611V47.1451H335.744C345.472 47.2091 350.464 44.7771 355.2 37.6731C358.336 33.2571 363.264 23.0171 366.464 14.2491H336.128V3.68909H382.4C378.944 14.8251 376.064 22.1211 372.032 29.8011C379.136 39.7211 383.808 47.5291 388.544 57.2571H374.656C371.84 50.5371 369.856 46.7611 366.08 40.6811C360 51.6891 351.552 57.1931 339.776 57.9611H331.712ZM404.288 58.1531V1.44909H416V18.5371C430.912 22.1211 436.352 23.6571 445.76 26.9211V38.7611C437.184 35.6251 429.12 33.2571 416 30.0571V58.1531H404.288ZM461.824 35.2411V24.3611H514.24V35.2411H461.824ZM528.128 56.5531V45.6091H548.224C560.192 45.4811 564.224 41.0011 563.968 28.2011V1.57709H575.616V26.9211C575.616 38.4411 574.336 43.9451 570.56 48.6171C566.272 53.9291 559.104 56.5531 549.056 56.5531H528.128ZM528.192 36.6491V1.83309H539.84V36.6491H528.192ZM589.824 35.2411V24.3611H642.24V35.2411H589.824Z" fill="#C71B21"/>
<g clip-path="url(#clip1_98_196)">
<path d="M664 38.1759V22.0659L677.14 30.1259L664 38.1759Z" fill="#EEEEEE" fill-opacity="0.929412"/>
<path d="M690.711 38.1759V22.0659L703.861 30.1259L690.711 38.1759Z" fill="#EEEEEE" fill-opacity="0.929412"/>
<path d="M717.43 38.1759V22.0659L730.57 30.1259L717.43 38.1759Z" fill="#EEEEEE" fill-opacity="0.929412"/>
<path d="M744.141 38.1759V22.0659L757.291 30.1259L744.141 38.1759Z" fill="#EEEEEE" fill-opacity="0.929412"/>
<path d="M770.859 38.1759V22.0659L783.999 30.1259L770.859 38.1759Z" fill="#EEEEEE" fill-opacity="0.929412"/>
</g>
<defs>
<clipPath id="clip0_98_196">
<rect width="120" height="16.11" fill="white" transform="translate(0 22.0659)"/>
</clipPath>
<clipPath id="clip1_98_196">
<rect width="120" height="16.11" fill="white" transform="translate(664 22.0659)"/>
</clipPath>
</defs>
</svg>
