<svg width="313" height="26" viewBox="0 0 313 26" fill="none" xmlns="http://www.w3.org/2000/svg">
<g clip-path="url(#clip0_287_3509)">
<path d="M0.0537109 16.937L0.0537109 8.93701L6.62371 12.9395L0.0537109 16.937Z" fill="#EEEEEE" fill-opacity="0.929412"/>
<path d="M13.4087 16.937L13.4087 8.93701L19.9837 12.9395L13.4087 16.937Z" fill="#EEEEEE" fill-opacity="0.929412"/>
<path d="M26.7686 16.937V8.93701L33.3386 12.9395L26.7686 16.937Z" fill="#EEEEEE" fill-opacity="0.929412"/>
<path d="M40.1235 16.937V8.93701L46.6985 12.9395L40.1235 16.937Z" fill="#EEEEEE" fill-opacity="0.929412"/>
<path d="M53.4839 16.937V8.93701L60.0539 12.9395L53.4839 16.937Z" fill="#EEEEEE" fill-opacity="0.929412"/>
</g>
<path d="M209.806 24.8726V20.5447H214.134C217.279 20.5447 217.898 20.1146 218.113 17.8027C216.688 18.4748 215.909 18.6629 214.672 18.6629C211.688 18.6629 209.457 16.6199 209.457 13.878C209.457 12.4801 210.048 11.2436 211.258 10.1952C212.414 9.20057 213.597 8.79735 215.452 8.79735C216.258 8.79735 216.796 8.87799 217.898 9.11993V7.6952L206.097 7.82961V3.68982L217.898 3.60918V0.813477H222.683V3.52853L228.946 3.44789V7.64143L222.683 7.6952V17.8834C222.71 20.0339 222.279 21.378 221.07 22.7758C219.511 24.3887 218.086 24.8726 214.806 24.8726H209.806ZM215.747 14.9801C216.957 14.9801 217.763 14.4156 217.763 13.5823C217.763 12.8834 216.984 12.3995 215.882 12.3995C214.833 12.3995 213.892 13.0447 213.892 13.7436C213.892 14.4694 214.645 14.9801 215.747 14.9801Z" fill="#C71B21"/>
<path d="M180.801 8.71691H178.301V4.95347H180.801V0.598633H184.914V4.95347H187.091V8.71691H184.914V12.104L187.145 11.647V15.3836L184.914 15.9481V21.2707C184.914 23.7438 183.65 24.8728 180.801 24.8728H178.731V20.8406H180.801V16.7545L178.193 17.1309V13.018L180.801 12.7492V8.71691ZM194.322 6.19003C193.865 7.91046 193.14 9.73842 192.064 11.5126H187.602C188.65 9.84594 189.376 8.42121 189.941 6.86207H187.709V0.948095H202.844V6.86207H200.371C201.016 8.34057 201.93 9.92659 202.898 11.5126H198.113C197.091 9.65777 196.419 8.17928 195.774 6.19003H198.462V4.38895H191.661V6.19003H194.322ZM187.145 24.5234V20.2223C189.134 19.5234 190.532 18.3137 191.419 16.432H187.79V12.8567H193.005V10.8406H197.333V12.9373H202.871V16.432H198.946C200.398 18.3943 201.419 19.3083 203.274 20.0341V24.5234C201.795 24.1201 200.989 23.5556 199.699 22.6148C198.543 21.7545 197.736 20.8406 197.199 19.9266V24.9266H192.951V20.3029C192.064 21.6739 191.527 22.2653 190.505 22.9911C189.484 23.7169 188.57 24.147 187.145 24.5234Z" fill="#C71B21"/>
<path d="M172.878 10.309C167.999 9.98641 165.398 9.8856 162.253 9.8856H160.055V6.78076C167.091 6.86141 167.535 6.88157 172.878 7.16383V10.309ZM160.196 24.2203V20.8332H164.672C167.999 20.8332 168.14 20.8332 168.886 20.7727C170.176 20.6719 170.64 20.5106 170.983 20.0872C171.285 19.684 171.446 19.2203 171.446 18.7566C171.446 17.5469 170.418 16.8412 168.684 16.8412C167.333 16.8412 165.983 17.2445 164.894 17.9501C164.39 18.2727 164.047 18.5751 163.402 19.3009H160.196V11.1356H163.664V15.4904C166.325 14.1598 167.777 13.7364 169.531 13.7364C172.958 13.7364 175.358 15.7727 175.358 18.7162C175.358 20.7727 174.37 22.5066 172.676 23.4138C171.789 23.8977 170.882 24.0993 169.148 24.18C168.301 24.2203 167.656 24.2203 164.692 24.2203H160.196Z" fill="#C71B21"/>
<path d="M145.599 24.1197C145.317 24.1197 144.914 24.1197 144.43 24.0996V20.7528C144.793 20.773 145.357 20.773 145.438 20.773C146.507 20.773 146.89 20.531 147.091 19.7447C147.212 19.3012 147.333 18.0109 147.333 17.0633C147.333 16.2972 147.232 15.1278 147.132 14.8254C146.991 14.3818 146.507 14.0593 145.962 14.0593H144.874C143.866 19.2609 143.341 21.2568 142.313 24.0189H138.543C139.914 20.6722 140.882 17.4665 141.507 14.0794L138.563 14.2205V10.652H142.071C142.212 9.54313 142.273 8.75684 142.353 6.88184H145.841C145.761 8.23264 145.7 8.95845 145.458 10.652H147.353C148.785 10.652 149.954 11.2972 150.398 12.3455C150.801 13.2528 151.003 14.8455 151.003 16.9222C151.003 19.4625 150.801 20.9947 150.317 22.0028C149.652 23.4141 148.079 24.1197 145.599 24.1197ZM152.656 19.5834C152.716 18.1923 152.737 17.5068 152.737 16.7004C152.737 14.0391 152.595 12.9101 152.112 11.6601C151.728 10.6722 151.386 10.0068 150.821 9.16006H154.329C155.418 10.3899 155.781 11.3375 156.083 13.6157C156.224 14.6238 156.285 15.8939 156.285 17.406C156.285 17.9101 156.265 18.4544 156.245 19.5834H152.656Z" fill="#C71B21"/>
<path d="M120.102 24.8191V21.6739H126.393V20.8137H121.016V17.8298H126.393V17.0503H121.581V8.66317H126.393V7.88361H120.882V5.14167H126.393V4.3621C125.667 4.38898 125.129 4.38898 124.968 4.38898L120.882 4.44274V1.40511C128.032 1.29758 130.048 1.19006 135.156 0.571777V3.93199C133.059 4.12016 132.038 4.17393 130.156 4.25457V5.14167H135.909V7.88361H130.156V8.66317H135.237V13.6901C135.29 16.1632 134.591 16.9965 132.414 17.0503H130.156V17.8298H135.452V20.8137H130.156V21.6739H135.989V24.8191H120.102ZM113.866 25.3836V19.8997C112.495 21.9427 112.145 22.346 110.936 23.3944V16.8083C112.172 15.4911 113.113 13.8513 113.677 12.0234H111.473V8.15242H113.866V5.75995C112.764 5.89436 112.602 5.92124 111.473 6.02877V2.07715C114.376 1.83522 116.016 1.64705 120.398 1.00188V5.00726C119.269 5.19543 119.108 5.22231 117.952 5.32984V8.15242H120.586V12.0234H117.952V13.0718C119.081 13.932 119.242 14.0664 120.264 14.9266V20.4642C119.242 19.3083 119.081 19.147 117.952 17.9911V25.3836H113.866ZM125.102 11.9159H126.393V11.1632H125.102V11.9159ZM130.156 11.9159H131.473V11.1632H130.156V11.9159ZM125.102 14.4427H126.393V13.7976H125.102V14.4427ZM130.156 14.4427H131.473V13.7976H130.156V14.4427Z" fill="#C71B21"/>
<path d="M109.134 25.437C107.145 24.7918 106.392 24.3349 104.86 22.8564C103.301 24.1467 102.414 24.6306 100.505 25.1951V22.8564C99.5645 23.8241 99.1075 23.9854 96.9838 23.9585H93.5967V13.0177H100.935V20.5983C101.715 20.3832 101.849 20.3026 102.548 19.7381C101.715 17.7488 101.231 15.1951 101.07 12.1037H92.8172V24.98H89.215V22.4263L84.0537 23.2596V19.2005L85.2365 19.1198V4.84561H84.215V1.16282H93.8118V3.23271H95.5591V0.437012H99.0806V3.23271H101.07V0.437012H104.484V2.21121C104.511 4.22733 104.538 5.62518 104.538 6.24346C104.538 6.64669 104.564 7.53379 104.591 8.58217H109.054V12.1037H104.618C104.699 14.1467 104.78 14.8456 105.129 16.4048C105.559 15.0069 105.667 14.3886 105.801 12.9101H109.376C109.161 15.5177 108.462 17.8295 107.387 19.7112C107.871 20.222 108.14 20.3832 109.134 20.7596V25.437ZM105.693 7.13056C105.317 4.33486 105.237 3.87787 104.887 2.31873H108.274C108.65 3.82411 108.866 4.81873 109.215 7.13056H105.693ZM88.3817 7.26497H89.4569V4.84561H88.3817V7.26497ZM92.8172 8.6897H94.4032L93.9999 6.59293H93.4085V4.84561H92.8172V8.6897ZM96.9301 8.6897H97.5483L97.9516 6.59293H96.5537L96.9301 8.6897ZM100.021 8.6897H101.07V6.59293H100.586L100.021 8.6897ZM88.3817 12.937H89.4569V10.4908H88.3817V12.937ZM96.4193 17.1037H97.7903V15.9209H96.4193V17.1037ZM88.3817 18.7703L89.4569 18.6897V16.1897H88.3817V18.7703ZM96.4193 20.5983H97.7903V19.3886H96.4193V20.5983Z" fill="#C71B21"/>
<g clip-path="url(#clip1_287_3509)">
<path d="M252.946 16.937V8.93701L259.516 12.9395L252.946 16.937Z" fill="#EEEEEE" fill-opacity="0.929412"/>
<path d="M266.301 16.937V8.93701L272.876 12.9395L266.301 16.937Z" fill="#EEEEEE" fill-opacity="0.929412"/>
<path d="M279.661 16.937V8.93701L286.231 12.9395L279.661 16.937Z" fill="#EEEEEE" fill-opacity="0.929412"/>
<path d="M293.016 16.937V8.93701L299.591 12.9395L293.016 16.937Z" fill="#EEEEEE" fill-opacity="0.929412"/>
<path d="M306.376 16.937V8.93701L312.946 12.9395L306.376 16.937Z" fill="#EEEEEE" fill-opacity="0.929412"/>
</g>
<defs>
<clipPath id="clip0_287_3509">
<rect width="60" height="8" fill="white" transform="translate(0.0537109 8.93701)"/>
</clipPath>
<clipPath id="clip1_287_3509">
<rect width="60" height="8" fill="white" transform="translate(252.946 8.93701)"/>
</clipPath>
</defs>
</svg>
