<svg width="932" height="67" viewBox="0 0 932 67" fill="none" xmlns="http://www.w3.org/2000/svg">
<g clip-path="url(#clip0_98_271)">
<path d="M114 41.1139V25.0039L127.14 33.0639L114 41.1139Z" fill="#EEEEEE" fill-opacity="0.929412"/>
<path d="M140.711 41.1139V25.0039L153.861 33.0639L140.711 41.1139Z" fill="#EEEEEE" fill-opacity="0.929412"/>
<path d="M167.43 41.1139V25.0039L180.57 33.0639L167.43 41.1139Z" fill="#EEEEEE" fill-opacity="0.929412"/>
<path d="M194.141 41.1139V25.0039L207.291 33.0639L194.141 41.1139Z" fill="#EEEEEE" fill-opacity="0.929412"/>
<path d="M220.859 41.1139V25.0039L233.999 33.0639L220.859 41.1139Z" fill="#EEEEEE" fill-opacity="0.929412"/>
</g>
<path d="M311.056 61.3466C310.48 61.3466 309.904 61.3466 309.008 61.2826V50.6586C314.512 50.5306 316.496 50.0826 318.352 48.5466C320.144 46.9466 321.232 44.5786 321.232 42.0186C321.232 40.5466 320.784 39.0746 320.144 38.1786C317.968 35.3626 313.232 33.3786 308.752 33.3786C308.112 33.3786 306.768 33.5066 305.296 33.6986V48.8026C305.296 53.2186 304.848 55.8426 303.824 57.7626C302.672 59.9386 299.856 61.0906 295.888 61.0906C284.688 61.0906 277.52 54.5626 277.52 44.3866C277.52 38.6906 280.144 33.5706 285.2 29.4746C287.568 27.5546 289.488 26.5946 295.184 24.5466L295.056 20.3226H280.848V10.0826H294.928V4.13059H305.872V10.0826H316.88V20.2586H305.872V23.5866C307.472 23.5226 308.816 23.4586 309.52 23.4586C324.176 23.4586 333.392 30.7546 333.392 42.2106C333.392 48.0346 331.152 52.8986 327.12 56.0986C322.896 59.3626 316.88 61.3466 311.056 61.3466ZM322.384 20.5786C320.656 14.6906 320.336 13.7946 317.776 7.65059H328.336C331.344 13.9866 331.92 15.5866 333.136 20.5786H322.384ZM292.944 49.8266C294.352 49.8266 294.736 48.9946 294.736 45.9866V35.7466C292.496 36.5146 291.472 37.0906 290.512 38.2426C289.168 39.8426 288.272 42.2106 288.272 44.1946C288.272 47.2026 290.448 49.8266 292.944 49.8266ZM345.232 61.2826V41.5066C343.568 43.1706 342.608 43.9386 340.304 45.5386V31.9706C345.488 29.2826 349.712 24.2906 351.696 18.4026C347.344 22.1146 345.744 23.1386 340.56 25.4426V14.3706C345.552 11.4266 349.072 7.52259 350.224 3.74659H361.552C360.464 8.09859 358.032 12.1946 354.128 16.4826H363.344C362.832 18.4666 362.704 18.7226 362.064 20.4506C364.752 19.2346 365.328 17.9546 365.456 13.4746V4.70659H391.824V18.2746H393.68C396.24 18.1466 396.816 17.8906 398.8 15.8426V26.0826C396.88 28.0026 395.664 28.3866 390.992 28.5146H388.176C382.992 28.3226 381.648 27.2986 381.52 23.4586V13.3466H375.696C375.632 24.1626 371.28 29.1546 361.552 29.3466V21.7306C360.4 24.8026 357.712 29.4746 355.856 31.5866V61.2826H345.232ZM359.696 61.8586V52.0666C362.832 51.8746 367.248 50.7226 370.704 49.0586C367.44 45.6026 366.16 43.5546 364.368 39.2666H360.976V30.3066H396.88V37.1546C394.512 41.5066 391.12 45.7946 387.344 49.0586C391.184 50.4666 394.256 51.1066 399.056 51.4906V61.8586C391.696 61.2826 384.144 58.9146 378.704 55.3946C372.944 59.0426 366.544 61.2186 359.696 61.8586ZM378.832 43.4906C380.752 41.8906 381.328 41.2506 382.928 39.2666H374.928C376.144 41.1866 376.464 41.5706 378.832 43.4906ZM404.88 60.1306V49.6346H416.592L411.92 21.1546H406.544V10.9786H428.176V3.10659H440.08V10.9786H460.56V21.1546H455.248L449.424 49.6346H462.224V60.1306H404.88ZM427.728 49.6346H438.544L443.664 21.1546H423.696L427.728 49.6346ZM477.2 61.0266V50.7226H496.08C501.584 50.7226 506.256 50.2106 508.432 49.2506C510.736 48.2906 512.848 45.2186 512.848 42.7226C512.848 39.0746 509.776 36.2586 505.744 36.2586C502.416 36.2586 498.448 37.3466 495.248 39.1386C492.944 40.4186 491.536 41.8906 489.36 45.2826H477.712L484.112 21.6026H471.888V11.6186H486.672L488.144 4.96259H500.176L498.256 11.6186H524.496V21.6026H495.376L492.752 31.5866C495.376 29.6026 496.528 28.9626 498.704 28.1946C501.648 27.1066 504.784 26.5306 507.6 26.5306C517.776 26.5306 525.072 33.4426 525.072 43.1706C525.072 50.2106 521.616 55.4586 515.088 58.4026C510.544 60.4506 506.448 61.0266 496.08 61.0266H477.2ZM540.944 62.1146V3.17059H550.608V16.4826L554.896 20.4506V21.7946H568.336V20.1946H556.752V14.4986H568.336V12.5146H555.92V6.24259H568.336V3.42659H578.128V6.24259H590.928V12.5146H578.128V14.4986H589.2V20.1946H578.128V21.7946H591.76V28.3866H554.896V32.9946L550.608 27.7466V62.1146H540.944ZM531.344 35.9386C532.56 32.0346 532.88 29.4106 532.944 22.1786V15.9706H539.728V20.7066C539.728 28.3226 539.344 32.2266 538.448 35.9386H531.344ZM575.632 61.8586V53.4106H579.088V50.9146H566.544V61.4746H556.88V29.7306H589.2V52.9626C589.392 59.3626 587.28 61.6026 580.88 61.8586H575.632ZM566.544 37.8586H579.088V35.7466H566.544V37.8586ZM566.544 45.5386H579.088V43.0426H566.544V45.5386ZM596.176 19.1706H607.44V15.7146H598.224V7.84259H607.44V3.29859H617.04V7.84259H625.296V15.7146H617.04V19.1706H626.384V27.3626H623.824L622.992 32.3546H625.872V40.9306H617.04V43.8746H625.296V52.1946H617.04V62.1786H607.44V52.1946H598.224V43.8746H607.44V40.9306H596.752V32.3546H601.68L600.208 27.3626H596.176V19.1706ZM627.792 4.64259H654.096V17.8266C654.096 23.1386 652.112 24.7386 645.648 24.7386H640.016V16.9946H644.496V13.0906H637.328V27.4266H654.8C654.736 38.3706 653.584 43.1066 651.472 48.0346C652.624 49.2506 654.288 50.4666 655.44 50.9146V61.9226C651.728 60.3866 650.128 59.3626 646.608 56.1626C644.432 58.9146 641.232 60.8986 638.48 61.8586V51.2986C639.376 50.6586 640.464 49.6346 640.976 48.9306C639.76 47.0746 638.288 43.8106 637.328 40.2266V62.1786H627.792V4.64259ZM610.512 32.3546H613.968L614.8 27.3626H609.68L610.512 32.3546ZM646.672 35.1706H643.152C643.728 37.0906 644.496 39.3306 645.52 41.6346C646.096 39.3306 646.544 37.0906 646.672 35.1706Z" fill="#C71B21"/>
<g clip-path="url(#clip1_98_271)">
<path d="M698 41.1139V25.0039L711.14 33.0639L698 41.1139Z" fill="#EEEEEE" fill-opacity="0.929412"/>
<path d="M724.711 41.1139V25.0039L737.861 33.0639L724.711 41.1139Z" fill="#EEEEEE" fill-opacity="0.929412"/>
<path d="M751.43 41.1139V25.0039L764.57 33.0639L751.43 41.1139Z" fill="#EEEEEE" fill-opacity="0.929412"/>
<path d="M778.141 41.1139V25.0039L791.291 33.0639L778.141 41.1139Z" fill="#EEEEEE" fill-opacity="0.929412"/>
<path d="M804.859 41.1139V25.0039L817.999 33.0639L804.859 41.1139Z" fill="#EEEEEE" fill-opacity="0.929412"/>
</g>
<defs>
<clipPath id="clip0_98_271">
<rect width="120" height="16.11" fill="white" transform="translate(114 25.0039)"/>
</clipPath>
<clipPath id="clip1_98_271">
<rect width="120" height="16.11" fill="white" transform="translate(698 25.0039)"/>
</clipPath>
</defs>
</svg>
