<svg width="21" height="19" viewBox="0 0 21 19" fill="none" xmlns="http://www.w3.org/2000/svg">
<path d="M13.0244 12.756C13.0244 13.1158 12.733 13.4072 12.3732 13.4072H8.46585C8.10605 13.4072 7.81463 13.1158 7.81463 12.756V10.8023H0V16.6633C0 17.7052 0.911707 18.6169 1.95366 18.6169H18.8853C19.9273 18.6169 20.839 17.7052 20.839 16.6633V10.8023H13.0244V12.756ZM18.8853 4.29013H15.6293V2.33647C15.6293 1.29452 14.7175 0.382812 13.6756 0.382812H7.16341C6.12146 0.382812 5.20975 1.29452 5.20975 2.33647V4.29013H1.95366C0.911707 4.29013 0 5.20183 0 6.24378V9.49988H20.839V6.24378C20.839 5.20183 19.9273 4.29013 18.8853 4.29013ZM13.0244 4.29013H7.81463V2.98769H13.0244V4.29013Z" fill="white"/>
</svg>
