<svg width="16" height="16" viewBox="0 0 16 16" fill="none" xmlns="http://www.w3.org/2000/svg">
<g clip-path="url(#clip0_220_14726)">
<path d="M9.43227 5.05981L7.99976 6.73109L6.56724 5.05981L5.896 5.63517L7.16496 7.11563H6.23162V7.9997H7.55772V8.88377H6.23162V9.76784H7.55772V11.0939H8.44179V9.76784H9.76789V8.88377H8.44179V7.9997H9.76789V7.11563H8.83452L10.1035 5.63517L9.43227 5.05981Z" fill="black"/>
<path d="M7.99987 2.25342C4.83127 2.25342 2.25342 4.83127 2.25342 7.99987C2.56906 15.6233 13.4318 15.6211 13.7463 7.99984C13.7463 4.83127 11.1685 2.25342 7.99987 2.25342ZM7.99987 12.8622C5.31875 12.8622 3.13749 10.681 3.13749 7.99987C3.40456 1.54926 12.5961 1.55114 12.8622 7.9999C12.8622 10.681 10.681 12.8622 7.99987 12.8622Z" fill="black"/>
<path d="M13.3136 2.68641C10.5165 -0.228863 5.48349 -0.228745 2.68641 2.68641C-0.228864 5.48355 -0.228745 10.5165 2.68641 13.3136C5.48355 16.2289 10.5165 16.2288 13.3136 13.3136C16.2289 10.5164 16.2287 5.48346 13.3136 2.68641ZM7.99999 14.6305C4.34393 14.6305 1.36947 11.6561 1.36947 7.99999C1.73368 -0.796288 14.2676 -0.793724 14.6305 8.00005C14.6305 11.6561 11.6561 14.6305 7.99999 14.6305Z" fill="black"/>
</g>
<defs>
<clipPath id="clip0_220_14726">
<rect width="15" height="15" fill="white" transform="translate(0.5 0.5)"/>
</clipPath>
</defs>
</svg>
