<svg width="296" height="70" viewBox="0 0 296 70" fill="none" xmlns="http://www.w3.org/2000/svg">
<g clip-path="url(#clip0_283_14287)">
<path d="M0 38.5274L0 30.4724L6.57 34.5024L0 38.5274Z" fill="white"/>
<path d="M13.3555 38.5274L13.3555 30.4724L19.9305 34.5024L13.3555 38.5274Z" fill="white"/>
<path d="M26.7148 38.5274V30.4724L33.2848 34.5024L26.7148 38.5274Z" fill="white"/>
<path d="M40.0703 38.5274V30.4724L46.6453 34.5024L40.0703 38.5274Z" fill="white"/>
<path d="M53.4297 38.5274V30.4724L59.9997 34.5024L53.4297 38.5274Z" fill="white"/>
</g>
<path d="M114.432 15.532C107.616 13.068 103.328 8.332 101.344 1.068H106.56C108.512 5.516 110.624 7.788 114.432 9.516V15.532ZM85.408 15.916V9.804C88.96 7.948 91.168 5.164 92.256 1.164H97.792C95.552 8.46 91.968 12.716 85.408 15.916ZM86.016 29.42V24.588L89.856 24.3C91.872 19.468 93.248 15.18 94.304 10.476H100.352C99.072 15.308 97.984 18.284 95.552 23.756C100.096 23.18 102.144 22.764 105.216 21.868C103.904 18.764 103.84 18.636 103.168 17.228H109.024C110.784 20.78 112.032 23.756 114.112 29.388H108.32C107.776 27.82 107.68 27.564 106.976 25.9C100.64 28.268 95.072 29.196 86.016 29.42ZM118.08 30.092V1.388H131.456V12.972H122.784V30.092H118.08ZM138.752 30.06V25.388H141.056V12.972H132.768V1.388H145.856V25.612C145.856 28.908 144.768 30.06 141.568 30.06H138.752ZM122.784 5.868H126.816V4.812H122.784V5.868ZM137.152 5.868H141.056V4.812H137.152V5.868ZM122.784 9.804H126.816V8.62H122.784V9.804ZM137.152 9.804H141.056V8.62H137.152V9.804ZM123.168 28.716C125.376 26.828 126.048 25.58 126.272 22.7H123.648V18.924H126.272V17.58H124.672V13.996H139.2V17.58H137.792V18.924H140.064V22.7H137.792V28.716H133.344V22.7H130.816C130.528 25.292 130.112 26.54 128.864 28.716H123.168ZM130.848 18.924H133.344V17.58H130.848V18.924ZM161.024 29.804V22.06H149.888V5.228H161.024V0.587999H166.944V5.228H178.016V17.836C178.016 20.14 177.568 21.868 174.304 22.06H166.944V29.804H161.024ZM155.584 16.94H161.024V10.316H155.584V16.94ZM166.944 16.94H172.256V10.316H166.944V16.94ZM196.768 29.26V24.108C199.84 24.012 201.248 23.532 202.4 22.092C203.552 20.716 204.256 18.06 204.256 15.18C204.256 12.684 203.712 10.572 202.72 9.1C202.048 8.108 201.248 7.66 199.52 7.404C198.272 15.372 197.856 17.548 196.832 21.004C195.968 23.916 195.136 25.548 193.952 26.604C192.896 27.564 191.552 28.14 190.304 28.14C188.224 28.14 185.824 26.828 184.352 24.94C182.848 22.956 181.92 19.692 181.92 16.268C181.92 13.132 182.656 10.156 184.064 7.884C186.496 3.852 190.656 1.868 196.608 1.868C205.344 1.868 209.792 6.38 209.792 15.244C209.792 20.3 208.16 24.556 205.376 26.828C203.296 28.524 200.768 29.26 197.056 29.26H196.768ZM189.824 21.804C190.592 21.804 191.2 21.196 191.584 20.044C192.256 17.932 193.408 12.076 194.08 7.116C191.84 7.468 190.752 7.948 189.632 9.164C188.16 10.764 187.296 13.452 187.296 16.396C187.296 19.596 188.32 21.804 189.824 21.804ZM102.816 64.868C102.816 67.428 101.536 68.708 98.976 68.708H93.28V64.004H97.184V59.492C95.2 61.764 89.696 65.476 85.28 67.332V61.412C87.776 60.452 90.88 58.724 93.888 56.516C91.008 55.588 88.192 54.884 86.176 54.436V49.604C90.112 50.34 92.736 50.98 94.592 51.588V55.972C95.488 55.268 96.352 54.564 97.184 53.796V48.132H86.176V43.428H97.184V39.652H102.816V43.428H106.88L105.248 40.132H110.976L112.32 43.428H113.888V48.132H102.816V50.116H104.992C105.152 51.332 105.216 51.716 105.568 52.9C108.448 52.004 111.008 51.076 113.888 49.86V55.012C112.128 55.556 109.152 56.452 107.296 56.996C109.408 59.332 110.88 60.292 114.72 61.732V67.428C111.488 66.5 109.504 65.54 107.296 63.876C105.216 62.308 104.096 60.964 102.816 58.5V64.868ZM146.56 68.42C143.616 67.588 141.28 66.244 138.464 63.78C135.168 60.772 133.792 58.66 132.096 53.924C129.856 61.124 124.704 66.18 117.344 68.388V62.084C121.472 60.772 124.448 57.988 126.784 53.348C128.192 50.436 128.896 46.628 128.896 41.764V39.844H134.56V41.796C134.592 46.788 135.584 50.916 137.568 54.372C139.392 57.668 143.68 61.38 146.56 62.212V68.42ZM153.472 69.028V39.556H158.304V46.212L160.448 48.196V48.868H167.168V48.068H161.376V45.22H167.168V44.228H160.96V41.092H167.168V39.684H172.064V41.092H178.464V44.228H172.064V45.22H177.6V48.068H172.064V48.868H178.88V52.164H160.448V54.468L158.304 51.844V69.028H153.472ZM148.672 55.94C149.28 53.988 149.44 52.676 149.472 49.06V45.956H152.864V48.324C152.864 52.132 152.672 54.084 152.224 55.94H148.672ZM170.816 68.9V64.676H172.544V63.428H166.272V68.708H161.44V52.836H177.6V64.452C177.696 67.652 176.64 68.772 173.44 68.9H170.816ZM166.272 56.9H172.544V55.844H166.272V56.9ZM166.272 60.74H172.544V59.492H166.272V60.74ZM181.088 47.556H186.72V45.828H182.112V41.892H186.72V39.62H191.52V41.892H195.648V45.828H191.52V47.556H196.192V51.652H194.912L194.496 54.148H195.936V58.436H191.52V59.908H195.648V64.068H191.52V69.06H186.72V64.068H182.112V59.908H186.72V58.436H181.376V54.148H183.84L183.104 51.652H181.088V47.556ZM196.896 40.292H210.048V46.884C210.048 49.54 209.056 50.34 205.824 50.34H203.008V46.468H205.248V44.516H201.664V51.684H210.4C210.368 57.156 209.792 59.524 208.736 61.988C209.312 62.596 210.144 63.204 210.72 63.428V68.932C208.864 68.164 208.064 67.652 206.304 66.052C205.216 67.428 203.616 68.42 202.24 68.9V63.62C202.688 63.3 203.232 62.788 203.488 62.436C202.88 61.508 202.144 59.876 201.664 58.084V69.06H196.896V40.292ZM188.256 54.148H189.984L190.4 51.652H187.84L188.256 54.148ZM206.336 55.556H204.576C204.864 56.516 205.248 57.636 205.76 58.788C206.048 57.636 206.272 56.516 206.336 55.556Z" fill="white"/>
<g clip-path="url(#clip1_283_14287)">
<path d="M236 38.5274V30.4724L242.57 34.5024L236 38.5274Z" fill="white"/>
<path d="M249.355 38.5274V30.4724L255.93 34.5024L249.355 38.5274Z" fill="white"/>
<path d="M262.715 38.5274V30.4724L269.285 34.5024L262.715 38.5274Z" fill="white"/>
<path d="M276.07 38.5274V30.4724L282.645 34.5024L276.07 38.5274Z" fill="white"/>
<path d="M289.43 38.5274V30.4724L296 34.5024L289.43 38.5274Z" fill="white"/>
</g>
<defs>
<clipPath id="clip0_283_14287">
<rect width="60" height="8.055" fill="white" transform="translate(0 30.4724)"/>
</clipPath>
<clipPath id="clip1_283_14287">
<rect width="60" height="8.055" fill="white" transform="translate(236 30.4724)"/>
</clipPath>
</defs>
</svg>
