<svg width="864" height="60" viewBox="0 0 864 60" fill="none" xmlns="http://www.w3.org/2000/svg">
<g clip-path="url(#clip0_220_14413)">
<path d="M16 38.0551L16 21.9451L29.14 30.0051L16 38.0551Z" fill="white"/>
<path d="M42.71 38.0551V21.9451L55.86 30.0051L42.71 38.0551Z" fill="white"/>
<path d="M69.4299 38.0551V21.9451L82.5699 30.0051L69.4299 38.0551Z" fill="white"/>
<path d="M96.1399 38.0551V21.9451L109.29 30.0051L96.1399 38.0551Z" fill="white"/>
<path d="M122.86 38.0551V21.9451L136 30.0051L122.86 38.0551Z" fill="white"/>
</g>
<path d="M236.864 30.064C223.232 25.136 214.656 15.664 210.688 1.136H221.12C225.024 10.032 229.248 14.576 236.864 18.032V30.064ZM178.816 30.832V18.608C185.92 14.896 190.336 9.328 192.512 1.328H203.584C199.104 15.92 191.936 24.432 178.816 30.832ZM180.032 57.84V48.176L187.712 47.6C191.744 37.936 194.496 29.36 196.608 19.952H208.704C206.144 29.616 203.968 35.568 199.104 46.512C208.192 45.36 212.288 44.528 218.432 42.736C215.808 36.528 215.68 36.272 214.336 33.456H226.048C229.568 40.56 232.064 46.512 236.224 57.776H224.64C223.552 54.64 223.36 54.128 221.952 50.8C209.28 55.536 198.144 57.392 180.032 57.84ZM244.16 59.184V1.776H270.912V24.944H253.568V59.184H244.16ZM285.504 59.12V49.776H290.112V24.944H273.536V1.776H299.712V50.224C299.712 56.816 297.536 59.12 291.136 59.12H285.504ZM253.568 10.736H261.632V8.624H253.568V10.736ZM282.304 10.736H290.112V8.624H282.304V10.736ZM253.568 18.608H261.632V16.24H253.568V18.608ZM282.304 18.608H290.112V16.24H282.304V18.608ZM254.336 56.432C258.752 52.656 260.096 50.16 260.544 44.4H255.296V36.848H260.544V34.16H257.344V26.992H286.4V34.16H283.584V36.848H288.128V44.4H283.584V56.432H274.688V44.4H269.632C269.056 49.584 268.224 52.08 265.728 56.432H254.336ZM269.696 36.848H274.688V34.16H269.696V36.848ZM330.048 58.608V43.12H307.776V9.456H330.048V0.175999H341.888V9.456H364.032V34.672C364.032 39.28 363.136 42.736 356.608 43.12H341.888V58.608H330.048ZM319.168 32.88H330.048V19.632H319.168V32.88ZM341.888 32.88H352.512V19.632H341.888V32.88ZM401.536 57.52V47.216C407.68 47.024 410.496 46.064 412.8 43.184C415.104 40.432 416.512 35.12 416.512 29.36C416.512 24.368 415.424 20.144 413.44 17.2C412.096 15.216 410.496 14.32 407.04 13.808C404.544 29.744 403.712 34.096 401.664 41.008C399.936 46.832 398.272 50.096 395.904 52.208C393.792 54.128 391.104 55.28 388.608 55.28C384.448 55.28 379.648 52.656 376.704 48.88C373.696 44.912 371.84 38.384 371.84 31.536C371.84 25.264 373.312 19.312 376.128 14.768C380.992 6.704 389.312 2.736 401.216 2.736C418.688 2.736 427.584 11.76 427.584 29.488C427.584 39.6 424.32 48.112 418.752 52.656C414.592 56.048 409.536 57.52 402.112 57.52H401.536ZM387.648 42.608C389.184 42.608 390.4 41.392 391.168 39.088C392.512 34.864 394.816 23.152 396.16 13.232C391.68 13.936 389.504 14.896 387.264 17.328C384.32 20.528 382.592 25.904 382.592 31.792C382.592 38.192 384.64 42.608 387.648 42.608ZM469.632 50.736C469.632 55.856 467.072 58.416 461.952 58.416H450.56V49.008H458.368V39.984C454.4 44.528 443.392 51.952 434.56 55.664V43.824C439.552 41.904 445.76 38.448 451.776 34.032C446.016 32.176 440.384 30.768 436.352 29.872V20.208C444.224 21.68 449.472 22.96 453.184 24.176V32.944C454.976 31.536 456.704 30.128 458.368 28.592V17.264H436.352V7.856H458.368V0.303997H469.632V7.856H477.76L474.496 1.264H485.952L488.64 7.856H491.776V17.264H469.632V21.232H473.984C474.304 23.664 474.432 24.432 475.136 26.8C480.896 25.008 486.016 23.152 491.776 20.72V31.024C488.256 32.112 482.304 33.904 478.592 34.992C482.816 39.664 485.76 41.584 493.44 44.464V55.856C486.976 54 483.008 52.08 478.592 48.752C474.432 45.616 472.192 42.928 469.632 38V50.736ZM557.12 57.84C551.232 56.176 546.56 53.488 540.928 48.56C534.336 42.544 531.584 38.32 528.192 28.848C523.712 43.248 513.408 53.36 498.688 57.776V45.168C506.944 42.544 512.896 36.976 517.568 27.696C520.384 21.872 521.792 14.256 521.792 4.528V0.687996H533.12V4.592C533.184 14.576 535.168 22.832 539.136 29.744C542.784 36.336 551.36 43.76 557.12 45.424V57.84ZM570.944 59.056V0.111996H580.608V13.424L584.896 17.392V18.736H598.336V17.136H586.752V11.44H598.336V9.456H585.92V3.184H598.336V0.367996H608.128V3.184H620.928V9.456H608.128V11.44H619.2V17.136H608.128V18.736H621.76V25.328H584.896V29.936L580.608 24.688V59.056H570.944ZM561.344 32.88C562.56 28.976 562.88 26.352 562.944 19.12V12.912H569.728V17.648C569.728 25.264 569.344 29.168 568.448 32.88H561.344ZM605.632 58.8V50.352H609.088V47.856H596.544V58.416H586.88V26.672H619.2V49.904C619.392 56.304 617.28 58.544 610.88 58.8H605.632ZM596.544 34.8H609.088V32.688H596.544V34.8ZM596.544 42.48H609.088V39.984H596.544V42.48ZM626.176 16.112H637.44V12.656H628.224V4.784H637.44V0.239998H647.04V4.784H655.296V12.656H647.04V16.112H656.384V24.304H653.824L652.992 29.296H655.872V37.872H647.04V40.816H655.296V49.136H647.04V59.12H637.44V49.136H628.224V40.816H637.44V37.872H626.752V29.296H631.68L630.208 24.304H626.176V16.112ZM657.792 1.584H684.096V14.768C684.096 20.08 682.112 21.68 675.648 21.68H670.016V13.936H674.496V10.032H667.328V24.368H684.8C684.736 35.312 683.584 40.048 681.472 44.976C682.624 46.192 684.288 47.408 685.44 47.856V58.864C681.728 57.328 680.128 56.304 676.608 53.104C674.432 55.856 671.232 57.84 668.48 58.8V48.24C669.376 47.6 670.464 46.576 670.976 45.872C669.76 44.016 668.288 40.752 667.328 37.168V59.12H657.792V1.584ZM640.512 29.296H643.968L644.8 24.304H639.68L640.512 29.296ZM676.672 32.112H673.152C673.728 34.032 674.496 36.272 675.52 38.576C676.096 36.272 676.544 34.032 676.672 32.112Z" fill="white"/>
<g clip-path="url(#clip1_220_14413)">
<path d="M728 38.0551V21.9451L741.14 30.0051L728 38.0551Z" fill="white"/>
<path d="M754.71 38.0551V21.9451L767.86 30.0051L754.71 38.0551Z" fill="white"/>
<path d="M781.43 38.0551V21.9451L794.57 30.0051L781.43 38.0551Z" fill="white"/>
<path d="M808.14 38.0551V21.9451L821.29 30.0051L808.14 38.0551Z" fill="white"/>
<path d="M834.86 38.0551V21.9451L848 30.0051L834.86 38.0551Z" fill="white"/>
</g>
<defs>
<clipPath id="clip0_220_14413">
<rect width="120" height="16.11" fill="white" transform="translate(16 21.9451)"/>
</clipPath>
<clipPath id="clip1_220_14413">
<rect width="120" height="16.11" fill="white" transform="translate(728 21.9451)"/>
</clipPath>
</defs>
</svg>
