<svg width="736" height="40" viewBox="0 0 736 40" fill="none" xmlns="http://www.w3.org/2000/svg">
<g clip-path="url(#clip0_145_622)">
<path d="M0 28.0549L0 11.9449L13.14 20.0049L0 28.0549Z" fill="#C71B21"/>
<path d="M26.71 28.0549L26.71 11.9449L39.86 20.0049L26.71 28.0549Z" fill="#C71B21"/>
<path d="M53.4297 28.0549V11.9449L66.5697 20.0049L53.4297 28.0549Z" fill="#C71B21"/>
<path d="M80.1396 28.0549V11.9449L93.2896 20.0049L80.1396 28.0549Z" fill="#C71B21"/>
<path d="M106.86 28.0549V11.9449L120 20.0049L106.86 28.0549Z" fill="#C71B21"/>
</g>
<path d="M165.632 12.448V7.008L187.424 6.784V12.256L165.632 12.448ZM178.4 33.536C176.128 33.536 172.544 33.44 171.424 33.344C168.192 33.024 166.176 32.128 164.576 30.304C163.52 29.056 162.976 27.68 162.976 26.24C162.976 24.736 163.296 23.712 164.992 20H171.2C171.008 20.32 170.816 20.64 170.624 20.992C169.376 23.008 169.024 23.904 169.024 25.056C169.024 26.4 169.76 27.136 171.456 27.456C172.448 27.68 174.752 27.808 176.864 27.808C179.552 27.808 184.032 27.584 188.48 27.232V33.44L178.4 33.536ZM208.768 33.76V28.608C211.84 28.512 213.248 28.032 214.4 26.592C215.552 25.216 216.256 22.56 216.256 19.68C216.256 17.184 215.712 15.072 214.72 13.6C214.048 12.608 213.248 12.16 211.52 11.904C210.272 19.872 209.856 22.048 208.832 25.504C207.968 28.416 207.136 30.048 205.952 31.104C204.896 32.064 203.552 32.64 202.304 32.64C200.224 32.64 197.824 31.328 196.352 29.44C194.848 27.456 193.92 24.192 193.92 20.768C193.92 17.632 194.656 14.656 196.064 12.384C198.496 8.352 202.656 6.368 208.608 6.368C217.344 6.368 221.792 10.88 221.792 19.744C221.792 24.8 220.16 29.056 217.376 31.328C215.296 33.024 212.768 33.76 209.056 33.76H208.768ZM201.824 26.304C202.592 26.304 203.2 25.696 203.584 24.544C204.256 22.432 205.408 16.576 206.08 11.616C203.84 11.968 202.752 12.448 201.632 13.664C200.16 15.264 199.296 17.952 199.296 20.896C199.296 24.096 200.32 26.304 201.824 26.304ZM242.816 30.368C242.816 32.928 241.536 34.208 238.976 34.208H233.28V29.504H237.184V24.992C235.2 27.264 229.696 30.976 225.28 32.832V26.912C227.776 25.952 230.88 24.224 233.888 22.016C231.008 21.088 228.192 20.384 226.176 19.936V15.104C230.112 15.84 232.736 16.48 234.592 17.088V21.472C235.488 20.768 236.352 20.064 237.184 19.296V13.632H226.176V8.928H237.184V5.152H242.816V8.928H246.88L245.248 5.632H250.976L252.32 8.928H253.888V13.632H242.816V15.616H244.992C245.152 16.832 245.216 17.216 245.568 18.4C248.448 17.504 251.008 16.576 253.888 15.36V20.512C252.128 21.056 249.152 21.952 247.296 22.496C249.408 24.832 250.88 25.792 254.72 27.232V32.928C251.488 32 249.504 31.04 247.296 29.376C245.216 27.808 244.096 26.464 242.816 24V30.368ZM286.56 33.92C283.616 33.088 281.28 31.744 278.464 29.28C275.168 26.272 273.792 24.16 272.096 19.424C269.856 26.624 264.704 31.68 257.344 33.888V27.584C261.472 26.272 264.448 23.488 266.784 18.848C268.192 15.936 268.896 12.128 268.896 7.264V5.344H274.56V7.296C274.592 12.288 275.584 16.416 277.568 19.872C279.392 23.168 283.68 26.88 286.56 27.712V33.92ZM304.768 33.76V28.608C307.84 28.512 309.248 28.032 310.4 26.592C311.552 25.216 312.256 22.56 312.256 19.68C312.256 17.184 311.712 15.072 310.72 13.6C310.048 12.608 309.248 12.16 307.52 11.904C306.272 19.872 305.856 22.048 304.832 25.504C303.968 28.416 303.136 30.048 301.952 31.104C300.896 32.064 299.552 32.64 298.304 32.64C296.224 32.64 293.824 31.328 292.352 29.44C290.848 27.456 289.92 24.192 289.92 20.768C289.92 17.632 290.656 14.656 292.064 12.384C294.496 8.352 298.656 6.368 304.608 6.368C313.344 6.368 317.792 10.88 317.792 19.744C317.792 24.8 316.16 29.056 313.376 31.328C311.296 33.024 308.768 33.76 305.056 33.76H304.768ZM297.824 26.304C298.592 26.304 299.2 25.696 299.584 24.544C300.256 22.432 301.408 16.576 302.08 11.616C299.84 11.968 298.752 12.448 297.632 13.664C296.16 15.264 295.296 17.952 295.296 20.896C295.296 24.096 296.32 26.304 297.824 26.304ZM338.528 34.144C338.24 34.144 337.952 34.144 337.504 34.112V28.8C340.256 28.736 341.248 28.512 342.176 27.744C343.072 26.944 343.616 25.76 343.616 24.48C343.616 23.744 343.392 23.008 343.072 22.56C341.984 21.152 339.616 20.16 337.376 20.16C337.056 20.16 336.384 20.224 335.648 20.32V27.872C335.648 30.08 335.424 31.392 334.912 32.352C334.336 33.44 332.928 34.016 330.944 34.016C325.344 34.016 321.76 30.752 321.76 25.664C321.76 22.816 323.072 20.256 325.6 18.208C326.784 17.248 327.744 16.768 330.592 15.744L330.528 13.632H323.424V8.512H330.464V5.536H335.936V8.512H341.44V13.6H335.936V15.264C336.736 15.232 337.408 15.2 337.76 15.2C345.088 15.2 349.696 18.848 349.696 24.576C349.696 27.488 348.576 29.92 346.56 31.52C344.448 33.152 341.44 34.144 338.528 34.144ZM344.192 13.76C343.328 10.816 343.168 10.368 341.888 7.296H347.168C348.672 10.464 348.96 11.264 349.568 13.76H344.192ZM329.472 28.384C330.176 28.384 330.368 27.968 330.368 26.464V21.344C329.248 21.728 328.736 22.016 328.256 22.592C327.584 23.392 327.136 24.576 327.136 25.568C327.136 27.072 328.224 28.384 329.472 28.384ZM358.56 34.144V28.992H363.712C367.456 28.992 368.192 28.48 368.448 25.728C366.752 26.528 365.824 26.752 364.352 26.752C360.8 26.752 358.144 24.32 358.144 21.056C358.144 19.392 358.848 17.92 360.288 16.672C361.664 15.488 363.072 15.008 365.28 15.008C366.24 15.008 366.88 15.104 368.192 15.392V13.696L354.144 13.856V8.928L368.192 8.832V5.504H373.888V8.736L381.344 8.64V13.632L373.888 13.696V25.824C373.92 28.384 373.408 29.984 371.968 31.648C370.112 33.568 368.416 34.144 364.512 34.144H358.56ZM365.632 22.368C367.072 22.368 368.032 21.696 368.032 20.704C368.032 19.872 367.104 19.296 365.792 19.296C364.544 19.296 363.424 20.064 363.424 20.896C363.424 21.76 364.32 22.368 365.632 22.368ZM390.56 34.144V28.992H395.712C399.456 28.992 400.192 28.48 400.448 25.728C398.752 26.528 397.824 26.752 396.352 26.752C392.8 26.752 390.144 24.32 390.144 21.056C390.144 19.392 390.848 17.92 392.288 16.672C393.664 15.488 395.072 15.008 397.28 15.008C398.24 15.008 398.88 15.104 400.192 15.392V13.696L386.144 13.856V8.928L400.192 8.832V5.504H405.888V8.736L413.344 8.64V13.632L405.888 13.696V25.824C405.92 28.384 405.408 29.984 403.968 31.648C402.112 33.568 400.416 34.144 396.512 34.144H390.56ZM397.632 22.368C399.072 22.368 400.032 21.696 400.032 20.704C400.032 19.872 399.104 19.296 397.792 19.296C396.544 19.296 395.424 20.064 395.424 20.896C395.424 21.76 396.32 22.368 397.632 22.368ZM433.728 34.464C433.568 34.464 433.312 34.464 432.992 34.432V29.632C436.032 29.248 437.408 28.832 438.528 28.096C439.84 27.168 440.64 25.056 440.64 22.464C440.64 20.896 440.32 19.296 439.712 18.08C439.36 17.312 439.04 16.928 438.144 16.16C436.64 21.248 435.328 24.736 434.048 27.136C431.712 31.488 429.024 33.472 425.536 33.472C422.72 33.472 420.608 32.096 419.168 29.344C418.144 27.392 417.568 25.056 417.568 22.912C417.568 20.8 418.08 18.592 419.008 16.768C419.936 15.008 420.8 14.016 422.848 12.512C422.272 9.984 422.016 8.672 421.664 6.176L427.072 5.92C427.264 7.52 427.36 8.288 427.744 10.272C430.784 9.728 431.04 9.696 433.92 9.632L434.56 6.176H440.288L439.328 10.88C441.568 12.032 442.592 12.768 443.648 14.112C445.248 16.128 446.144 19.136 446.144 22.528C446.144 27.392 444.224 30.848 440.416 32.928C438.528 33.952 436.288 34.464 433.728 34.464ZM431.136 20.928C432.064 18.56 432.608 16.608 432.928 14.624C430.784 14.624 430.208 14.688 428.928 15.168C429.92 18.656 430.24 19.488 431.136 20.928ZM425.952 27.68C426.752 27.68 427.232 27.36 427.904 26.368C425.984 22.528 425.376 21.12 424.352 18.304C423.52 19.2 423.328 19.488 423.072 20.448C422.88 21.216 422.784 21.952 422.784 22.656C422.784 23.904 423.168 25.44 423.712 26.368C424.16 27.168 425.056 27.68 425.952 27.68ZM472.608 12.48C470.528 12.48 468.832 10.784 468.832 8.672C468.832 6.592 470.528 4.928 472.672 4.928C474.688 4.928 476.384 6.656 476.384 8.704C476.384 10.784 474.688 12.48 472.608 12.48ZM460.928 33.888V16.288H450.496V11.264H460.928V6.272H466.56V11.264H468.896C469.664 12.608 470.944 13.28 472.576 13.28C474.176 13.28 475.424 12.608 476.352 11.264H477.504V16.288H466.56V33.888H460.928ZM472.608 10.176C473.408 10.176 474.08 9.504 474.08 8.672C474.08 7.872 473.408 7.2 472.576 7.2C471.808 7.2 471.136 7.872 471.136 8.704C471.136 9.504 471.808 10.176 472.608 10.176ZM449.44 33.376V27.872C451.392 27.552 452.288 26.048 452.352 22.912V18.784H457.568V22.656C457.568 25.888 457.024 28.192 455.936 29.76C454.336 32.032 452.16 33.248 449.44 33.376ZM478.208 33.376C472.352 32.768 469.696 29.664 469.664 23.456V18.784H474.816V23.04C474.816 25.696 475.808 27.136 478.208 27.808V33.376ZM493.856 33.92V19.488L482.368 25.216V18.912L500.032 10.624C502.368 9.504 502.848 8.832 502.848 6.72V5.856H508.704V7.424C508.704 10.464 507.392 12.64 504.672 14.016L499.776 16.48V33.92H493.856ZM529.824 16.48C524.864 14.784 519.328 13.088 515.168 12V6.336C520.864 7.808 526.976 9.632 529.824 10.72V16.48ZM514.912 33.312V27.776H523.872C527.68 27.744 530.784 27.232 532.288 26.368C534.624 25.216 536.064 22.72 536.096 19.776V8.992H541.792V18.624C541.76 24.224 540.288 27.744 536.928 30.24C534.112 32.416 530.56 33.248 523.776 33.312H514.912ZM550.144 34.016V5.664H556V14.208C563.456 16 566.176 16.768 570.88 18.4V24.32C566.592 22.752 562.56 21.568 556 19.968V34.016H550.144Z" fill="#C71B21"/>
<g clip-path="url(#clip1_145_622)">
<path d="M616 28.0549V11.9449L629.14 20.0049L616 28.0549Z" fill="#C71B21"/>
<path d="M642.71 28.0549V11.9449L655.86 20.0049L642.71 28.0549Z" fill="#C71B21"/>
<path d="M669.43 28.0549V11.9449L682.57 20.0049L669.43 28.0549Z" fill="#C71B21"/>
<path d="M696.14 28.0549V11.9449L709.29 20.0049L696.14 28.0549Z" fill="#C71B21"/>
<path d="M722.86 28.0549V11.9449L736 20.0049L722.86 28.0549Z" fill="#C71B21"/>
</g>
<defs>
<clipPath id="clip0_145_622">
<rect width="120" height="16.11" fill="white" transform="translate(0 11.9449)"/>
</clipPath>
<clipPath id="clip1_145_622">
<rect width="120" height="16.11" fill="white" transform="translate(616 11.9449)"/>
</clipPath>
</defs>
</svg>
