<svg width="345" height="55" viewBox="0 0 345 55" fill="none" xmlns="http://www.w3.org/2000/svg">
<g clip-path="url(#clip0_283_25241)">
<path d="M0.5 31.5L0.5 23.5L7.07 27.5025L0.5 31.5Z" fill="#C71B21"/>
<path d="M13.8555 31.5L13.8555 23.5L20.4305 27.5025L13.8555 31.5Z" fill="#C71B21"/>
<path d="M27.2148 31.5V23.5L33.7848 27.5025L27.2148 31.5Z" fill="#C71B21"/>
<path d="M40.5703 31.5V23.5L47.1453 27.5025L40.5703 31.5Z" fill="#C71B21"/>
<path d="M53.9297 31.5V23.5L60.4997 27.5025L53.9297 31.5Z" fill="#C71B21"/>
</g>
<path d="M116.724 5.836V1.756L133.068 1.588V5.692L116.724 5.836ZM126.3 21.652C124.596 21.652 121.908 21.58 121.068 21.508C118.644 21.268 117.132 20.596 115.932 19.228C115.14 18.292 114.732 17.26 114.732 16.18C114.732 15.052 114.972 14.284 116.244 11.5H120.9C120.756 11.74 120.612 11.98 120.468 12.244C119.532 13.756 119.268 14.428 119.268 15.292C119.268 16.3 119.82 16.852 121.092 17.092C121.836 17.26 123.564 17.356 125.148 17.356C127.164 17.356 130.524 17.188 133.86 16.924V21.58L126.3 21.652ZM149.076 21.82V17.956C151.38 17.884 152.436 17.524 153.3 16.444C154.164 15.412 154.692 13.42 154.692 11.26C154.692 9.388 154.284 7.804 153.54 6.7C153.036 5.956 152.436 5.62 151.14 5.428C150.204 11.404 149.892 13.036 149.124 15.628C148.476 17.812 147.852 19.036 146.964 19.828C146.172 20.548 145.164 20.98 144.228 20.98C142.668 20.98 140.868 19.996 139.764 18.58C138.636 17.092 137.94 14.644 137.94 12.076C137.94 9.724 138.492 7.492 139.548 5.788C141.372 2.764 144.492 1.276 148.956 1.276C155.508 1.276 158.844 4.66 158.844 11.308C158.844 15.1 157.62 18.292 155.532 19.996C153.972 21.268 152.076 21.82 149.292 21.82H149.076ZM143.868 16.228C144.444 16.228 144.9 15.772 145.188 14.908C145.692 13.324 146.556 8.932 147.06 5.212C145.38 5.476 144.564 5.836 143.724 6.748C142.62 7.948 141.972 9.964 141.972 12.172C141.972 14.572 142.74 16.228 143.868 16.228ZM174.612 19.276C174.612 21.196 173.652 22.156 171.732 22.156H167.46V18.628H170.388V15.244C168.9 16.948 164.772 19.732 161.46 21.124V16.684C163.332 15.964 165.66 14.668 167.916 13.012C165.756 12.316 163.644 11.788 162.132 11.452V7.828C165.084 8.38 167.052 8.86 168.444 9.316V12.604C169.116 12.076 169.764 11.548 170.388 10.972V6.724H162.132V3.196H170.388V0.363999H174.612V3.196H177.66L176.436 0.723999H180.732L181.74 3.196H182.916V6.724H174.612V8.212H176.244C176.364 9.124 176.412 9.412 176.676 10.3C178.836 9.628 180.756 8.932 182.916 8.02V11.884C181.596 12.292 179.364 12.964 177.972 13.372C179.556 15.124 180.66 15.844 183.54 16.924V21.196C181.116 20.5 179.628 19.78 177.972 18.532C176.412 17.356 175.572 16.348 174.612 14.5V19.276ZM207.42 21.94C205.212 21.316 203.46 20.308 201.348 18.46C198.876 16.204 197.844 14.62 196.572 11.068C194.892 16.468 191.028 20.26 185.508 21.916V17.188C188.604 16.204 190.836 14.116 192.588 10.636C193.644 8.452 194.172 5.596 194.172 1.948V0.507998H198.42V1.972C198.444 5.716 199.188 8.812 200.676 11.404C202.044 13.876 205.26 16.66 207.42 17.284V21.94ZM221.076 21.82V17.956C223.38 17.884 224.436 17.524 225.3 16.444C226.164 15.412 226.692 13.42 226.692 11.26C226.692 9.388 226.284 7.804 225.54 6.7C225.036 5.956 224.436 5.62 223.14 5.428C222.204 11.404 221.892 13.036 221.124 15.628C220.476 17.812 219.852 19.036 218.964 19.828C218.172 20.548 217.164 20.98 216.228 20.98C214.668 20.98 212.868 19.996 211.764 18.58C210.636 17.092 209.94 14.644 209.94 12.076C209.94 9.724 210.492 7.492 211.548 5.788C213.372 2.764 216.492 1.276 220.956 1.276C227.508 1.276 230.844 4.66 230.844 11.308C230.844 15.1 229.62 18.292 227.532 19.996C225.972 21.268 224.076 21.82 221.292 21.82H221.076ZM215.868 16.228C216.444 16.228 216.9 15.772 217.188 14.908C217.692 13.324 218.556 8.932 219.06 5.212C217.38 5.476 216.564 5.836 215.724 6.748C214.62 7.948 213.972 9.964 213.972 12.172C213.972 14.572 214.74 16.228 215.868 16.228ZM90.396 54.108C90.18 54.108 89.964 54.108 89.628 54.084V50.1C91.692 50.052 92.436 49.884 93.132 49.308C93.804 48.708 94.212 47.82 94.212 46.86C94.212 46.308 94.044 45.756 93.804 45.42C92.988 44.364 91.212 43.62 89.532 43.62C89.292 43.62 88.788 43.668 88.236 43.74V49.404C88.236 51.06 88.068 52.044 87.684 52.764C87.252 53.58 86.196 54.012 84.708 54.012C80.508 54.012 77.82 51.564 77.82 47.748C77.82 45.612 78.804 43.692 80.7 42.156C81.588 41.436 82.308 41.076 84.444 40.308L84.396 38.724H79.068V34.884H84.348V32.652H88.452V34.884H92.58V38.7H88.452V39.948C89.052 39.924 89.556 39.9 89.82 39.9C95.316 39.9 98.772 42.636 98.772 46.932C98.772 49.116 97.932 50.94 96.42 52.14C94.836 53.364 92.58 54.108 90.396 54.108ZM94.644 38.82C93.996 36.612 93.876 36.276 92.916 33.972H96.876C98.004 36.348 98.22 36.948 98.676 38.82H94.644ZM83.604 49.788C84.132 49.788 84.276 49.476 84.276 48.348V44.508C83.436 44.796 83.052 45.012 82.692 45.444C82.188 46.044 81.852 46.932 81.852 47.676C81.852 48.804 82.668 49.788 83.604 49.788ZM105.42 54.108V50.244H109.284C112.092 50.244 112.644 49.86 112.836 47.796C111.564 48.396 110.868 48.564 109.764 48.564C107.1 48.564 105.108 46.74 105.108 44.292C105.108 43.044 105.636 41.94 106.716 41.004C107.748 40.116 108.804 39.756 110.46 39.756C111.18 39.756 111.66 39.828 112.644 40.044V38.772L102.108 38.892V35.196L112.644 35.124V32.628H116.916V35.052L122.508 34.98V38.724L116.916 38.772V47.868C116.94 49.788 116.556 50.988 115.476 52.236C114.084 53.676 112.812 54.108 109.884 54.108H105.42ZM110.724 45.276C111.804 45.276 112.524 44.772 112.524 44.028C112.524 43.404 111.828 42.972 110.844 42.972C109.908 42.972 109.068 43.548 109.068 44.172C109.068 44.82 109.74 45.276 110.724 45.276ZM129.42 54.108V50.244H133.284C136.092 50.244 136.644 49.86 136.836 47.796C135.564 48.396 134.868 48.564 133.764 48.564C131.1 48.564 129.108 46.74 129.108 44.292C129.108 43.044 129.636 41.94 130.716 41.004C131.748 40.116 132.804 39.756 134.46 39.756C135.18 39.756 135.66 39.828 136.644 40.044V38.772L126.108 38.892V35.196L136.644 35.124V32.628H140.916V35.052L146.508 34.98V38.724L140.916 38.772V47.868C140.94 49.788 140.556 50.988 139.476 52.236C138.084 53.676 136.812 54.108 133.884 54.108H129.42ZM134.724 45.276C135.804 45.276 136.524 44.772 136.524 44.028C136.524 43.404 135.828 42.972 134.844 42.972C133.908 42.972 133.068 43.548 133.068 44.172C133.068 44.82 133.74 45.276 134.724 45.276ZM161.796 54.348C161.676 54.348 161.484 54.348 161.244 54.324V50.724C163.524 50.436 164.556 50.124 165.396 49.572C166.38 48.876 166.98 47.292 166.98 45.348C166.98 44.172 166.74 42.972 166.284 42.06C166.02 41.484 165.78 41.196 165.108 40.62C163.98 44.436 162.996 47.052 162.036 48.852C160.284 52.116 158.268 53.604 155.652 53.604C153.54 53.604 151.956 52.572 150.876 50.508C150.108 49.044 149.676 47.292 149.676 45.684C149.676 44.1 150.06 42.444 150.756 41.076C151.452 39.756 152.1 39.012 153.636 37.884C153.204 35.988 153.012 35.004 152.748 33.132L156.804 32.94C156.948 34.14 157.02 34.716 157.308 36.204C159.588 35.796 159.78 35.772 161.94 35.724L162.42 33.132H166.716L165.996 36.66C167.676 37.524 168.444 38.076 169.236 39.084C170.436 40.596 171.108 42.852 171.108 45.396C171.108 49.044 169.668 51.636 166.812 53.196C165.396 53.964 163.716 54.348 161.796 54.348ZM159.852 44.196C160.548 42.42 160.956 40.956 161.196 39.468C159.588 39.468 159.156 39.516 158.196 39.876C158.94 42.492 159.18 43.116 159.852 44.196ZM155.964 49.26C156.564 49.26 156.924 49.02 157.428 48.276C155.988 45.396 155.532 44.34 154.764 42.228C154.14 42.9 153.996 43.116 153.804 43.836C153.66 44.412 153.588 44.964 153.588 45.492C153.588 46.428 153.876 47.58 154.284 48.276C154.62 48.876 155.292 49.26 155.964 49.26ZM190.956 37.86C189.396 37.86 188.124 36.588 188.124 35.004C188.124 33.444 189.396 32.196 191.004 32.196C192.516 32.196 193.788 33.492 193.788 35.028C193.788 36.588 192.516 37.86 190.956 37.86ZM182.196 53.916V40.716H174.372V36.948H182.196V33.204H186.42V36.948H188.172C188.748 37.956 189.708 38.46 190.932 38.46C192.132 38.46 193.068 37.956 193.764 36.948H194.628V40.716H186.42V53.916H182.196ZM190.956 36.132C191.556 36.132 192.06 35.628 192.06 35.004C192.06 34.404 191.556 33.9 190.932 33.9C190.356 33.9 189.852 34.404 189.852 35.028C189.852 35.628 190.356 36.132 190.956 36.132ZM173.58 53.532V49.404C175.044 49.164 175.716 48.036 175.764 45.684V42.588H179.676V45.492C179.676 47.916 179.268 49.644 178.452 50.82C177.252 52.524 175.62 53.436 173.58 53.532ZM195.156 53.532C190.764 53.076 188.772 50.748 188.748 46.092V42.588H192.612V45.78C192.612 47.772 193.356 48.852 195.156 49.356V53.532ZM206.892 53.94V43.116L198.276 47.412V42.684L211.524 36.468C213.276 35.628 213.636 35.124 213.636 33.54V32.892H218.028V34.068C218.028 36.348 217.044 37.98 215.004 39.012L211.332 40.86V53.94H206.892ZM233.868 40.86C230.148 39.588 225.996 38.316 222.876 37.5V33.252C227.148 34.356 231.732 35.724 233.868 36.54V40.86ZM222.684 53.484V49.332H229.404C232.26 49.308 234.588 48.924 235.716 48.276C237.468 47.412 238.548 45.54 238.572 43.332V35.244H242.844V42.468C242.82 46.668 241.716 49.308 239.196 51.18C237.084 52.812 234.42 53.436 229.332 53.484H222.684ZM249.108 54.012V32.748H253.5V39.156C259.092 40.5 261.132 41.076 264.66 42.3V46.74C261.444 45.564 258.42 44.676 253.5 43.476V54.012H249.108Z" fill="#C71B21"/>
<g clip-path="url(#clip1_283_25241)">
<path d="M284.5 31.5V23.5L291.07 27.5025L284.5 31.5Z" fill="#C71B21"/>
<path d="M297.855 31.5V23.5L304.43 27.5025L297.855 31.5Z" fill="#C71B21"/>
<path d="M311.215 31.5V23.5L317.785 27.5025L311.215 31.5Z" fill="#C71B21"/>
<path d="M324.57 31.5V23.5L331.145 27.5025L324.57 31.5Z" fill="#C71B21"/>
<path d="M337.93 31.5V23.5L344.5 27.5025L337.93 31.5Z" fill="#C71B21"/>
</g>
<defs>
<clipPath id="clip0_283_25241">
<rect width="60" height="8" fill="white" transform="translate(0.5 23.5)"/>
</clipPath>
<clipPath id="clip1_283_25241">
<rect width="60" height="8" fill="white" transform="translate(284.5 23.5)"/>
</clipPath>
</defs>
</svg>
