<svg width="848" height="60" viewBox="0 0 848 60" fill="none" xmlns="http://www.w3.org/2000/svg">
<g clip-path="url(#clip0_596_7141)">
<path d="M0 38.0551L0 21.9451L13.14 30.0051L0 38.0551Z" fill="white"/>
<path d="M26.71 38.0551L26.71 21.9451L39.86 30.0051L26.71 38.0551Z" fill="white"/>
<path d="M53.4297 38.0551V21.9451L66.5697 30.0051L53.4297 38.0551Z" fill="white"/>
<path d="M80.1396 38.0551V21.9451L93.2896 30.0051L80.1396 38.0551Z" fill="white"/>
<path d="M106.86 38.0551V21.9451L120 30.0051L106.86 38.0551Z" fill="white"/>
</g>
<path d="M179.584 58.544V50.032H169.856V41.84H179.584V39.024H171.264V14.32H179.584V12.016H169.856V4.592H179.584V0.111996H189.056V4.592H198.784V12.016H189.056V14.32H197.888V31.856C197.952 37.36 196.352 39.152 191.616 39.024H189.056V41.84H198.464V47.856L201.088 47.6L204.544 30.128H199.424V20.784H228.992V30.128H214.656L211.392 46.448C213.376 46.064 213.824 46 216.384 45.36C215.552 41.84 215.36 41.2 214.016 37.04H223.616C225.728 42.224 227.84 48.944 230.016 57.584H219.456L218.624 53.936C211.52 55.984 207.232 56.688 198.016 57.52V50.032H189.056V58.544H179.584ZM201.536 11.952V3.312H227.584V11.952H201.536ZM179.328 23.408H181.504V21.36H179.328V23.408ZM187.328 23.408H189.76V21.36H187.328V23.408ZM179.328 31.856H181.504V28.976H179.328V31.856ZM187.328 31.856H189.76V28.976H187.328V31.856ZM293.44 59.632C288.704 58.096 286.912 57.008 283.264 53.488C279.552 56.56 277.44 57.712 272.896 59.056V53.488C270.656 55.792 269.568 56.176 264.512 56.112H256.448V30.064H273.92V48.112C275.776 47.6 276.096 47.408 277.76 46.064C275.776 41.328 274.624 35.248 274.24 27.888H254.592V58.544H246.016V52.464L233.728 54.448V44.784L236.544 44.592V10.608H234.112V1.84H256.96V6.768H261.12V0.111996H269.504V6.768H274.24V0.111996H282.368V4.336C282.432 9.136 282.496 12.464 282.496 13.936C282.496 14.896 282.56 17.008 282.624 19.504H293.248V27.888H282.688C282.88 32.752 283.072 34.416 283.904 38.128C284.928 34.8 285.184 33.328 285.504 29.808H294.016C293.504 36.016 291.84 41.52 289.28 46C290.432 47.216 291.072 47.6 293.44 48.496V59.632ZM285.248 16.048C284.352 9.392 284.16 8.304 283.328 4.592H291.392C292.288 8.176 292.8 10.544 293.632 16.048H285.248ZM244.032 16.368H246.592V10.608H244.032V16.368ZM254.592 19.76H258.368L257.408 14.768H256V10.608H254.592V19.76ZM264.384 19.76H265.856L266.816 14.768H263.488L264.384 19.76ZM271.744 19.76H274.24V14.768H273.088L271.744 19.76ZM244.032 29.872H246.592V24.048H244.032V29.872ZM263.168 39.792H266.432V36.976H263.168V39.792ZM244.032 43.76L246.592 43.568V37.616H244.032V43.76ZM263.168 48.112H266.432V45.232H263.168V48.112ZM298.56 24.816V16.56H317.76V13.04H302.464V4.72H317.76V0.239998H328.704V4.72H341.504C342.528 3.76 343.488 2.416 344.256 1.328H356.352C352.448 7.728 348.416 13.04 345.152 16.56H357.44V24.816H338.112C336.512 26.096 335.232 27.12 333.44 28.272H352.448V49.008C352.448 51.952 351.68 54.448 350.016 55.984C348.288 57.584 345.984 58.032 340.672 58.032H308.096V40.24C304.192 41.648 302.912 42.096 298.56 43.248V32.304C306.368 30.704 315.2 27.888 320.384 24.816H298.56ZM336.064 13.04H328.704V16.56H332.416C333.568 15.536 335.04 14.192 336.064 13.04ZM319.104 38.768H341.44V35.568H319.104V38.768ZM319.104 49.328H341.44V45.872H319.104V49.328ZM363.712 57.84V47.024H367.744C377.472 47.088 382.464 44.656 387.2 37.552C390.336 33.136 395.264 22.896 398.464 14.128H368.128V3.568H414.4C410.944 14.704 408.064 22 404.032 29.68C411.136 39.6 415.808 47.408 420.544 57.136H406.656C403.84 50.416 401.856 46.64 398.08 40.56C392 51.568 383.552 57.072 371.776 57.84H363.712ZM436.288 58.032V1.328H448V18.416C462.912 22 468.352 23.536 477.76 26.8V38.64C469.184 35.504 461.12 33.136 448 29.936V58.032H436.288ZM493.824 35.12V24.24H546.24V35.12H493.824ZM560.128 56.432V45.488H580.224C592.192 45.36 596.224 40.88 595.968 28.08V1.456H607.616V26.8C607.616 38.32 606.336 43.824 602.56 48.496C598.272 53.808 591.104 56.432 581.056 56.432H560.128ZM560.192 36.528V1.712H571.84V36.528H560.192ZM621.824 35.12V24.24H674.24V35.12H621.824Z" fill="white"/>
<g clip-path="url(#clip1_596_7141)">
<path d="M728 38.0551V21.9451L741.14 30.0051L728 38.0551Z" fill="white"/>
<path d="M754.71 38.0551V21.9451L767.86 30.0051L754.71 38.0551Z" fill="white"/>
<path d="M781.43 38.0551V21.9451L794.57 30.0051L781.43 38.0551Z" fill="white"/>
<path d="M808.14 38.0551V21.9451L821.29 30.0051L808.14 38.0551Z" fill="white"/>
<path d="M834.86 38.0551V21.9451L848 30.0051L834.86 38.0551Z" fill="white"/>
</g>
<defs>
<clipPath id="clip0_596_7141">
<rect width="120" height="16.11" fill="white" transform="translate(0 21.9451)"/>
</clipPath>
<clipPath id="clip1_596_7141">
<rect width="120" height="16.11" fill="white" transform="translate(728 21.9451)"/>
</clipPath>
</defs>
</svg>
