<svg width="364" height="25" viewBox="0 0 364 25" fill="none" xmlns="http://www.w3.org/2000/svg">
<g clip-path="url(#clip0_625_3103)">
<path d="M0 16.5L0 8.5L6.57 12.5025L0 16.5Z" fill="white" fill-opacity="0.929412"/>
<path d="M13.355 16.5L13.355 8.5L19.93 12.5025L13.355 16.5Z" fill="white" fill-opacity="0.929412"/>
<path d="M26.7148 16.5V8.5L33.2848 12.5025L26.7148 16.5Z" fill="white" fill-opacity="0.929412"/>
<path d="M40.0698 16.5V8.5L46.6448 12.5025L40.0698 16.5Z" fill="white" fill-opacity="0.929412"/>
<path d="M53.4302 16.5V8.5L60.0002 12.5025L53.4302 16.5Z" fill="white" fill-opacity="0.929412"/>
</g>
<path d="M265.839 14.7047V10.1348H287.855V14.7047H265.839Z" fill="white"/>
<path d="M239.925 23.6568V19.0601H248.366C253.393 19.0063 255.087 17.1246 254.979 11.7482V0.56543H259.872V11.2106C259.872 16.0493 259.334 18.3611 257.748 20.3235C255.947 22.5547 252.936 23.6568 248.716 23.6568H239.925ZM239.952 15.2966V0.672957H244.845V15.2966H239.952Z" fill="white"/>
<path d="M212.075 14.7047V10.1348H234.091V14.7047H212.075Z" fill="white"/>
<path d="M187.909 24.3289V0.511719H192.828V7.68914C199.091 9.19452 201.376 9.83968 205.328 11.2106V16.1838C201.726 14.8666 198.339 13.8719 192.828 12.5278V24.3289H187.909Z" fill="white"/>
<path d="M157.425 24.2469V19.7039H159.119C163.205 19.7307 165.302 18.7092 167.291 15.7254C168.608 13.8705 170.678 9.56945 172.022 5.88666H159.28V1.45117H178.716C177.264 6.12859 176.054 9.19311 174.361 12.4189C177.345 16.5856 179.307 19.8652 181.296 23.9512H175.463C174.28 21.1286 173.447 19.5426 171.861 16.9888C169.307 21.6125 165.759 23.9243 160.812 24.2469H157.425Z" fill="white"/>
<path d="M130.06 10.3763V6.90855H138.124V5.43005H131.699V1.93543H138.124V0.0537109H142.721V1.93543H148.097C148.527 1.53221 148.931 0.967689 149.253 0.510701H154.334C152.694 3.19887 151 5.43005 149.629 6.90855H154.791V10.3763H146.672C146 10.9139 145.463 11.344 144.71 11.8279H152.694V20.5376C152.694 21.7741 152.371 22.8225 151.672 23.4677C150.947 24.1397 149.979 24.3279 147.748 24.3279H134.065V16.8548C132.425 17.4462 131.888 17.6344 130.06 18.1182V13.5215C133.339 12.8494 137.049 11.6666 139.226 10.3763H130.06ZM145.812 5.43005H142.721V6.90855H144.28C144.764 6.47844 145.382 5.91393 145.812 5.43005ZM138.689 16.2365H148.07V14.8924H138.689V16.2365ZM138.689 20.672H148.07V19.2204H138.689V20.672Z" fill="white"/>
<path d="M127.909 25C125.92 24.3548 125.167 23.8978 123.635 22.4194C122.075 23.7097 121.188 24.1935 119.28 24.7581V22.4194C118.339 23.3871 117.882 23.5484 115.758 23.5215H112.371V12.5806H119.71V20.1613C120.489 19.9462 120.624 19.8656 121.323 19.3011C120.489 17.3118 120.006 14.7581 119.844 11.6667H111.592V24.543H107.989V21.9892L102.828 22.8226V18.7634L104.011 18.6828V4.4086H102.989V0.725807H112.586V2.7957H114.334V0H117.855V2.7957H119.844V0H123.258V1.77419C123.285 3.79032 123.312 5.18817 123.312 5.80645C123.312 6.20968 123.339 7.09678 123.366 8.14516H127.828V11.6667H123.393C123.473 13.7097 123.554 14.4086 123.903 15.9677C124.334 14.5699 124.441 13.9516 124.575 12.4731H128.151C127.936 15.0806 127.237 17.3925 126.161 19.2742C126.645 19.7849 126.914 19.9462 127.909 20.3226V25ZM124.468 6.69355C124.092 3.89785 124.011 3.44086 123.661 1.88172H127.049C127.425 3.3871 127.64 4.38172 127.989 6.69355H124.468ZM107.156 6.82796H108.231V4.4086H107.156V6.82796ZM111.592 8.25269H113.178L112.774 6.15591H112.183V4.4086H111.592V8.25269ZM115.704 8.25269H116.323L116.726 6.15591H115.328L115.704 8.25269ZM118.796 8.25269H119.844V6.15591H119.36L118.796 8.25269ZM107.156 12.5H108.231V10.0538H107.156V12.5ZM115.194 16.6667H116.565V15.4839H115.194V16.6667ZM107.156 18.3333L108.231 18.2527V15.7527H107.156V18.3333ZM115.194 20.1613H116.565V18.9516H115.194V20.1613Z" fill="white"/>
<path d="M80.086 24.543V20.9677H76V17.5269H80.086V16.3441H76.5914V5.96774H80.086V5H76V1.88172H80.086V0H84.0645V1.88172H88.1505V5H84.0645V5.96774H87.7742V13.3333C87.8011 15.6452 87.129 16.3979 85.1398 16.3441H84.0645V17.5269H88.0161V20.0538L89.1183 19.9462L90.5699 12.6075H88.4194V8.6828H100.839V12.6075H94.8172L93.4462 19.4624C94.2796 19.3011 94.4677 19.2742 95.543 19.0054C95.1936 17.5269 95.1129 17.2581 94.5484 15.5108H98.5807C99.4677 17.6882 100.355 20.5108 101.269 24.1398H96.8333L96.4839 22.6075C93.5 23.4677 91.6989 23.7634 87.828 24.1129V20.9677H84.0645V24.543H80.086ZM89.3065 4.97312V1.34409H100.247V4.97312H89.3065ZM79.9785 9.78495H80.8925V8.92473H79.9785V9.78495ZM83.3387 9.78495H84.3602V8.92473H83.3387V9.78495ZM79.9785 13.3333H80.8925V12.1237H79.9785V13.3333ZM83.3387 13.3333H84.3602V12.1237H83.3387V13.3333Z" fill="white"/>
<g clip-path="url(#clip1_625_3103)">
<path d="M303.855 16.5V8.5L310.425 12.5025L303.855 16.5Z" fill="white" fill-opacity="0.929412"/>
<path d="M317.21 16.5V8.5L323.785 12.5025L317.21 16.5Z" fill="white" fill-opacity="0.929412"/>
<path d="M330.57 16.5V8.5L337.14 12.5025L330.57 16.5Z" fill="white" fill-opacity="0.929412"/>
<path d="M343.925 16.5V8.5L350.5 12.5025L343.925 16.5Z" fill="white" fill-opacity="0.929412"/>
<path d="M357.285 16.5V8.5L363.855 12.5025L357.285 16.5Z" fill="white" fill-opacity="0.929412"/>
</g>
<defs>
<clipPath id="clip0_625_3103">
<rect width="60" height="8" fill="white" transform="translate(0 8.5)"/>
</clipPath>
<clipPath id="clip1_625_3103">
<rect width="60" height="8" fill="white" transform="translate(303.855 8.5)"/>
</clipPath>
</defs>
</svg>
