<svg width="736" height="66" viewBox="0 0 736 66" fill="none" xmlns="http://www.w3.org/2000/svg">
<g clip-path="url(#clip0_98_154)">
<path d="M0 41.0548L0 24.9448L13.14 33.0048L0 41.0548Z" fill="#C71B21"/>
<path d="M26.7109 41.0548L26.7109 24.9448L39.8609 33.0048L26.7109 41.0548Z" fill="#C71B21"/>
<path d="M53.4297 41.0548V24.9448L66.5697 33.0048L53.4297 41.0548Z" fill="#C71B21"/>
<path d="M80.1406 41.0548V24.9448L93.2906 33.0048L80.1406 41.0548Z" fill="#C71B21"/>
<path d="M106.859 41.0548V24.9448L119.999 33.0048L106.859 41.0548Z" fill="#C71B21"/>
</g>
<path d="M162.24 61.544V53.224L165.696 53.16C168.384 53.096 170.368 53.032 171.264 53.032L174.976 52.968V50.664H163.968V43.496H174.976V41.448H163.328V34.216H174.976V31.848H163.968V15.784H167.104V13.928H162.432V6.312H167.104V3.304H176.384V6.312H182.784V3.304H191.808V6.312H196.992V13.928H191.808V15.784H195.776V25.448C195.904 30.312 194.304 31.72 188.544 31.848H184.256V34.216H195.968V41.448H184.256V43.496H194.88V50.664H184.256V52.584C187.776 52.456 188.864 52.456 195.008 52.008V59.56C187.776 60.328 169.6 61.48 162.24 61.544ZM195.776 61.416V50.344C197.952 47.784 199.616 44.328 200.32 40.744C200.832 38.056 200.896 36.136 201.216 25H197.248V15.656H201.408L201.536 3.688H210.496L210.176 15.656H221.184L221.056 19.88C220.672 36.456 220.16 47.4 219.648 51.368C219.008 57.192 216.128 59.752 210.176 59.88H206.08V51.432C203.84 56.424 199.808 60.328 195.776 61.416ZM176.384 15.784H182.784V13.928H176.384V15.784ZM172.16 25.128H174.976V22.44H172.16V25.128ZM184.256 25.128H186.816V22.44H184.256V25.128ZM206.528 50.408H208.448C210.304 50.344 211.072 49.064 211.328 45.544C211.648 39.848 211.84 34.472 212.096 25H209.856C209.472 39.656 208.832 44.648 206.528 50.408ZM253.632 33.448V24.552C256.512 24.104 257.792 23.656 260.608 22.312C259.008 20.584 258.816 20.328 257.472 18.472L253.184 21.096V10.728C257.216 8.04 259.072 6.248 260.864 3.304H271.872L269.12 7.016H284.48V14.184H282.112C279.296 18.792 278.336 20.072 276.096 22.568C278.976 23.656 281.664 24.104 285.632 24.168V33.192C278.976 32.808 272.448 31.08 268.544 28.648C263.808 31.144 259.328 32.552 253.632 33.448ZM230.144 61.224V52.52H234.688V43.816C231.872 49.64 229.952 52.072 226.368 54.44V41.448C229.952 37.864 231.104 36.008 232.64 31.912H226.496V23.592H231.808C230.336 20.136 229.568 18.472 227.84 14.952H235.968L237.952 18.92L240.512 13.16H227.52V4.904H251.392V12.52L245.824 23.592H252.48V36.52H261.504V32.104H270.976V36.52H283.968C283.904 47.016 283.328 53.672 282.368 55.208C280.64 58.92 277.44 60.392 271.424 60.328H266.624V53.48C263.616 57.832 258.624 60.328 251.264 61.224V51.816C256.832 50.792 259.84 48.616 260.16 45.224H251.84V39.08C251.072 42.152 249.536 43.112 245.44 43.112H243.264V52.776C243.52 59.048 241.6 61.096 235.392 61.224H230.144ZM268.096 17.512C269.568 16.04 269.76 15.784 270.976 14.312H264.896C266.24 15.912 266.432 16.168 268.096 17.512ZM243.264 35.24H245.44V31.912H243.264V35.24ZM267.648 51.752H270.592C273.216 51.752 273.92 50.6 273.92 46.248V45.224H269.76C269.056 48.36 268.928 48.808 267.648 51.752ZM321.024 60.968C314.688 60.648 313.088 58.728 313.088 51.56V30.824L309.184 31.464V27.496H305.024V42.6L309.824 41.192V51.112C301.504 53.48 296.832 54.632 290.112 55.976V45.928L292.928 45.416L295.488 44.904V27.496H290.432V18.152H295.488V4.648H305.024V18.152H309.504V21.608L313.088 21.032V5.096H322.112V19.368L325.056 18.856V3.432H334.272V17.192L347.264 14.824V38.312C347.328 43.432 345.408 45.288 339.776 45.608H335.552V36.072H337.856V26.216L334.272 26.856V48.488H325.056V28.52L322.112 29.096V51.56H338.368C343.296 51.432 346.368 50.344 349.44 47.656V58.024C347.2 59.944 344.256 60.84 340.096 60.968H321.024ZM372.256 59.496C371.584 59.496 370.624 59.496 369.472 59.448V51.48C370.336 51.528 371.68 51.528 371.872 51.528C374.416 51.528 375.328 50.952 375.808 49.08C376.096 48.024 376.384 44.952 376.384 42.696C376.384 40.872 376.144 38.088 375.904 37.368C375.568 36.312 374.416 35.544 373.12 35.544H370.528C368.128 47.928 366.88 52.68 364.432 59.256H355.456C358.72 51.288 361.024 43.656 362.512 35.592L355.504 35.928V27.432H363.856C364.192 24.792 364.336 22.92 364.528 18.456H372.832C372.64 21.672 372.496 23.4 371.92 27.432H376.432C379.84 27.432 382.624 28.968 383.68 31.464C384.64 33.624 385.12 37.416 385.12 42.36C385.12 48.408 384.64 52.056 383.488 54.456C381.904 57.816 378.16 59.496 372.256 59.496ZM389.056 48.696C389.2 45.384 389.248 43.752 389.248 41.832C389.248 35.496 388.912 32.808 387.76 29.832C386.848 27.48 386.032 25.896 384.688 23.88H393.04C395.632 26.808 396.496 29.064 397.216 34.488C397.552 36.888 397.696 39.912 397.696 43.512C397.696 44.712 397.648 46.008 397.6 48.696H389.056ZM437.2 26.616C425.584 25.848 419.392 25.608 411.904 25.608H406.672V18.216C423.424 18.408 424.48 18.456 437.2 19.128V26.616ZM407.008 59.736V51.672H417.664C425.584 51.672 425.92 51.672 427.696 51.528C430.768 51.288 431.872 50.904 432.688 49.896C433.408 48.936 433.792 47.832 433.792 46.728C433.792 43.848 431.344 42.168 427.216 42.168C424 42.168 420.784 43.128 418.192 44.808C416.992 45.576 416.176 46.296 414.64 48.024H407.008V28.584H415.264V38.952C421.6 35.784 425.056 34.776 429.232 34.776C437.392 34.776 443.104 39.624 443.104 46.632C443.104 51.528 440.752 55.656 436.72 57.816C434.608 58.968 432.448 59.448 428.32 59.64C426.304 59.736 424.768 59.736 417.712 59.736H407.008ZM456.064 22.824H450.112V13.864H456.064V3.496H465.856V13.864H471.04V22.824H465.856V30.888L471.168 29.8V38.696L465.856 40.04V52.712C465.856 58.6 462.848 61.288 456.064 61.288H451.136V51.688H456.064V41.96L449.856 42.856V33.064L456.064 32.424V22.824ZM488.256 16.808C487.168 20.904 485.44 25.256 482.88 29.48H472.256C474.752 25.512 476.48 22.12 477.824 18.408H472.512V4.328H508.544V18.408H502.656C504.192 21.928 506.368 25.704 508.672 29.48H497.28C494.848 25.064 493.248 21.544 491.712 16.808H498.112V12.52H481.92V16.808H488.256ZM471.168 60.456V50.216C475.904 48.552 479.232 45.672 481.344 41.192H472.704V32.68H485.12V27.88H495.424V32.872H508.608V41.192H499.264C502.72 45.864 505.152 48.04 509.568 49.768V60.456C506.048 59.496 504.128 58.152 501.056 55.912C498.304 53.864 496.384 51.688 495.104 49.512V61.416H484.992V50.408C482.88 53.672 481.6 55.08 479.168 56.808C476.736 58.536 474.56 59.56 471.168 60.456ZM525.12 61.288V50.984H535.424C542.912 50.984 544.384 49.96 544.896 44.456C541.504 46.056 539.648 46.504 536.704 46.504C529.6 46.504 524.288 41.64 524.288 35.112C524.288 31.784 525.696 28.84 528.576 26.344C531.328 23.976 534.144 23.016 538.56 23.016C540.48 23.016 541.76 23.208 544.384 23.784V20.392L516.288 20.712V10.856L544.384 10.664V4.008H555.776V10.472L570.688 10.28V20.264L555.776 20.392V44.648C555.84 49.768 554.816 52.968 551.936 56.296C548.224 60.136 544.832 61.288 537.024 61.288H525.12ZM539.264 37.736C542.144 37.736 544.064 36.392 544.064 34.408C544.064 32.744 542.208 31.592 539.584 31.592C537.088 31.592 534.848 33.128 534.848 34.792C534.848 36.52 536.64 37.736 539.264 37.736Z" fill="#C71B21"/>
<g clip-path="url(#clip1_98_154)">
<path d="M616 41.0548V24.9448L629.14 33.0048L616 41.0548Z" fill="#C71B21"/>
<path d="M642.711 41.0548V24.9448L655.861 33.0048L642.711 41.0548Z" fill="#C71B21"/>
<path d="M669.43 41.0548V24.9448L682.57 33.0048L669.43 41.0548Z" fill="#C71B21"/>
<path d="M696.141 41.0548V24.9448L709.291 33.0048L696.141 41.0548Z" fill="#C71B21"/>
<path d="M722.859 41.0548V24.9448L735.999 33.0048L722.859 41.0548Z" fill="#C71B21"/>
</g>
<defs>
<clipPath id="clip0_98_154">
<rect width="120" height="16.11" fill="white" transform="translate(0 24.9448)"/>
</clipPath>
<clipPath id="clip1_98_154">
<rect width="120" height="16.11" fill="white" transform="translate(616 24.9448)"/>
</clipPath>
</defs>
</svg>
