<svg width="15" height="21" viewBox="0 0 15 21" fill="none" xmlns="http://www.w3.org/2000/svg">
<path d="M6.50491 19.7765C1.0184 11.8227 0 11.0064 0 8.08325C0 4.07918 3.24592 0.833252 7.25 0.833252C11.2541 0.833252 14.5 4.07918 14.5 8.08325C14.5 11.0064 13.4816 11.8227 7.99509 19.7765C7.63504 20.2966 6.86492 20.2966 6.50491 19.7765ZM7.25 11.1041C8.91837 11.1041 10.2708 9.75162 10.2708 8.08325C10.2708 6.41488 8.91837 5.06242 7.25 5.06242C5.58163 5.06242 4.22917 6.41488 4.22917 8.08325C4.22917 9.75162 5.58163 11.1041 7.25 11.1041Z" fill="white"/>
</svg>
