<svg width="16" height="16" viewBox="0 0 16 16" fill="none" xmlns="http://www.w3.org/2000/svg">
<g clip-path="url(#clip0_220_14746)">
<path d="M8 0.5C3.86451 0.5 0.5 3.86451 0.5 8C0.5 12.1355 3.86451 15.5 8 15.5C12.1355 15.5 15.5 12.1355 15.5 8C15.5 3.86451 12.1355 0.5 8 0.5ZM8 14.0484C4.66493 14.0484 1.9516 11.3351 1.9516 8C1.9516 4.6649 4.66493 1.9516 8 1.9516C11.3351 1.9516 14.0484 4.66493 14.0484 8C14.0484 11.3351 11.3351 14.0484 8 14.0484Z" fill="black"/>
<path d="M8.24188 7.75798V5.09668H6.79028V9.20958H10.9032V7.75798H8.24188Z" fill="black"/>
</g>
<defs>
<clipPath id="clip0_220_14746">
<rect width="15" height="15" fill="white" transform="translate(0.5 0.5)"/>
</clipPath>
</defs>
</svg>
