<svg width="335" height="56" viewBox="0 0 335 56" fill="none" xmlns="http://www.w3.org/2000/svg">
<g clip-path="url(#clip0_287_3667)">
<path d="M0.0869141 31.937L0.0869141 23.937L6.65691 27.9395L0.0869141 31.937Z" fill="white"/>
<path d="M13.4419 31.937L13.4419 23.937L20.0169 27.9395L13.4419 31.937Z" fill="white"/>
<path d="M26.8018 31.937V23.937L33.3718 27.9395L26.8018 31.937Z" fill="white"/>
<path d="M40.1567 31.937V23.937L46.7317 27.9395L40.1567 31.937Z" fill="white"/>
<path d="M53.5171 31.937V23.937L60.0871 27.9395L53.5171 31.937Z" fill="white"/>
</g>
<path d="M170.16 55.4371V50.5332C173.466 49.6662 174.522 48.3387 174.576 45.0604V39.5604C172.544 40.4274 171.488 40.7796 169.375 41.3757V36.6614C173.818 35.3609 176.717 33.5457 179.372 30.4028H184.357C186.85 33.3831 190.128 35.3609 194.463 36.4718V41.1589C192.729 40.8338 191.781 40.5629 189.505 39.723V55.2475H184.791V39.452H188.828C185.766 37.989 184.14 36.7427 181.756 34.0604C179.887 36.4447 177.882 38.0161 175.01 39.3437H179.209V44.9249C179.182 49.4766 178.342 51.4544 175.687 53.3509C174.089 54.4076 172.517 55.0036 170.16 55.4371Z" fill="white"/>
<path d="M146.21 54.977V44.3564H142.308V40.9155H143.609L144.99 38.9377L143.094 36.4722C142.579 35.7678 142.39 35.3614 142.39 34.9279C142.39 34.4673 142.444 34.386 143.202 33.1397L144.909 30.1865H149.082L146.724 34.5757L147.402 35.4155L149.461 32.4353H153.904L149.813 38.45H152.956L153.877 40.9155V42.7579C153.823 44.1396 153.498 44.3564 151.655 44.3564H150.057V54.977H146.21ZM154.338 43.1372V38.9648C156.072 38.3958 156.668 37.3934 156.966 34.5486H154.365V30.891H166.99C166.936 36.2013 166.855 38.0436 166.638 39.4525C166.259 41.5928 164.985 42.4327 162.168 42.3786H160.163V38.5042H161.003C162.52 38.5042 162.628 38.2333 162.655 34.5486H161.003C160.379 39.8318 158.564 42.1618 154.338 43.1372ZM148.106 40.9155H150.192L149.515 38.9106L148.106 40.9155ZM154.338 54.2996V43.4894H166.746V50.642C166.774 53.5952 165.934 54.3809 162.818 54.2996H154.338ZM141.739 52.7553C142.281 50.5066 142.389 49.3686 142.444 45.5756H145.478C145.397 49.6125 145.288 50.8046 144.963 52.7553H141.739ZM150.626 52.376V45.5756H153.525V52.376H150.626ZM158.591 50.5608H162.384V46.9302H158.591V50.5608Z" fill="white"/>
<path d="M241.356 24.4418V0.437012H246.315V7.67095C252.627 9.18818 254.93 9.83842 258.913 11.2202V16.2325C255.282 14.9049 251.869 13.9024 246.315 12.5478V24.4418H241.356Z" fill="white"/>
<path d="M224.152 9.59447C219.952 8.15852 215.265 6.72257 211.743 5.80139V1.00586C216.566 2.25216 221.741 3.79648 224.152 4.71766V9.59447ZM211.526 23.8456V19.1584H219.112C222.337 19.1313 224.965 18.6978 226.238 17.9663C228.216 16.991 229.435 14.8777 229.462 12.3851V3.25461H234.285V11.4097C234.258 16.1511 233.011 19.1313 230.167 21.2446C227.782 23.087 224.775 23.7914 219.031 23.8456H211.526Z" fill="white"/>
<path d="M184.407 23.927V19.4295H193.97C198.603 19.4837 200.906 18.0748 201.557 14.8236H190.448V10.3803H201.665V5.85568H191.695C191.017 10.6783 188.281 13.6857 183.485 14.9049V10.1364C186.086 9.24235 187.143 6.9936 187.522 1.43945H206.488V12.7374C206.488 20.5403 202.64 23.927 193.835 23.927H184.407Z" fill="white"/>
<path d="M155.795 24.415V19.2673C158.423 18.4816 159.263 17.0185 159.426 13.0629V0.84375H164.032V12.6294C164.14 19.5111 161.214 23.7106 155.795 24.415ZM167.012 23.5751V0.84375H171.699V18.6983C175.465 18.5086 175.953 17.8313 176.007 12.5481V6.20824H180.559V13.1983C180.559 17.75 180.017 19.782 178.364 21.3534C176.63 22.952 174.652 23.548 171.103 23.5751H167.012Z" fill="white"/>
<path d="M132.767 23.9542V19.5921H138.89C142.818 19.6463 144.498 17.6685 144.444 13.0626V9.86561H137.725V15.6365H133.092V9.86561H128.594V5.47648H133.092V0.870605H137.725V5.47648H144.444V0.870605H149.266V5.47648H153.954V9.86561H149.266V13.0355C149.402 19.9714 145.636 23.9542 138.971 23.9542H132.767Z" fill="white"/>
<path d="M115.779 9.59447C111.579 8.15852 106.892 6.72257 103.37 5.80139V1.00586C108.193 2.25216 113.368 3.79648 115.779 4.71766V9.59447ZM103.153 23.8456V19.1584H110.739C113.964 19.1313 116.592 18.6978 117.865 17.9663C119.843 16.991 121.062 14.8777 121.089 12.3851V3.25461H125.912V11.4097C125.885 16.1511 124.638 19.1313 121.794 21.2446C119.409 23.087 116.402 23.7914 110.658 23.8456H103.153Z" fill="white"/>
<path d="M76.0869 23.4934V18.8875H93.3454V9.29645C93.3454 7.427 92.8306 6.83095 91.2592 6.83095H76.2495V2.1167H92.5868C95.9192 2.1167 98.0867 4.1487 98.0867 7.37282V23.4934H76.0869Z" fill="white"/>
<g clip-path="url(#clip1_287_3667)">
<path d="M274.913 31.937V23.937L281.483 27.9395L274.913 31.937Z" fill="white"/>
<path d="M288.268 31.937V23.937L294.843 27.9395L288.268 31.937Z" fill="white"/>
<path d="M301.627 31.937V23.937L308.197 27.9395L301.627 31.937Z" fill="white"/>
<path d="M314.982 31.937V23.937L321.557 27.9395L314.982 31.937Z" fill="white"/>
<path d="M328.343 31.937V23.937L334.913 27.9395L328.343 31.937Z" fill="white"/>
</g>
<defs>
<clipPath id="clip0_287_3667">
<rect width="60" height="8" fill="white" transform="translate(0.0869141 23.937)"/>
</clipPath>
<clipPath id="clip1_287_3667">
<rect width="60" height="8" fill="white" transform="translate(274.913 23.937)"/>
</clipPath>
</defs>
</svg>
