<svg width="433" height="61" viewBox="0 0 433 61" fill="none" xmlns="http://www.w3.org/2000/svg">
<g clip-path="url(#clip0_98_210)">
<path d="M0.5 38.1764L0.5 22.0664L13.64 30.1264L0.5 38.1764Z" fill="white"/>
<path d="M27.2109 38.1764L27.2109 22.0664L40.3609 30.1264L27.2109 38.1764Z" fill="white"/>
<path d="M53.9297 38.1764V22.0664L67.0697 30.1264L53.9297 38.1764Z" fill="white"/>
<path d="M80.6406 38.1764V22.0664L93.7906 30.1264L80.6406 38.1764Z" fill="white"/>
<path d="M107.359 38.1764V22.0664L120.499 30.1264L107.359 38.1764Z" fill="white"/>
</g>
<path d="M176.603 56.6811H171.291V60.0731H160.539V56.6811H154.139C145.115 56.5531 141.467 52.2651 141.211 41.3211V18.6011C141.211 7.52909 144.731 3.88109 155.355 3.49709H174.427C181.275 3.62509 184.539 4.84109 187.099 8.29709C189.211 11.1771 190.235 14.9531 190.235 20.1371V42.4091C190.107 51.1771 184.923 56.6171 176.603 56.6811ZM157.851 46.5691H160.539V37.5451H171.291V46.5691H173.787C177.947 46.3771 178.203 45.9931 178.267 39.1451V21.2891C178.139 14.7611 176.923 13.6091 170.267 13.5451H161.051C154.587 13.8651 152.859 15.4651 152.923 21.2891V39.7211C152.923 43.1131 152.987 44.3291 153.115 44.5211C153.819 45.9291 155.099 46.5051 157.851 46.5691ZM238.826 39.3851V46.8731C234.65 45.6251 233.882 45.3851 231.626 44.5211C231.29 52.5851 228.17 55.5131 219.818 55.5611H209.354C203.45 55.5131 199.322 52.2011 199.274 47.4491V42.5531C199.37 38.7611 201.05 36.7451 206.522 34.0091C203.642 32.8571 202.586 31.1771 202.49 27.6731V23.5451C202.49 19.2731 206.09 16.1051 210.938 16.0571H218.282C223.61 16.0571 227.738 19.3691 227.546 23.4491V27.6251C227.306 31.0811 226.106 32.4731 222.218 33.9611C226.202 35.4011 233.882 37.8971 238.826 39.3851ZM209.978 25.3211V27.0491C210.026 28.7291 211.37 29.8331 214.538 30.7931C218.186 29.5931 219.578 28.5371 219.626 26.8091V25.1771C219.626 23.5451 218.282 22.5371 216.17 22.5371H212.954C211.178 22.5371 209.978 23.6891 209.978 25.3211ZM223.37 42.8411V41.7371C218.618 40.2491 216.362 39.4331 213.05 38.1851C208.538 39.6251 207.242 40.6331 207.194 42.9371V45.0011C207.194 47.3531 208.634 48.5531 211.466 48.5531H218.186C222.026 48.4091 223.466 46.7771 223.37 42.8411ZM278.305 43.8171H259.425L255.713 56.0411H243.553L261.409 3.49709H277.153L294.561 56.0411H282.337L278.305 43.8171ZM262.305 33.7051H275.809L268.833 12.2651L262.305 33.7051Z" fill="white"/>
<g clip-path="url(#clip1_98_210)">
<path d="M312.5 38.1764V22.0664L325.64 30.1264L312.5 38.1764Z" fill="white"/>
<path d="M339.211 38.1764V22.0664L352.361 30.1264L339.211 38.1764Z" fill="white"/>
<path d="M365.93 38.1764V22.0664L379.07 30.1264L365.93 38.1764Z" fill="white"/>
<path d="M392.641 38.1764V22.0664L405.791 30.1264L392.641 38.1764Z" fill="white"/>
<path d="M419.359 38.1764V22.0664L432.499 30.1264L419.359 38.1764Z" fill="white"/>
</g>
<defs>
<clipPath id="clip0_98_210">
<rect width="120" height="16.11" fill="white" transform="translate(0.5 22.0664)"/>
</clipPath>
<clipPath id="clip1_98_210">
<rect width="120" height="16.11" fill="white" transform="translate(312.5 22.0664)"/>
</clipPath>
</defs>
</svg>
