<svg width="433" height="67" viewBox="0 0 433 67" fill="none" xmlns="http://www.w3.org/2000/svg">
<g clip-path="url(#clip0_98_210)">
<path d="M0.5 41.1764L0.5 25.0664L13.64 33.1264L0.5 41.1764Z" fill="white"/>
<path d="M27.2109 41.1764L27.2109 25.0664L40.3609 33.1264L27.2109 41.1764Z" fill="white"/>
<path d="M53.9297 41.1764V25.0664L67.0697 33.1264L53.9297 41.1764Z" fill="white"/>
<path d="M80.6406 41.1764V25.0664L93.7906 33.1264L80.6406 41.1764Z" fill="white"/>
<path d="M107.359 41.1764V25.0664L120.499 33.1264L107.359 41.1764Z" fill="white"/>
</g>
<path d="M176.603 59.6811H171.291V63.0731H160.539V59.6811H154.139C145.115 59.5531 141.467 55.2651 141.211 44.3211V21.6011C141.211 10.5291 144.731 6.88109 155.355 6.49709H174.427C181.275 6.62509 184.539 7.84109 187.099 11.2971C189.211 14.1771 190.235 17.9531 190.235 23.1371V45.4091C190.107 54.1771 184.923 59.6171 176.603 59.6811ZM157.851 49.5691H160.539V40.5451H171.291V49.5691H173.787C177.947 49.3771 178.203 48.9931 178.267 42.1451V24.2891C178.139 17.7611 176.923 16.6091 170.267 16.5451H161.051C154.587 16.8651 152.859 18.4651 152.923 24.2891V42.7211C152.923 46.1131 152.987 47.3291 153.115 47.5211C153.819 48.9291 155.099 49.5051 157.851 49.5691ZM238.826 42.3851V49.8731C234.65 48.6251 233.882 48.3851 231.626 47.5211C231.29 55.5851 228.17 58.5131 219.818 58.5611H209.354C203.45 58.5131 199.322 55.2011 199.274 50.4491V45.5531C199.37 41.7611 201.05 39.7451 206.522 37.0091C203.642 35.8571 202.586 34.1771 202.49 30.6731V26.5451C202.49 22.2731 206.09 19.1051 210.938 19.0571H218.282C223.61 19.0571 227.738 22.3691 227.546 26.4491V30.6251C227.306 34.0811 226.106 35.4731 222.218 36.9611C226.202 38.4011 233.882 40.8971 238.826 42.3851ZM209.978 28.3211V30.0491C210.026 31.7291 211.37 32.8331 214.538 33.7931C218.186 32.5931 219.578 31.5371 219.626 29.8091V28.1771C219.626 26.5451 218.282 25.5371 216.17 25.5371H212.954C211.178 25.5371 209.978 26.6891 209.978 28.3211ZM223.37 45.8411V44.7371C218.618 43.2491 216.362 42.4331 213.05 41.1851C208.538 42.6251 207.242 43.6331 207.194 45.9371V48.0011C207.194 50.3531 208.634 51.5531 211.466 51.5531H218.186C222.026 51.4091 223.466 49.7771 223.37 45.8411ZM278.305 46.8171H259.425L255.713 59.0411H243.553L261.409 6.49709H277.153L294.561 59.0411H282.337L278.305 46.8171ZM262.305 36.7051H275.809L268.833 15.2651L262.305 36.7051Z" fill="white"/>
<g clip-path="url(#clip1_98_210)">
<path d="M312.5 41.1764V25.0664L325.64 33.1264L312.5 41.1764Z" fill="white"/>
<path d="M339.211 41.1764V25.0664L352.361 33.1264L339.211 41.1764Z" fill="white"/>
<path d="M365.93 41.1764V25.0664L379.07 33.1264L365.93 41.1764Z" fill="white"/>
<path d="M392.641 41.1764V25.0664L405.791 33.1264L392.641 41.1764Z" fill="white"/>
<path d="M419.359 41.1764V25.0664L432.499 33.1264L419.359 41.1764Z" fill="white"/>
</g>
<defs>
<clipPath id="clip0_98_210">
<rect width="120" height="16.11" fill="white" transform="translate(0.5 25.0664)"/>
</clipPath>
<clipPath id="clip1_98_210">
<rect width="120" height="16.11" fill="white" transform="translate(312.5 25.0664)"/>
</clipPath>
</defs>
</svg>
