<svg width="864" height="61" viewBox="0 0 864 61" fill="none" xmlns="http://www.w3.org/2000/svg">
<g clip-path="url(#clip0_98_238)">
<path d="M144 38.1139V22.0039L157.14 30.0639L144 38.1139Z" fill="white"/>
<path d="M170.711 38.1139V22.0039L183.861 30.0639L170.711 38.1139Z" fill="white"/>
<path d="M197.43 38.1139V22.0039L210.57 30.0639L197.43 38.1139Z" fill="white"/>
<path d="M224.141 38.1139V22.0039L237.291 30.0639L224.141 38.1139Z" fill="white"/>
<path d="M250.859 38.1139V22.0039L263.999 30.0639L250.859 38.1139Z" fill="white"/>
</g>
<path d="M323.584 57.4386V48.3506H339.328V36.7026H327.552V27.4866H339.328V18.2706H326.464V8.54259H339.328V0.92659H350.272V8.54259H363.904V18.2706H350.272V27.4866H362.048V36.7026H350.272V48.3506H365.184V57.4386H323.584ZM324.736 15.3266C318.08 13.4066 314.944 12.7026 307.84 11.4866V1.56659C316.928 3.16659 318.976 3.55059 324.736 4.95859V15.3266ZM324.736 28.6386C318.592 26.8466 315.712 26.1426 307.84 24.4786V14.7506C314.496 15.8386 317.888 16.6066 324.736 18.3346V28.6386ZM306.688 58.9746V47.4546C312.512 45.4066 314.24 41.5026 314.688 29.6626H324.736C324.224 47.0066 318.016 57.0546 306.688 58.9746ZM375.616 57.8866V2.14259H424.064V47.7106C424.064 54.8786 420.8 57.7586 412.544 57.8866H375.616ZM386.496 17.3746H413.056V11.5506H386.496V17.3746ZM386.496 33.0546H413.056V26.3346H386.496V33.0546ZM386.496 48.8626H413.056V42.3986H386.496V48.8626ZM433.792 26.9106V16.0946C445.376 12.7026 452.864 8.22259 458.944 0.990593H468.992C474.56 7.90259 482.048 12.3826 493.632 15.8386V26.5906C481.984 24.1586 473.152 19.3586 463.808 10.3346C454.976 19.1666 447.296 23.3906 433.792 26.9106ZM435.776 58.0786V48.0306H442.56V25.0546H453.184V48.0306H461.248V19.5506H472.32V30.0466H489.856V39.5826H472.32V48.0306H492.032V58.0786H435.776ZM522.496 59.1026V49.4386C516.16 55.0706 508.672 57.9506 498.944 58.5906V49.0546C505.344 48.6066 510.528 47.0706 514.432 44.3186H498.944V36.5106H522.496V34.1426H501.504V27.3586H522.496V25.1826H499.904V18.2066H511.488L510.528 15.3266H498.944V7.71059H503.616L500.544 1.43859H510.912L513.664 7.71059H515.584V0.478592H525.824V7.71059H530.048V0.478592H540.16V7.71059H542.272L545.088 1.43859H555.84L552.512 7.71059H556.928V15.3266H545.792L544.32 18.2066H555.648V25.1826H533.184V27.3586H554.624V34.1426H533.184V36.5106H556.928V44.3186H540.864C545.472 47.2626 551.168 48.9266 556.928 48.8626V58.4626C545.536 57.2466 541.056 55.5186 533.184 49.1826V59.1026H522.496ZM523.2 18.2066H532.48L534.272 15.3266H521.856L523.2 18.2066Z" fill="white"/>
<g clip-path="url(#clip1_98_238)">
<path d="M600 38.1139V22.0039L613.14 30.0639L600 38.1139Z" fill="white"/>
<path d="M626.711 38.1139V22.0039L639.861 30.0639L626.711 38.1139Z" fill="white"/>
<path d="M653.43 38.1139V22.0039L666.57 30.0639L653.43 38.1139Z" fill="white"/>
<path d="M680.141 38.1139V22.0039L693.291 30.0639L680.141 38.1139Z" fill="white"/>
<path d="M706.859 38.1139V22.0039L719.999 30.0639L706.859 38.1139Z" fill="white"/>
</g>
<defs>
<clipPath id="clip0_98_238">
<rect width="120" height="16.11" fill="white" transform="translate(144 22.0039)"/>
</clipPath>
<clipPath id="clip1_98_238">
<rect width="120" height="16.11" fill="white" transform="translate(600 22.0039)"/>
</clipPath>
</defs>
</svg>
