<svg width="545" height="61" viewBox="0 0 545 61" fill="none" xmlns="http://www.w3.org/2000/svg">
<g clip-path="url(#clip0_98_224)">
<path d="M0.5 38.1764L0.5 22.0664L13.64 30.1264L0.5 38.1764Z" fill="#EEEEEE" fill-opacity="0.929412"/>
<path d="M27.2109 38.1764L27.2109 22.0664L40.3609 30.1264L27.2109 38.1764Z" fill="#EEEEEE" fill-opacity="0.929412"/>
<path d="M53.9297 38.1764V22.0664L67.0697 30.1264L53.9297 38.1764Z" fill="#EEEEEE" fill-opacity="0.929412"/>
<path d="M80.6406 38.1764V22.0664L93.7906 30.1264L80.6406 38.1764Z" fill="#EEEEEE" fill-opacity="0.929412"/>
<path d="M107.359 38.1764V22.0664L120.499 30.1264L107.359 38.1764Z" fill="#EEEEEE" fill-opacity="0.929412"/>
</g>
<path d="M207.661 33.7691H177.901V56.0411H165.613V3.49709H211.629V13.5451H177.901V23.6571H207.661V33.7691ZM263.381 45.9291V56.0411H219.925V3.49709H231.701V45.9291H263.381ZM319.754 20.1371V40.4891C319.434 51.4331 315.466 55.7851 305.482 56.0411H283.466C279.498 56.0411 275.21 54.2491 273.226 51.7531C271.434 49.5771 270.41 45.5451 270.41 40.6171V20.3291C270.794 8.04109 275.402 3.49709 287.242 3.49709H302.666C315.274 3.75309 319.69 7.97709 319.754 20.1371ZM288.33 45.9291H300.49C306.89 45.8011 307.85 44.7771 307.914 37.8651V22.3771C308.042 15.6571 305.994 13.4171 299.722 13.5451H289.994C283.658 13.7371 282.378 15.2091 282.25 22.6331V38.1851C281.994 44.7771 282.89 45.8651 288.33 45.9291ZM353.634 24.3611L348.642 56.0411H334.69L325.538 3.49709H337.762L341.858 36.6491L347.426 3.49709H360.61L365.538 35.5611L370.338 3.49709H382.562L372.578 56.0411H358.434L353.634 24.3611Z" fill="#C71B21"/>
<g clip-path="url(#clip1_98_224)">
<path d="M424.5 38.1764V22.0664L437.64 30.1264L424.5 38.1764Z" fill="#EEEEEE" fill-opacity="0.929412"/>
<path d="M451.211 38.1764V22.0664L464.361 30.1264L451.211 38.1764Z" fill="#EEEEEE" fill-opacity="0.929412"/>
<path d="M477.93 38.1764V22.0664L491.07 30.1264L477.93 38.1764Z" fill="#EEEEEE" fill-opacity="0.929412"/>
<path d="M504.641 38.1764V22.0664L517.791 30.1264L504.641 38.1764Z" fill="#EEEEEE" fill-opacity="0.929412"/>
<path d="M531.359 38.1764V22.0664L544.499 30.1264L531.359 38.1764Z" fill="#EEEEEE" fill-opacity="0.929412"/>
</g>
<defs>
<clipPath id="clip0_98_224">
<rect width="120" height="16.11" fill="white" transform="translate(0.5 22.0664)"/>
</clipPath>
<clipPath id="clip1_98_224">
<rect width="120" height="16.11" fill="white" transform="translate(424.5 22.0664)"/>
</clipPath>
</defs>
</svg>
