<svg width="920" height="152" viewBox="0 0 920 152" fill="none" xmlns="http://www.w3.org/2000/svg">
<path d="M32.846 64.313V54.17C28.913 57.551 27.188 58.862 24.911 60.104C21.53 62.036 17.735 63.071 14.285 63.071C6.143 63.071 0.416 56.309 0.416 46.787C0.416 39.335 3.935 32.09 9.8 27.467C11.249 26.294 12.077 25.811 14.768 24.5L17.39 23.12L17.321 16.772L2.486 17.117V6.491L17.39 6.284V1.868H28.982L28.706 6.077L56.237 5.663V16.565L28.361 16.841L28.43 20.774C31.397 20.498 32.984 20.429 34.985 20.429C43.61 20.429 50.165 22.361 54.581 26.294C59.066 30.227 61.343 35.54 61.343 41.957C61.343 49.34 58.583 55.274 53.408 59.069C48.44 62.657 42.782 64.313 35.537 64.313H32.846ZM29.603 41.129C32.294 37.541 32.846 36.506 35.261 30.434C34.295 30.365 33.467 30.296 32.984 30.296C31.949 30.296 30.983 30.434 28.775 30.779C29.051 36.92 29.051 37.61 29.603 41.129ZM33.881 53.066C39.194 53.066 40.919 52.721 43.817 51.134C45.956 49.961 46.991 48.926 47.819 47.063C48.509 45.476 48.923 43.544 48.923 41.612C48.923 38.369 48.302 36.92 45.749 34.643C43.61 40.025 39.677 46.166 33.881 53.066ZM15.527 51.617C16.838 51.617 17.942 51.272 20.081 50.168C19.253 46.304 19.253 46.166 18.632 41.888L18.218 38.783L17.666 34.781C14.906 36.713 13.802 37.886 12.629 40.577C11.801 42.44 11.456 44.165 11.456 45.959C11.456 49.685 12.836 51.617 15.527 51.617ZM70.037 55.55C74.522 41.405 75.281 38.369 78.524 22.223H69.416V11.39H80.111C80.732 7.871 80.939 6.284 81.284 2.696H92.876C92.117 8.492 92.048 8.837 91.703 11.39H100.949V22.223H89.564C86.735 37.127 84.665 45.959 81.56 55.55H70.037ZM104.675 64.382C98.81 64.382 94.187 62.312 91.013 58.31C89.219 56.102 88.253 52.997 88.253 49.478C88.253 40.853 95.015 34.712 104.606 34.712C105.71 34.712 106.538 34.781 108.194 35.126V11.252H128.618V22.223H119.579V38.438C126.548 41.405 126.893 41.612 129.722 43.406V56.723C124.961 53.135 123.443 52.238 119.924 50.513C119.786 54.239 119.303 56.171 117.716 58.448C115.094 62.312 110.609 64.382 104.675 64.382ZM103.847 53.549C106.745 53.549 108.608 51.824 108.608 48.995C108.608 46.511 106.883 44.993 103.916 44.993C100.88 44.993 98.81 46.718 98.81 49.202C98.81 51.755 100.88 53.549 103.847 53.549ZM139.313 62.174C143.66 45.89 144.488 41.681 146.972 21.464L138.071 21.809V10.286L148.007 10.424L148.628 2.696H161.186L160.22 10.286L169.19 10.079V15.944H196.238V27.398H167.741V21.464H159.185C155.804 44.441 153.596 56.516 151.733 62.174H139.313ZM183.404 62.105C175.055 62.105 170.294 61.277 167.051 59.276C163.808 57.206 161.945 53.204 161.945 48.236C161.945 44.51 162.773 41.819 165.257 37.265H176.711C174.296 41.336 173.468 43.613 173.468 45.959C173.468 49.892 176.504 51.203 185.198 51.203C187.061 51.203 191.27 50.858 197.894 50.237V61.622C190.58 61.967 187.13 62.105 183.404 62.105ZM314.228 58.103V0.625999H336.998V9.734H323.336V58.103H314.228ZM381.503 13.391C378.743 7.457 378.467 6.836 375.776 2.075H388.127C391.853 7.94 392.543 9.182 394.268 13.391H381.503ZM363.632 63.83L358.733 28.019L344.45 28.778V17.807L357.077 17.462L354.938 2.696H367.841L369.773 17.048L386.057 16.703H387.092C394.199 16.703 398.477 17.807 401.651 20.498C404.756 23.189 406.481 26.846 406.481 30.986C406.481 37.058 403.169 42.647 397.787 45.545C393.164 48.029 388.817 48.926 379.778 49.271L378.122 38.162C386.402 38.024 387.368 37.955 389.3 37.265C391.715 36.368 392.957 34.781 392.957 32.504C392.957 30.71 392.06 28.709 390.956 28.088C390.404 27.743 388.058 27.191 387.368 27.191L371.084 27.536L376.328 63.83H363.632ZM422.282 61.07V50.927H436.772C444.983 50.927 450.986 49.754 454.643 47.546C457.679 45.614 459.68 41.405 459.68 36.782C459.68 33.332 458.231 29.606 456.161 27.743C454.919 26.639 453.401 25.88 451.676 25.604C451.4 25.604 444.776 25.259 444.155 25.328L417.314 25.604V15.116L444.293 14.84H445.397C456.851 14.84 461.543 16.22 465.821 20.912C469.616 24.983 471.686 30.641 471.686 36.851C471.686 44.441 468.167 51.686 462.509 55.826C457.334 59.621 450.158 61.07 436.772 61.07H422.282ZM527.507 62.243C517.847 62.243 511.292 61.001 506.255 58.103C500.666 54.998 497.561 49.064 497.561 41.681C497.561 36.851 498.941 32.228 501.701 27.95C504.392 23.741 506.876 21.395 512.672 17.393L485.486 17.876V5.801L540.548 5.525V16.496C538.547 17.186 536.615 17.807 534.752 18.428C524.471 21.74 520.055 24.155 515.639 29.054C512.396 32.642 510.74 36.506 510.74 40.508C510.74 43.613 512.258 46.787 514.397 48.029C516.95 49.547 521.504 50.375 527.714 50.375C529.784 50.375 533.441 50.168 537.512 49.892V61.967C533.441 62.174 529.646 62.243 527.507 62.243ZM584.501 63.071C590.09 55.205 591.884 51.272 593.885 42.095C589.124 40.715 587.33 40.301 582.5 39.818C578.636 54.791 573.53 60.656 564.56 60.656C560.42 60.656 557.453 59.483 555.176 57.068C552.761 54.377 551.381 50.72 551.381 46.787C551.381 42.302 553.52 37.817 557.315 34.436C561.317 30.848 566.63 28.916 573.737 28.571C574.979 23.12 575.324 20.843 575.531 15.806H558.557V4.697H588.503C587.951 13.598 586.778 21.809 584.984 29.123C590.021 29.951 590.78 30.089 595.679 31.124C596.162 27.398 596.3 25.742 596.3 21.878C596.3 20.774 596.231 18.566 596.162 16.013H607.892C607.478 25.535 607.34 28.088 606.65 34.643L614.033 37.058V50.03L604.925 45.959C603.062 52.997 600.992 58.31 598.232 63.071H584.501ZM564.698 50.237C566.423 50.237 567.941 48.512 569.183 45.131C569.804 43.475 570.494 41.336 570.839 40.094L571.115 38.99C568.01 39.197 566.699 39.818 564.698 41.819C563.111 43.406 562.283 45.131 562.283 46.856C562.283 48.65 563.387 50.237 564.698 50.237ZM622.313 62.174C626.66 45.89 627.488 41.681 629.972 21.464L621.071 21.809V10.286L631.007 10.424L631.628 2.696H644.186L643.22 10.286L652.19 10.079V15.944H679.238V27.398H650.741V21.464H642.185C638.804 44.441 636.596 56.516 634.733 62.174H622.313ZM666.404 62.105C658.055 62.105 653.294 61.277 650.051 59.276C646.808 57.206 644.945 53.204 644.945 48.236C644.945 44.51 645.773 41.819 648.257 37.265H659.711C657.296 41.336 656.468 43.613 656.468 45.959C656.468 49.892 659.504 51.203 668.198 51.203C670.061 51.203 674.27 50.858 680.894 50.237V61.622C673.58 61.967 670.13 62.105 666.404 62.105ZM703.043 61.76C699.731 61.76 696.833 60.449 695.108 58.103C693.245 55.619 692.693 53.204 692.693 47.201V5.663H704.906V37.61C704.906 45.614 704.975 45.959 705.527 46.58C706.079 47.201 706.631 47.408 707.528 47.408C708.977 47.408 712.289 45.89 719.258 41.957V56.033C708.701 60.863 706.148 61.76 703.043 61.76ZM736.508 59.207V34.643C736.439 27.398 735.887 24.707 734.162 23.189C733.127 22.361 732.023 22.016 730.16 21.947H723.605V9.527C736.784 9.665 739.406 10.286 743.477 13.736C748.1 18.221 749.066 21.119 749.066 33.332V59.207H736.508ZM759.002 64.934V55.826H772.664V7.457H781.772V64.934H759.002ZM34.709 132.959L32.156 123.644L2.693 124.058V113.087L29.396 112.811L27.326 105.773L4.97 106.187V95.768L24.29 95.63L22.289 89.144H34.778L36.71 95.423L55.754 95.078V105.359L39.539 105.635L41.678 112.535L58.307 112.328V123.23L44.576 123.437L47.129 132.959H34.709ZM32.018 150.278C21.875 150.278 16.355 149.726 12.284 148.277C7.592 146.552 4.349 142.205 4.349 137.72C4.349 134.822 5.729 130.889 7.73 128.405H19.184C17.183 133.511 17.114 133.718 17.114 135.167C17.114 137.858 20.771 139.169 28.361 139.169C36.158 139.169 43.679 138.686 55.616 137.513V149.174C44.783 150.002 39.263 150.278 32.018 150.278ZM77.282 148.07V137.927H91.772C99.983 137.927 105.986 136.754 109.643 134.546C112.679 132.614 114.68 128.405 114.68 123.782C114.68 120.332 113.231 116.606 111.161 114.743C109.919 113.639 108.401 112.88 106.676 112.604C106.4 112.604 99.776 112.259 99.155 112.328L72.314 112.604V102.116L99.293 101.84H100.397C111.851 101.84 116.543 103.22 120.821 107.912C124.616 111.983 126.686 117.641 126.686 123.851C126.686 131.441 123.167 138.686 117.509 142.826C112.334 146.621 105.158 148.07 91.772 148.07H77.282ZM172.019 149.381C158.909 149.381 153.941 148.76 149.318 146.621C142.97 143.654 139.244 137.582 139.244 130.268C139.244 124.196 141.866 118.676 146.627 114.674C150.215 111.638 153.734 110.189 162.014 108.533L161.393 89.006H174.848L174.572 106.946C182.3 106.394 185.75 106.256 194.996 106.187V117.848C182.852 117.848 170.639 118.4 164.705 119.228C157.529 120.125 152.63 124.403 152.63 129.854C152.63 133.58 154.769 136.202 158.426 137.03C160.22 137.444 165.257 137.72 171.467 137.72C175.055 137.72 182.576 137.375 195.134 136.685V148.898C184.922 149.243 179.333 149.381 172.019 149.381ZM234.809 150.071V118.055C233.291 119.849 233.084 120.125 231.221 121.643V108.533H205.139V100.115H231.98V106.187C235.775 100.46 237.155 97.493 239.846 88.937H250.61C249.299 92.663 249.092 93.215 247.643 96.527H251.852C253.094 93.146 253.232 92.594 254.198 88.937H264.962C263.927 92.525 263.72 93.077 262.547 96.527H268.964V105.497H261.305V110.534H267.653V119.504H261.305V125.507H267.653V134.546H261.305V140.687H268.964V150.071H234.809ZM207.761 98.459V90.179H229.22V98.459H207.761ZM245.09 110.534H251.438V105.497H245.09V110.534ZM207.761 118.124V110.534H229.151V118.124H207.761ZM245.09 125.507H251.438V119.504H245.09V125.507ZM207.761 127.646V119.78H229.151V127.646H207.761ZM207.761 150.209V129.716H229.427V145.241C229.427 148.898 228.116 150.14 224.114 150.209H207.761ZM245.09 140.687H251.438V134.546H245.09V140.687ZM216.524 141.239H220.595V137.306H216.524V141.239ZM301.118 149.588C300.152 149.588 298.772 149.588 297.116 149.519V138.065C298.358 138.134 300.29 138.134 300.566 138.134C304.223 138.134 305.534 137.306 306.224 134.615C306.638 133.097 307.052 128.681 307.052 125.438C307.052 122.816 306.707 118.814 306.362 117.779C305.879 116.261 304.223 115.157 302.36 115.157H298.634C295.184 132.959 293.39 139.79 289.871 149.243H276.968C281.66 137.789 284.972 126.818 287.111 115.226L277.037 115.709V103.496H289.043C289.526 99.701 289.733 97.01 290.009 90.593H301.946C301.67 95.216 301.463 97.7 300.635 103.496H307.121C312.02 103.496 316.022 105.704 317.54 109.292C318.92 112.397 319.61 117.848 319.61 124.955C319.61 133.649 318.92 138.893 317.264 142.343C314.987 147.173 309.605 149.588 301.118 149.588ZM325.268 134.063C325.475 129.302 325.544 126.956 325.544 124.196C325.544 115.088 325.061 111.224 323.405 106.946C322.094 103.565 320.921 101.288 318.989 98.39H330.995C334.721 102.599 335.963 105.842 336.998 113.639C337.481 117.089 337.688 121.436 337.688 126.611C337.688 128.336 337.619 130.199 337.55 134.063H325.268ZM452.228 145.103V87.626H474.998V96.734H461.336V145.103H452.228ZM519.503 100.391C516.743 94.457 516.467 93.836 513.776 89.075H526.127C529.853 94.94 530.543 96.182 532.268 100.391H519.503ZM501.632 150.83L496.733 115.019L482.45 115.778V104.807L495.077 104.462L492.938 89.696H505.841L507.773 104.048L524.057 103.703H525.092C532.199 103.703 536.477 104.807 539.651 107.498C542.756 110.189 544.481 113.846 544.481 117.986C544.481 124.058 541.169 129.647 535.787 132.545C531.164 135.029 526.817 135.926 517.778 136.271L516.122 125.162C524.402 125.024 525.368 124.955 527.3 124.265C529.715 123.368 530.957 121.781 530.957 119.504C530.957 117.71 530.06 115.709 528.956 115.088C528.404 114.743 526.058 114.191 525.368 114.191L509.084 114.536L514.328 150.83H501.632ZM560.282 148.07V137.927H574.772C582.983 137.927 588.986 136.754 592.643 134.546C595.679 132.614 597.68 128.405 597.68 123.782C597.68 120.332 596.231 116.606 594.161 114.743C592.919 113.639 591.401 112.88 589.676 112.604C589.4 112.604 582.776 112.259 582.155 112.328L555.314 112.604V102.116L582.293 101.84H583.397C594.851 101.84 599.543 103.22 603.821 107.912C607.616 111.983 609.686 117.641 609.686 123.851C609.686 131.441 606.167 138.686 600.509 142.826C595.334 146.621 588.158 148.07 574.772 148.07H560.282ZM665.507 149.243C655.847 149.243 649.292 148.001 644.255 145.103C638.666 141.998 635.561 136.064 635.561 128.681C635.561 123.851 636.941 119.228 639.701 114.95C642.392 110.741 644.876 108.395 650.672 104.393L623.486 104.876V92.801L678.548 92.525V103.496C676.547 104.186 674.615 104.807 672.752 105.428C662.471 108.74 658.055 111.155 653.639 116.054C650.396 119.642 648.74 123.506 648.74 127.508C648.74 130.613 650.258 133.787 652.397 135.029C654.95 136.547 659.504 137.375 665.714 137.375C667.784 137.375 671.441 137.168 675.512 136.892V148.967C671.441 149.174 667.646 149.243 665.507 149.243ZM692.9 149.657C692.141 141.239 691.934 137.03 691.934 129.302C691.934 117.917 692.9 105.428 694.97 90.731H706.7C704.561 102.53 703.319 115.847 703.319 127.784C703.319 132.062 703.388 133.028 704.492 149.657H692.9ZM725.123 150.485C721.19 150.485 717.326 149.657 714.773 148.277C711.047 146.207 708.218 141.239 708.218 136.685C708.218 129.164 714.083 124.472 723.605 124.472C724.157 124.472 726.089 124.541 727.538 124.679V118.124H709.46V107.429H727.538V101.081H709.874V90.869H748.997V101.081H739.268V107.429H749.135V118.124H739.268V127.922C743.546 129.44 745.547 130.406 750.308 133.235V146.966C745.34 143.309 743.684 142.343 738.923 140.135C738.509 143.516 737.819 145.103 736.163 146.69C733.541 149.312 730.091 150.485 725.123 150.485ZM723.467 140.48C725.813 140.48 727.607 138.962 727.607 137.03C727.607 135.512 726.227 134.684 723.674 134.684C720.983 134.684 719.672 135.581 719.672 137.513C719.672 139.376 721.121 140.48 723.467 140.48ZM786.74 151.244C776.528 151.244 769.628 147.863 766.73 141.446C765.557 138.893 765.005 133.442 765.005 124.472L765.212 89.282H777.632L777.356 124.265L777.287 126.749V128.405C777.287 132.89 777.701 135.374 778.736 136.823C779.978 138.479 782.876 139.376 787.016 139.376C792.812 139.376 797.504 137.444 800.609 133.718C803.783 129.854 805.094 124.748 805.508 114.743H818.342C816.893 130.475 815.168 136.478 810.338 142.067C805.508 147.725 796.4 151.244 786.74 151.244ZM841.043 148.76C837.731 148.76 834.833 147.449 833.108 145.103C831.245 142.619 830.693 140.204 830.693 134.201V92.663H842.906V124.61C842.906 132.614 842.975 132.959 843.527 133.58C844.079 134.201 844.631 134.408 845.528 134.408C846.977 134.408 850.289 132.89 857.258 128.957V143.033C846.701 147.863 844.148 148.76 841.043 148.76ZM874.508 146.207V121.643C874.439 114.398 873.887 111.707 872.162 110.189C871.127 109.361 870.023 109.016 868.16 108.947H861.605V96.527C874.784 96.665 877.406 97.286 881.477 100.736C886.1 105.221 887.066 108.119 887.066 120.332V146.207H874.508ZM897.002 151.934V142.826H910.664V94.457H919.772V151.934H897.002Z" fill="#C71B21"/>
<path d="M239.156 62.795V51.686C245.78 51.479 248.816 50.444 251.3 47.339C253.784 44.372 255.302 38.645 255.302 32.435C255.302 27.053 254.129 22.499 251.99 19.325C250.541 17.186 248.816 16.22 245.09 15.668C242.399 32.849 241.502 37.541 239.294 44.993C237.431 51.272 235.637 54.791 233.084 57.068C230.807 59.138 227.909 60.38 225.218 60.38C220.733 60.38 215.558 57.551 212.384 53.48C209.141 49.202 207.14 42.164 207.14 34.781C207.14 28.019 208.727 21.602 211.763 16.703C217.007 8.009 225.977 3.731 238.811 3.731C257.648 3.731 267.239 13.46 267.239 32.573C267.239 43.475 263.72 52.652 257.717 57.551C253.232 61.208 247.781 62.795 239.777 62.795H239.156ZM224.183 46.718C225.839 46.718 227.15 45.407 227.978 42.923C229.427 38.369 231.911 25.742 233.36 15.047C228.53 15.806 226.184 16.841 223.769 19.463C220.595 22.913 218.732 28.709 218.732 35.057C218.732 41.957 220.94 46.718 224.183 46.718ZM862.916 63.14C853.187 63.14 846.287 57.827 846.287 50.306C846.287 45.821 848.84 41.198 852.497 39.197C854.705 38.024 858.293 37.265 861.881 37.265C862.64 37.265 863.813 37.334 865.331 37.472V24.086H847.391V13.46H865.331V2.42H876.854V13.115H887.825V24.086H876.992V27.743L877.061 36.782L877.13 40.232C884.444 42.992 885.686 43.475 889.136 45.407V58.586C884.306 55.136 881.684 53.618 877.199 51.686C876.992 55.067 876.44 56.654 875.129 58.379C872.576 61.415 868.298 63.14 862.916 63.14ZM830.141 62.312C829.451 54.308 829.313 51.134 829.313 43.061C829.313 27.536 829.727 21.809 832.142 2.834H843.734C841.457 19.877 840.767 27.743 840.767 36.851C840.767 51.617 840.905 54.308 842.009 62.312H830.141ZM860.915 53.135C864.158 53.135 865.745 52.031 865.745 49.754C865.745 47.753 864.158 46.58 861.398 46.58C858.983 46.58 857.465 47.822 857.465 49.823C857.465 51.824 858.845 53.135 860.915 53.135ZM904.247 62.519L903.212 59.897C899.555 50.513 899.417 50.237 897.14 45.2H909.836C912.803 50.651 914.666 54.929 917.426 62.519H904.247ZM377.156 149.795V138.686C383.78 138.479 386.816 137.444 389.3 134.339C391.784 131.372 393.302 125.645 393.302 119.435C393.302 114.053 392.129 109.499 389.99 106.325C388.541 104.186 386.816 103.22 383.09 102.668C380.399 119.849 379.502 124.541 377.294 131.993C375.431 138.272 373.637 141.791 371.084 144.068C368.807 146.138 365.909 147.38 363.218 147.38C358.733 147.38 353.558 144.551 350.384 140.48C347.141 136.202 345.14 129.164 345.14 121.781C345.14 115.019 346.727 108.602 349.763 103.703C355.007 95.009 363.977 90.731 376.811 90.731C395.648 90.731 405.239 100.46 405.239 119.573C405.239 130.475 401.72 139.652 395.717 144.551C391.232 148.208 385.781 149.795 377.777 149.795H377.156ZM362.183 133.718C363.839 133.718 365.15 132.407 365.978 129.923C367.427 125.369 369.911 112.742 371.36 102.047C366.53 102.806 364.184 103.841 361.769 106.463C358.595 109.913 356.732 115.709 356.732 122.057C356.732 128.957 358.94 133.718 362.183 133.718Z" fill="#333333"/>
</svg>
