<svg width="705" height="60" viewBox="0 0 705 60" fill="none" xmlns="http://www.w3.org/2000/svg">
<g clip-path="url(#clip0_98_133)">
<path d="M0.5 38.0548L0.5 21.9448L13.64 30.0048L0.5 38.0548Z" fill="#EEEEEE" fill-opacity="0.929412"/>
<path d="M27.2109 38.0548L27.2109 21.9448L40.3609 30.0048L27.2109 38.0548Z" fill="#EEEEEE" fill-opacity="0.929412"/>
<path d="M53.9297 38.0548V21.9448L67.0697 30.0048L53.9297 38.0548Z" fill="#EEEEEE" fill-opacity="0.929412"/>
<path d="M80.6406 38.0548V21.9448L93.7906 30.0048L80.6406 38.0548Z" fill="#EEEEEE" fill-opacity="0.929412"/>
<path d="M107.359 38.0548V21.9448L120.499 30.0048L107.359 38.0548Z" fill="#EEEEEE" fill-opacity="0.929412"/>
</g>
<path d="M197.556 58.288C196.98 58.288 196.404 58.288 195.508 58.224V47.6C201.012 47.472 202.996 47.024 204.852 45.488C206.644 43.888 207.732 41.52 207.732 38.96C207.732 37.488 207.284 36.016 206.644 35.12C204.468 32.304 199.732 30.32 195.252 30.32C194.612 30.32 193.268 30.448 191.796 30.64V45.744C191.796 50.16 191.348 52.784 190.324 54.704C189.172 56.88 186.356 58.032 182.388 58.032C171.188 58.032 164.02 51.504 164.02 41.328C164.02 35.632 166.644 30.512 171.7 26.416C174.068 24.496 175.988 23.536 181.684 21.488L181.556 17.264H167.348V7.024H181.428V1.072H192.372V7.024H203.38V17.2H192.372V20.528C193.972 20.464 195.316 20.4 196.02 20.4C210.676 20.4 219.892 27.696 219.892 39.152C219.892 44.976 217.652 49.84 213.62 53.04C209.396 56.304 203.38 58.288 197.556 58.288ZM208.884 17.52C207.156 11.632 206.836 10.736 204.276 4.592H214.836C217.844 10.928 218.42 12.528 219.636 17.52H208.884ZM179.444 46.768C180.852 46.768 181.236 45.936 181.236 42.928V32.688C178.996 33.456 177.972 34.032 177.012 35.184C175.668 36.784 174.772 39.152 174.772 41.136C174.772 44.144 176.948 46.768 179.444 46.768ZM237.62 58.288V47.984H247.924C255.412 47.984 256.884 46.96 257.396 41.456C254.004 43.056 252.148 43.504 249.204 43.504C242.1 43.504 236.788 38.64 236.788 32.112C236.788 28.784 238.196 25.84 241.076 23.344C243.828 20.976 246.644 20.016 251.06 20.016C252.98 20.016 254.26 20.208 256.884 20.784V17.392L228.788 17.712V7.856L256.884 7.664V1.008H268.276V7.472L283.188 7.28V17.264L268.276 17.392V41.648C268.34 46.768 267.316 49.968 264.436 53.296C260.724 57.136 257.332 58.288 249.524 58.288H237.62ZM251.764 34.736C254.644 34.736 256.564 33.392 256.564 31.408C256.564 29.744 254.708 28.592 252.084 28.592C249.588 28.592 247.348 30.128 247.348 31.792C247.348 33.52 249.14 34.736 251.764 34.736ZM301.62 58.288V47.984H311.924C319.412 47.984 320.884 46.96 321.396 41.456C318.004 43.056 316.148 43.504 313.204 43.504C306.1 43.504 300.788 38.64 300.788 32.112C300.788 28.784 302.196 25.84 305.076 23.344C307.828 20.976 310.644 20.016 315.06 20.016C316.98 20.016 318.26 20.208 320.884 20.784V17.392L292.788 17.712V7.856L320.884 7.664V1.008H332.276V7.472L347.188 7.28V17.264L332.276 17.392V41.648C332.34 46.768 331.316 49.968 328.436 53.296C324.724 57.136 321.332 58.288 313.524 58.288H301.62ZM315.764 34.736C318.644 34.736 320.564 33.392 320.564 31.408C320.564 29.744 318.708 28.592 316.084 28.592C313.588 28.592 311.348 30.128 311.348 31.792C311.348 33.52 313.14 34.736 315.764 34.736ZM387.956 58.928C387.636 58.928 387.124 58.928 386.484 58.864V49.264C392.564 48.496 395.316 47.664 397.556 46.192C400.18 44.336 401.78 40.112 401.78 34.928C401.78 31.792 401.14 28.592 399.924 26.16C399.22 24.624 398.58 23.856 396.788 22.32C393.78 32.496 391.156 39.472 388.596 44.272C383.924 52.976 378.548 56.944 371.572 56.944C365.94 56.944 361.716 54.192 358.836 48.688C356.788 44.784 355.636 40.112 355.636 35.824C355.636 31.6 356.66 27.184 358.516 23.536C360.372 20.016 362.1 18.032 366.196 15.024C365.044 9.968 364.532 7.344 363.828 2.352L374.644 1.84C375.028 5.04 375.22 6.576 375.988 10.544C382.068 9.456 382.58 9.392 388.34 9.264L389.62 2.352H401.076L399.156 11.76C403.636 14.064 405.684 15.536 407.796 18.224C410.996 22.256 412.788 28.272 412.788 35.056C412.788 44.784 408.948 51.696 401.332 55.856C397.556 57.904 393.076 58.928 387.956 58.928ZM382.772 31.856C384.628 27.12 385.716 23.216 386.356 19.248C382.068 19.248 380.916 19.376 378.356 20.336C380.34 27.312 380.98 28.976 382.772 31.856ZM372.404 45.36C374.004 45.36 374.964 44.72 376.308 42.736C372.468 35.056 371.252 32.24 369.204 26.608C367.54 28.4 367.156 28.976 366.644 30.896C366.26 32.432 366.068 33.904 366.068 35.312C366.068 37.808 366.836 40.88 367.924 42.736C368.82 44.336 370.612 45.36 372.404 45.36ZM454.132 50.736C454.132 55.856 451.572 58.416 446.452 58.416H435.06V49.008H442.868V39.984C438.9 44.528 427.892 51.952 419.06 55.664V43.824C424.052 41.904 430.26 38.448 436.276 34.032C430.516 32.176 424.884 30.768 420.852 29.872V20.208C428.724 21.68 433.972 22.96 437.684 24.176V32.944C439.476 31.536 441.204 30.128 442.868 28.592V17.264H420.852V7.856H442.868V0.303997H454.132V7.856H462.26L458.996 1.264H470.452L473.14 7.856H476.276V17.264H454.132V21.232H458.484C458.804 23.664 458.932 24.432 459.636 26.8C465.396 25.008 470.516 23.152 476.276 20.72V31.024C472.756 32.112 466.804 33.904 463.092 34.992C467.316 39.664 470.26 41.584 477.94 44.464V55.856C471.476 54 467.508 52.08 463.092 48.752C458.932 45.616 456.692 42.928 454.132 38V50.736ZM541.62 57.84C535.732 56.176 531.06 53.488 525.428 48.56C518.836 42.544 516.084 38.32 512.692 28.848C508.212 43.248 497.908 53.36 483.188 57.776V45.168C491.444 42.544 497.396 36.976 502.068 27.696C504.884 21.872 506.292 14.256 506.292 4.528V0.687996H517.62V4.592C517.684 14.576 519.668 22.832 523.636 29.744C527.284 36.336 535.86 43.76 541.62 45.424V57.84Z" fill="#C71B21"/>
<g clip-path="url(#clip1_98_133)">
<path d="M584.5 38.0548V21.9448L597.64 30.0048L584.5 38.0548Z" fill="#EEEEEE" fill-opacity="0.929412"/>
<path d="M611.211 38.0548V21.9448L624.361 30.0048L611.211 38.0548Z" fill="#EEEEEE" fill-opacity="0.929412"/>
<path d="M637.93 38.0548V21.9448L651.07 30.0048L637.93 38.0548Z" fill="#EEEEEE" fill-opacity="0.929412"/>
<path d="M664.641 38.0548V21.9448L677.791 30.0048L664.641 38.0548Z" fill="#EEEEEE" fill-opacity="0.929412"/>
<path d="M691.359 38.0548V21.9448L704.499 30.0048L691.359 38.0548Z" fill="#EEEEEE" fill-opacity="0.929412"/>
</g>
<defs>
<clipPath id="clip0_98_133">
<rect width="120" height="16.11" fill="white" transform="translate(0.5 21.9448)"/>
</clipPath>
<clipPath id="clip1_98_133">
<rect width="120" height="16.11" fill="white" transform="translate(584.5 21.9448)"/>
</clipPath>
</defs>
</svg>
