<svg width="117" height="38" viewBox="0 0 117 38" fill="none" xmlns="http://www.w3.org/2000/svg">
<path d="M2.32 36.44V23.68H13.32L14.12 21.96H4.52V12H0.28V4.32H4.76L2.32 0.52H9.72L12.12 4.32H14.76L12.52 0.52H19.72L22.04 4.32H24.6L26.32 0.52H34.08L31.76 4.32H36.04V12H32V16.84C32.04 20.56 30.56 22.04 26.76 21.96H21.84L20.76 23.68H34.08V31.36C33.92 35.48 32.96 36.44 28.44 36.44H2.32ZM6.72 11.4H29.12V9.48H6.72V11.4ZM11.36 17.64H25.12V15.8H11.36V17.64ZM9 31.24H27.04V28.72H9V31.24ZM54.56 36.84V30.8C50.6 34.32 45.92 36.12 39.84 36.52V30.56C43.84 30.28 47.08 29.32 49.52 27.6H39.84V22.72H54.56V21.24H41.44V17H54.56V15.64H40.44V11.28H47.68L47.08 9.48H39.84V4.72H42.76L40.84 0.799998H47.32L49.04 4.72H50.24V0.199999H56.64V4.72H59.28V0.199999H65.6V4.72H66.92L68.68 0.799998H75.4L73.32 4.72H76.08V9.48H69.12L68.2 11.28H75.28V15.64H61.24V17H74.64V21.24H61.24V22.72H76.08V27.6H66.04C68.92 29.44 72.48 30.48 76.08 30.44V36.44C68.96 35.68 66.16 34.6 61.24 30.64V36.84H54.56ZM55 11.28H60.8L61.92 9.48H54.16L55 11.28ZM116.4 37.52C113.44 36.56 112.32 35.88 110.04 33.68C107.72 35.6 106.4 36.32 103.56 37.16V33.68C102.16 35.12 101.48 35.36 98.32 35.32H93.28V19.04H104.2V30.32C105.36 30 105.56 29.88 106.6 29.04C105.36 26.08 104.64 22.28 104.4 17.68H92.12V36.84H86.76V33.04L79.08 34.28V28.24L80.84 28.12V6.88H79.32V1.4H93.6V4.48H96.2V0.319997H101.44V4.48H104.4V0.319997H109.48V2.96C109.52 5.96 109.56 8.04 109.56 8.96C109.56 9.56 109.6 10.88 109.64 12.44H116.28V17.68H109.68C109.8 20.72 109.92 21.76 110.44 24.08C111.08 22 111.24 21.08 111.44 18.88H116.76C116.44 22.76 115.4 26.2 113.8 29C114.52 29.76 114.92 30 116.4 30.56V37.52ZM111.28 10.28C110.72 6.12 110.6 5.44 110.08 3.12H115.12C115.68 5.36 116 6.84 116.52 10.28H111.28ZM85.52 10.48H87.12V6.88H85.52V10.48ZM92.12 12.6H94.48L93.88 9.48H93V6.88H92.12V12.6ZM98.24 12.6H99.16L99.76 9.48H97.68L98.24 12.6ZM102.84 12.6H104.4V9.48H103.68L102.84 12.6ZM85.52 18.92H87.12V15.28H85.52V18.92ZM97.48 25.12H99.52V23.36H97.48V25.12ZM85.52 27.6L87.12 27.48V23.76H85.52V27.6ZM97.48 30.32H99.52V28.52H97.48V30.32Z" fill="#C71B21"/>
</svg>
