<svg width="932" height="61" viewBox="0 0 932 61" fill="none" xmlns="http://www.w3.org/2000/svg">
<g clip-path="url(#clip0_98_271)">
<path d="M114 38.1139V22.0039L127.14 30.0639L114 38.1139Z" fill="#EEEEEE" fill-opacity="0.929412"/>
<path d="M140.711 38.1139V22.0039L153.861 30.0639L140.711 38.1139Z" fill="#EEEEEE" fill-opacity="0.929412"/>
<path d="M167.43 38.1139V22.0039L180.57 30.0639L167.43 38.1139Z" fill="#EEEEEE" fill-opacity="0.929412"/>
<path d="M194.141 38.1139V22.0039L207.291 30.0639L194.141 38.1139Z" fill="#EEEEEE" fill-opacity="0.929412"/>
<path d="M220.859 38.1139V22.0039L233.999 30.0639L220.859 38.1139Z" fill="#EEEEEE" fill-opacity="0.929412"/>
</g>
<path d="M311.056 58.3466C310.48 58.3466 309.904 58.3466 309.008 58.2826V47.6586C314.512 47.5306 316.496 47.0826 318.352 45.5466C320.144 43.9466 321.232 41.5786 321.232 39.0186C321.232 37.5466 320.784 36.0746 320.144 35.1786C317.968 32.3626 313.232 30.3786 308.752 30.3786C308.112 30.3786 306.768 30.5066 305.296 30.6986V45.8026C305.296 50.2186 304.848 52.8426 303.824 54.7626C302.672 56.9386 299.856 58.0906 295.888 58.0906C284.688 58.0906 277.52 51.5626 277.52 41.3866C277.52 35.6906 280.144 30.5706 285.2 26.4746C287.568 24.5546 289.488 23.5946 295.184 21.5466L295.056 17.3226H280.848V7.08259H294.928V1.13059H305.872V7.08259H316.88V17.2586H305.872V20.5866C307.472 20.5226 308.816 20.4586 309.52 20.4586C324.176 20.4586 333.392 27.7546 333.392 39.2106C333.392 45.0346 331.152 49.8986 327.12 53.0986C322.896 56.3626 316.88 58.3466 311.056 58.3466ZM322.384 17.5786C320.656 11.6906 320.336 10.7946 317.776 4.65059H328.336C331.344 10.9866 331.92 12.5866 333.136 17.5786H322.384ZM292.944 46.8266C294.352 46.8266 294.736 45.9946 294.736 42.9866V32.7466C292.496 33.5146 291.472 34.0906 290.512 35.2426C289.168 36.8426 288.272 39.2106 288.272 41.1946C288.272 44.2026 290.448 46.8266 292.944 46.8266ZM345.232 58.2826V38.5066C343.568 40.1706 342.608 40.9386 340.304 42.5386V28.9706C345.488 26.2826 349.712 21.2906 351.696 15.4026C347.344 19.1146 345.744 20.1386 340.56 22.4426V11.3706C345.552 8.42659 349.072 4.52259 350.224 0.74659H361.552C360.464 5.09859 358.032 9.19459 354.128 13.4826H363.344C362.832 15.4666 362.704 15.7226 362.064 17.4506C364.752 16.2346 365.328 14.9546 365.456 10.4746V1.70659H391.824V15.2746H393.68C396.24 15.1466 396.816 14.8906 398.8 12.8426V23.0826C396.88 25.0026 395.664 25.3866 390.992 25.5146H388.176C382.992 25.3226 381.648 24.2986 381.52 20.4586V10.3466H375.696C375.632 21.1626 371.28 26.1546 361.552 26.3466V18.7306C360.4 21.8026 357.712 26.4746 355.856 28.5866V58.2826H345.232ZM359.696 58.8586V49.0666C362.832 48.8746 367.248 47.7226 370.704 46.0586C367.44 42.6026 366.16 40.5546 364.368 36.2666H360.976V27.3066H396.88V34.1546C394.512 38.5066 391.12 42.7946 387.344 46.0586C391.184 47.4666 394.256 48.1066 399.056 48.4906V58.8586C391.696 58.2826 384.144 55.9146 378.704 52.3946C372.944 56.0426 366.544 58.2186 359.696 58.8586ZM378.832 40.4906C380.752 38.8906 381.328 38.2506 382.928 36.2666H374.928C376.144 38.1866 376.464 38.5706 378.832 40.4906ZM404.88 57.1306V46.6346H416.592L411.92 18.1546H406.544V7.97859H428.176V0.10659H440.08V7.97859H460.56V18.1546H455.248L449.424 46.6346H462.224V57.1306H404.88ZM427.728 46.6346H438.544L443.664 18.1546H423.696L427.728 46.6346ZM477.2 58.0266V47.7226H496.08C501.584 47.7226 506.256 47.2106 508.432 46.2506C510.736 45.2906 512.848 42.2186 512.848 39.7226C512.848 36.0746 509.776 33.2586 505.744 33.2586C502.416 33.2586 498.448 34.3466 495.248 36.1386C492.944 37.4186 491.536 38.8906 489.36 42.2826H477.712L484.112 18.6026H471.888V8.61859H486.672L488.144 1.96259H500.176L498.256 8.61859H524.496V18.6026H495.376L492.752 28.5866C495.376 26.6026 496.528 25.9626 498.704 25.1946C501.648 24.1066 504.784 23.5306 507.6 23.5306C517.776 23.5306 525.072 30.4426 525.072 40.1706C525.072 47.2106 521.616 52.4586 515.088 55.4026C510.544 57.4506 506.448 58.0266 496.08 58.0266H477.2ZM540.944 59.1146V0.170589H550.608V13.4826L554.896 17.4506V18.7946H568.336V17.1946H556.752V11.4986H568.336V9.51459H555.92V3.24259H568.336V0.42659H578.128V3.24259H590.928V9.51459H578.128V11.4986H589.2V17.1946H578.128V18.7946H591.76V25.3866H554.896V29.9946L550.608 24.7466V59.1146H540.944ZM531.344 32.9386C532.56 29.0346 532.88 26.4106 532.944 19.1786V12.9706H539.728V17.7066C539.728 25.3226 539.344 29.2266 538.448 32.9386H531.344ZM575.632 58.8586V50.4106H579.088V47.9146H566.544V58.4746H556.88V26.7306H589.2V49.9626C589.392 56.3626 587.28 58.6026 580.88 58.8586H575.632ZM566.544 34.8586H579.088V32.7466H566.544V34.8586ZM566.544 42.5386H579.088V40.0426H566.544V42.5386ZM596.176 16.1706H607.44V12.7146H598.224V4.84259H607.44V0.298592H617.04V4.84259H625.296V12.7146H617.04V16.1706H626.384V24.3626H623.824L622.992 29.3546H625.872V37.9306H617.04V40.8746H625.296V49.1946H617.04V59.1786H607.44V49.1946H598.224V40.8746H607.44V37.9306H596.752V29.3546H601.68L600.208 24.3626H596.176V16.1706ZM627.792 1.64259H654.096V14.8266C654.096 20.1386 652.112 21.7386 645.648 21.7386H640.016V13.9946H644.496V10.0906H637.328V24.4266H654.8C654.736 35.3706 653.584 40.1066 651.472 45.0346C652.624 46.2506 654.288 47.4666 655.44 47.9146V58.9226C651.728 57.3866 650.128 56.3626 646.608 53.1626C644.432 55.9146 641.232 57.8986 638.48 58.8586V48.2986C639.376 47.6586 640.464 46.6346 640.976 45.9306C639.76 44.0746 638.288 40.8106 637.328 37.2266V59.1786H627.792V1.64259ZM610.512 29.3546H613.968L614.8 24.3626H609.68L610.512 29.3546ZM646.672 32.1706H643.152C643.728 34.0906 644.496 36.3306 645.52 38.6346C646.096 36.3306 646.544 34.0906 646.672 32.1706Z" fill="#C71B21"/>
<g clip-path="url(#clip1_98_271)">
<path d="M698 38.1139V22.0039L711.14 30.0639L698 38.1139Z" fill="#EEEEEE" fill-opacity="0.929412"/>
<path d="M724.711 38.1139V22.0039L737.861 30.0639L724.711 38.1139Z" fill="#EEEEEE" fill-opacity="0.929412"/>
<path d="M751.43 38.1139V22.0039L764.57 30.0639L751.43 38.1139Z" fill="#EEEEEE" fill-opacity="0.929412"/>
<path d="M778.141 38.1139V22.0039L791.291 30.0639L778.141 38.1139Z" fill="#EEEEEE" fill-opacity="0.929412"/>
<path d="M804.859 38.1139V22.0039L817.999 30.0639L804.859 38.1139Z" fill="#EEEEEE" fill-opacity="0.929412"/>
</g>
<defs>
<clipPath id="clip0_98_271">
<rect width="120" height="16.11" fill="white" transform="translate(114 22.0039)"/>
</clipPath>
<clipPath id="clip1_98_271">
<rect width="120" height="16.11" fill="white" transform="translate(698 22.0039)"/>
</clipPath>
</defs>
</svg>
