<svg width="297" height="26" viewBox="0 0 297 26" fill="none" xmlns="http://www.w3.org/2000/svg">
<g clip-path="url(#clip0_283_28342)">
<path d="M0.523438 17L0.523438 9L7.09344 13.0025L0.523438 17Z" fill="white"/>
<path d="M13.8789 17L13.8789 9L20.4539 13.0025L13.8789 17Z" fill="white"/>
<path d="M27.2383 17V9L33.8083 13.0025L27.2383 17Z" fill="white"/>
<path d="M40.5938 17V9L47.1688 13.0025L40.5938 17Z" fill="white"/>
<path d="M53.9531 17V9L60.5231 13.0025L53.9531 17Z" fill="white"/>
</g>
<path d="M192.41 8.43884H196.224V7.26875H193.104V4.60352H196.224V3.06506H199.474V4.60352H202.269V7.26875H199.474V8.43884H202.638V11.2124H201.771L201.489 12.9025H202.464V15.8061H199.474V16.8029H202.269V19.6198H199.474V23.0001H196.224V19.6198H193.104V16.8029H196.224V15.8061H192.605V12.9025H194.274L193.775 11.2124H192.41V8.43884ZM203.114 3.5201H212.02V7.9838C212.02 9.78229 211.348 10.324 209.16 10.324H207.253V7.70211H208.77V6.38034H206.343V11.2341H212.258C212.237 14.9394 211.847 16.5428 211.132 18.2113C211.522 18.623 212.085 19.0347 212.475 19.1864V22.9134C211.218 22.3933 210.677 22.0466 209.485 20.9632C208.748 21.895 207.665 22.5667 206.733 22.8917V19.3164C207.036 19.0997 207.405 18.753 207.578 18.5147C207.166 17.8863 206.668 16.7812 206.343 15.5678V23.0001H203.114V3.5201ZM197.264 12.9025H198.434L198.716 11.2124H196.982L197.264 12.9025ZM209.507 13.856H208.315C208.51 14.506 208.77 15.2644 209.117 16.0445C209.312 15.2644 209.463 14.506 209.507 13.856Z" fill="white"/>
<path d="M173.711 22.9783V3.02161H176.983V7.52865L178.435 8.87209V9.32713H182.985V8.78542H179.063V6.85693H182.985V6.1852H178.782V4.06169H182.985V3.10828H186.301V4.06169H190.634V6.1852H186.301V6.85693H190.049V8.78542H186.301V9.32713H190.916V11.559H178.435V13.1191L176.983 11.3423V22.9783H173.711ZM170.461 14.1159C170.873 12.7941 170.981 11.9057 171.003 9.45714V7.3553H173.3V8.95877C173.3 11.5373 173.169 12.8591 172.866 14.1159H170.461ZM185.456 22.8916V20.0314H186.626V19.1863H182.379V22.7616H179.107V12.014H190.049V19.8797C190.114 22.0465 189.399 22.8049 187.232 22.8916H185.456ZM182.379 14.7659H186.626V14.0509H182.379V14.7659ZM182.379 17.3661H186.626V16.5211H182.379V17.3661Z" fill="white"/>
<path d="M152.129 22.61V19.1214H158.521C160.384 19.1214 161.966 18.948 162.703 18.623C163.483 18.298 164.198 17.2579 164.198 16.4128C164.198 15.1777 163.158 14.2243 161.793 14.2243C160.666 14.2243 159.322 14.5927 158.239 15.1994C157.459 15.6327 156.982 16.1311 156.246 17.2795H152.302L154.469 9.26222H150.33V5.88194H155.335L155.834 3.62842H159.908L159.257 5.88194H168.142V9.26222H158.282L157.394 12.6425C158.282 11.9708 158.672 11.7541 159.409 11.4941C160.406 11.1257 161.468 10.9307 162.421 10.9307C165.866 10.9307 168.337 13.2709 168.337 16.5645C168.337 18.948 167.166 20.7248 164.956 21.7216C163.418 22.415 162.031 22.61 158.521 22.61H152.129Z" fill="white"/>
<path d="M127.645 22.3066V18.753H131.61L130.028 9.11051H128.208V5.66522H135.532V3H139.562V5.66522H146.496V9.11051H144.698L142.726 18.753H147.059V22.3066H127.645ZM135.38 18.753H139.042L140.776 9.11051H134.015L135.38 18.753Z" fill="white"/>
<path d="M107.45 22.6966V16.0011C106.886 16.5645 106.561 16.8245 105.781 17.3662V12.7725C107.536 11.8624 108.967 10.1723 109.638 8.17875C108.165 9.43553 107.623 9.78222 105.868 10.5623V6.81364C107.558 5.81689 108.75 4.49511 109.14 3.21667H112.975C112.607 4.69013 111.783 6.07691 110.462 7.5287H113.582C113.409 8.20042 113.365 8.2871 113.149 8.87214C114.059 8.46044 114.254 8.02708 114.297 6.51028V3.5417H123.224V8.13542H123.853C124.719 8.09208 124.915 8.00541 125.586 7.31202V10.779C124.936 11.429 124.524 11.559 122.943 11.6024H121.989C120.234 11.5374 119.779 11.1907 119.736 9.89056V6.46695H117.764C117.742 10.1289 116.269 11.8191 112.975 11.8841V9.30551C112.585 10.3456 111.675 11.9274 111.047 12.6425V22.6966H107.45ZM112.347 22.8916V19.5764C113.409 19.5114 114.904 19.1213 116.074 18.5579C114.969 17.3879 114.535 16.6945 113.929 15.2427H112.78V12.2091H124.936V14.5276C124.134 16.0011 122.986 17.4529 121.708 18.5579C123.008 19.0347 124.048 19.2513 125.673 19.3814V22.8916C123.181 22.6966 120.624 21.8949 118.782 20.7031C116.832 21.9382 114.665 22.675 112.347 22.8916ZM118.826 16.6728C119.476 16.1311 119.671 15.9144 120.212 15.2427H117.504C117.916 15.8927 118.024 16.0227 118.826 16.6728Z" fill="white"/>
<path d="M95.8777 22.7183C95.6827 22.7183 95.4877 22.7183 95.1843 22.6966V19.0997C97.0478 19.0563 97.7195 18.9046 98.3479 18.3846C98.9546 17.8429 99.323 17.0412 99.323 16.1744C99.323 15.676 99.1713 15.1777 98.9546 14.8743C98.2179 13.9209 96.6144 13.2492 95.0976 13.2492C94.881 13.2492 94.4259 13.2925 93.9276 13.3575V18.4713C93.9276 19.9664 93.7759 20.8548 93.4292 21.5049C93.0391 22.2416 92.0857 22.6316 90.7423 22.6316C86.9503 22.6316 84.5234 20.4214 84.5234 16.9761C84.5234 15.0477 85.4118 13.3142 87.1237 11.9274C87.9254 11.2773 88.5754 10.9523 90.5039 10.2589L90.4606 8.8288H85.6502V5.36185H90.4173V3.34668H94.1226V5.36185H97.8495V8.80713H94.1226V9.93389C94.6643 9.91222 95.1193 9.89056 95.3577 9.89056C100.32 9.89056 103.44 12.3608 103.44 16.2394C103.44 18.2112 102.682 19.8581 101.316 20.9415C99.8864 22.0466 97.8495 22.7183 95.8777 22.7183ZM99.713 8.91547C99.128 6.92198 99.0196 6.61862 98.1529 4.53845H101.728C102.747 6.68362 102.942 7.22534 103.353 8.91547H99.713ZM89.7455 18.818C90.2222 18.818 90.3523 18.5363 90.3523 17.5179V14.0509C89.5939 14.3109 89.2472 14.5059 88.9221 14.896C88.4671 15.4377 88.1637 16.2394 88.1637 16.9111C88.1637 17.9296 88.9005 18.818 89.7455 18.818Z" fill="white"/>
<g clip-path="url(#clip1_283_28342)">
<path d="M236.477 17V9L243.047 13.0025L236.477 17Z" fill="white"/>
<path d="M249.832 17V9L256.407 13.0025L249.832 17Z" fill="white"/>
<path d="M263.191 17V9L269.761 13.0025L263.191 17Z" fill="white"/>
<path d="M276.547 17V9L283.122 13.0025L276.547 17Z" fill="white"/>
<path d="M289.906 17V9L296.476 13.0025L289.906 17Z" fill="white"/>
</g>
<defs>
<clipPath id="clip0_283_28342">
<rect width="60" height="8" fill="white" transform="translate(0.523438 9)"/>
</clipPath>
<clipPath id="clip1_283_28342">
<rect width="60" height="8" fill="white" transform="translate(236.477 9)"/>
</clipPath>
</defs>
</svg>
