<svg width="720" height="65" viewBox="0 0 720 65" fill="none" xmlns="http://www.w3.org/2000/svg">
<g clip-path="url(#clip0_221_17954)">
<path d="M0 40.5549L0 24.4449L13.14 32.5049L0 40.5549Z" fill="white"/>
<path d="M26.71 40.5549L26.71 24.4449L39.86 32.5049L26.71 40.5549Z" fill="white"/>
<path d="M53.43 40.5549V24.4449L66.57 32.5049L53.43 40.5549Z" fill="white"/>
<path d="M80.14 40.5549V24.4449L93.29 32.5049L80.14 40.5549Z" fill="white"/>
<path d="M106.86 40.5549V24.4449L120 32.5049L106.86 40.5549Z" fill="white"/>
</g>
<path d="M205.056 60.788C204.48 60.788 203.904 60.788 203.008 60.724V50.1C208.512 49.972 210.496 49.524 212.352 47.988C214.144 46.388 215.232 44.02 215.232 41.46C215.232 39.988 214.784 38.516 214.144 37.62C211.968 34.804 207.232 32.82 202.752 32.82C202.112 32.82 200.768 32.948 199.296 33.14V48.244C199.296 52.66 198.848 55.284 197.824 57.204C196.672 59.38 193.856 60.532 189.888 60.532C178.688 60.532 171.52 54.004 171.52 43.828C171.52 38.132 174.144 33.012 179.2 28.916C181.568 26.996 183.488 26.036 189.184 23.988L189.056 19.764H174.848V9.524H188.928V3.572H199.872V9.524H210.88V19.7H199.872V23.028C201.472 22.964 202.816 22.9 203.52 22.9C218.176 22.9 227.392 30.196 227.392 41.652C227.392 47.476 225.152 52.34 221.12 55.54C216.896 58.804 210.88 60.788 205.056 60.788ZM216.384 20.02C214.656 14.132 214.336 13.236 211.776 7.092H222.336C225.344 13.428 225.92 15.028 227.136 20.02H216.384ZM186.944 49.268C188.352 49.268 188.736 48.436 188.736 45.428V35.188C186.496 35.956 185.472 36.532 184.512 37.684C183.168 39.284 182.272 41.652 182.272 43.636C182.272 46.644 184.448 49.268 186.944 49.268ZM239.232 60.724V40.948C237.568 42.612 236.608 43.38 234.304 44.98V31.412C239.488 28.724 243.712 23.732 245.696 17.844C241.344 21.556 239.744 22.58 234.56 24.884V13.812C239.552 10.868 243.072 6.964 244.224 3.188H255.552C254.464 7.54 252.032 11.636 248.128 15.924H257.344C256.832 17.908 256.704 18.164 256.064 19.892C258.752 18.676 259.328 17.396 259.456 12.916V4.148H285.824V17.716H287.68C290.24 17.588 290.816 17.332 292.8 15.284V25.524C290.88 27.444 289.664 27.828 284.992 27.956H282.176C276.992 27.764 275.648 26.74 275.52 22.9V12.788H269.696C269.632 23.604 265.28 28.596 255.552 28.788V21.172C254.4 24.244 251.712 28.916 249.856 31.028V60.724H239.232ZM253.696 61.3V51.508C256.832 51.316 261.248 50.164 264.704 48.5C261.44 45.044 260.16 42.996 258.368 38.708H254.976V29.748H290.88V36.596C288.512 40.948 285.12 45.236 281.344 48.5C285.184 49.908 288.256 50.548 293.056 50.932V61.3C285.696 60.724 278.144 58.356 272.704 54.836C266.944 58.484 260.544 60.66 253.696 61.3ZM272.832 42.932C274.752 41.332 275.328 40.692 276.928 38.708H268.928C270.144 40.628 270.464 41.012 272.832 42.932ZM298.88 59.572V49.076H310.592L305.92 20.596H300.544V10.42H322.176V2.548H334.08V10.42H354.56V20.596H349.248L343.424 49.076H356.224V59.572H298.88ZM321.728 49.076H332.544L337.664 20.596H317.696L321.728 49.076ZM371.2 60.468V50.164H390.08C395.584 50.164 400.256 49.652 402.432 48.692C404.736 47.732 406.848 44.66 406.848 42.164C406.848 38.516 403.776 35.7 399.744 35.7C396.416 35.7 392.448 36.788 389.248 38.58C386.944 39.86 385.536 41.332 383.36 44.724H371.712L378.112 21.044H365.888V11.06H380.672L382.144 4.404H394.176L392.256 11.06H418.496V21.044H389.376L386.752 31.028C389.376 29.044 390.528 28.404 392.704 27.636C395.648 26.548 398.784 25.972 401.6 25.972C411.776 25.972 419.072 32.884 419.072 42.612C419.072 49.652 415.616 54.9 409.088 57.844C404.544 59.892 400.448 60.468 390.08 60.468H371.2ZM434.944 61.556V2.612H444.608V15.924L448.896 19.892V21.236H462.336V19.636H450.752V13.94H462.336V11.956H449.92V5.684H462.336V2.868H472.128V5.684H484.928V11.956H472.128V13.94H483.2V19.636H472.128V21.236H485.76V27.828H448.896V32.436L444.608 27.188V61.556H434.944ZM425.344 35.38C426.56 31.476 426.88 28.852 426.944 21.62V15.412H433.728V20.148C433.728 27.764 433.344 31.668 432.448 35.38H425.344ZM469.632 61.3V52.852H473.088V50.356H460.544V60.916H450.88V29.172H483.2V52.404C483.392 58.804 481.28 61.044 474.88 61.3H469.632ZM460.544 37.3H473.088V35.188H460.544V37.3ZM460.544 44.98H473.088V42.484H460.544V44.98ZM490.176 18.612H501.44V15.156H492.224V7.284H501.44V2.74H511.04V7.284H519.296V15.156H511.04V18.612H520.384V26.804H517.824L516.992 31.796H519.872V40.372H511.04V43.316H519.296V51.636H511.04V61.62H501.44V51.636H492.224V43.316H501.44V40.372H490.752V31.796H495.68L494.208 26.804H490.176V18.612ZM521.792 4.084H548.096V17.268C548.096 22.58 546.112 24.18 539.648 24.18H534.016V16.436H538.496V12.532H531.328V26.868H548.8C548.736 37.812 547.584 42.548 545.472 47.476C546.624 48.692 548.288 49.908 549.44 50.356V61.364C545.728 59.828 544.128 58.804 540.608 55.604C538.432 58.356 535.232 60.34 532.48 61.3V50.74C533.376 50.1 534.464 49.076 534.976 48.372C533.76 46.516 532.288 43.252 531.328 39.668V61.62H521.792V4.084ZM504.512 31.796H507.968L508.8 26.804H503.68L504.512 31.796ZM540.672 34.612H537.152C537.728 36.532 538.496 38.772 539.52 41.076C540.096 38.772 540.544 36.532 540.672 34.612Z" fill="white"/>
<g clip-path="url(#clip1_221_17954)">
<path d="M600 40.5549V24.4449L613.14 32.5049L600 40.5549Z" fill="white"/>
<path d="M626.71 40.5549V24.4449L639.86 32.5049L626.71 40.5549Z" fill="white"/>
<path d="M653.43 40.5549V24.4449L666.57 32.5049L653.43 40.5549Z" fill="white"/>
<path d="M680.14 40.5549V24.4449L693.29 32.5049L680.14 40.5549Z" fill="white"/>
<path d="M706.86 40.5549V24.4449L720 32.5049L706.86 40.5549Z" fill="white"/>
</g>
<defs>
<clipPath id="clip0_221_17954">
<rect width="120" height="16.11" fill="white" transform="translate(0 24.4449)"/>
</clipPath>
<clipPath id="clip1_221_17954">
<rect width="120" height="16.11" fill="white" transform="translate(600 24.4449)"/>
</clipPath>
</defs>
</svg>
