<svg width="1120" height="126" viewBox="0 0 1120 126" fill="none" xmlns="http://www.w3.org/2000/svg">
<mask id="path-1-outside-1_86_689" maskUnits="userSpaceOnUse" x="0" y="0" width="1120" height="126" fill="black">
<rect fill="white" width="1120" height="126"/>
<path d="M42.7 1.35H108.25V24.9H47.2C32.2 25.2 29.05 28.5 28.9 44.4V86.7C29.2 98.55 31.9 100.65 47.2 100.8H108.55V124.5H39.1C10.9 124.35 2.35 117.3 1.75 93.6V37.2C2.05 24.15 4.75 16.05 11.2 10.05C18.7 3.14999 24.55 1.5 42.7 1.35ZM154.605 72.15V124.5H128.055V1.35H154.605V48.45H207.105V1.35H233.805V124.5H207.105V72.15H154.605ZM330.325 95.85H286.075L277.375 124.5H248.875L290.725 1.35H327.625L368.425 124.5H339.775L330.325 95.85ZM292.825 72.15H324.475L308.125 21.9L292.825 72.15ZM485.227 100.8V124.5H383.377V1.35H410.977V100.8H485.227ZM605.051 100.8V124.5H503.201V1.35H530.801V100.8H605.051ZM730.275 100.8V124.5H623.025V1.35H730.275V24.9H649.875V48.3H721.875V72H649.875V100.8H730.275ZM777.467 46.8V124.5H750.467V1.35H782.417L829.517 78.3V1.35H856.967V124.5H825.767L777.467 46.8ZM915.07 1.35H990.97V24.9H929.02C908.47 25.05 905.62 27.6 905.17 45.75V84.75C905.47 98.7 907.42 100.65 921.22 100.8H947.77C961.42 100.65 963.67 99.3 963.82 90.6V73.5H933.82V49.8H990.97V85.95C990.82 103.95 989.32 110.1 984.22 115.65C978.82 121.35 969.07 124.5 957.07 124.5H911.47C898.57 124.2 890.62 121.2 884.47 114.15C879.22 107.85 878.17 103.65 878.02 90.15V36.9C878.32 21.75 880.87 14.7 888.52 8.69999C895.27 3.45 902.62 1.5 915.07 1.35ZM1118.46 100.8V124.5H1011.21V1.35H1118.46V24.9H1038.06V48.3H1110.06V72H1038.06V100.8H1118.46Z"/>
</mask>
<path d="M42.7 1.35V0.349968L42.6917 0.350037L42.7 1.35ZM108.25 1.35H109.25V0.349998H108.25V1.35ZM108.25 24.9V25.9H109.25V24.9H108.25ZM47.2 24.9V23.9H47.19L47.18 23.9002L47.2 24.9ZM28.9 44.4L27.9 44.3906V44.4H28.9ZM28.9 86.7H27.9V86.7126L27.9003 86.7253L28.9 86.7ZM47.2 100.8L47.1902 101.8H47.2V100.8ZM108.55 100.8H109.55V99.8H108.55V100.8ZM108.55 124.5V125.5H109.55V124.5H108.55ZM39.1 124.5L39.0947 125.5H39.1V124.5ZM1.75 93.6H0.750001V93.6127L0.750321 93.6253L1.75 93.6ZM1.75 37.2L0.750265 37.177L0.750001 37.1885V37.2H1.75ZM11.2 10.05L10.5229 9.31405L10.5189 9.31781L11.2 10.05ZM42.7 1.35V2.35H108.25V1.35V0.349998H42.7V1.35ZM108.25 1.35H107.25V24.9H108.25H109.25V1.35H108.25ZM108.25 24.9V23.9H47.2V24.9V25.9H108.25V24.9ZM47.2 24.9L47.18 23.9002C39.7128 24.0495 34.7542 24.9246 31.7529 28.1148C30.2471 29.7153 29.3102 31.8171 28.7358 34.4764C28.1633 37.1269 27.9377 40.3952 27.9 44.3906L28.9 44.4L29.9 44.4094C29.9373 40.4548 30.1617 37.3481 30.6907 34.8986C31.2179 32.4579 32.0341 30.7347 33.2096 29.4852C35.5708 26.9754 39.6872 26.0505 47.22 25.8998L47.2 24.9ZM28.9 44.4H27.9V86.7H28.9H29.9V44.4H28.9ZM28.9 86.7L27.9003 86.7253C28.0494 92.6156 28.7738 96.5838 31.8142 98.9293C33.3106 100.084 35.2747 100.77 37.7631 101.186C40.2525 101.603 43.3541 101.762 47.1902 101.8L47.2 100.8L47.2098 99.8C43.396 99.7626 40.4225 99.6034 38.0931 99.2137C35.7628 98.8238 34.1644 98.2164 33.0358 97.3457C30.8262 95.6412 30.0506 92.6344 29.8997 86.6747L28.9 86.7ZM47.2 100.8V101.8H108.55V100.8V99.8H47.2V100.8ZM108.55 100.8H107.55V124.5H108.55H109.55V100.8H108.55ZM108.55 124.5V123.5H39.1V124.5V125.5H108.55V124.5ZM39.1 124.5L39.1053 123.5C25.0167 123.425 16.1554 121.611 10.7122 117.111C5.32478 112.656 3.04795 105.356 2.74968 93.5747L1.75 93.6L0.750321 93.6253C1.05205 105.544 3.35022 113.619 9.43779 118.652C15.4696 123.639 24.9833 125.425 39.0947 125.5L39.1 124.5ZM1.75 93.6H2.75V37.2H1.75H0.750001V93.6H1.75ZM1.75 37.2L2.74974 37.223C3.04686 24.2982 5.71397 16.5191 11.8811 10.7822L11.2 10.05L10.5189 9.31781C3.78603 15.5809 1.05314 24.0018 0.750265 37.177L1.75 37.2ZM11.2 10.05L11.8771 10.7859C15.5443 7.41206 18.7463 5.37304 23.2233 4.13243C27.7542 2.87689 33.6382 2.42493 42.7083 2.34997L42.7 1.35L42.6917 0.350037C33.6118 0.425072 27.4959 0.8731 22.6892 2.20506C17.8287 3.55195 14.3557 5.78793 10.5229 9.31406L11.2 10.05ZM154.605 72.15V71.15H153.605V72.15H154.605ZM154.605 124.5V125.5H155.605V124.5H154.605ZM128.055 124.5H127.055V125.5H128.055V124.5ZM128.055 1.35V0.349998H127.055V1.35H128.055ZM154.605 1.35H155.605V0.349998H154.605V1.35ZM154.605 48.45H153.605V49.45H154.605V48.45ZM207.105 48.45V49.45H208.105V48.45H207.105ZM207.105 1.35V0.349998H206.105V1.35H207.105ZM233.805 1.35H234.805V0.349998H233.805V1.35ZM233.805 124.5V125.5H234.805V124.5H233.805ZM207.105 124.5H206.105V125.5H207.105V124.5ZM207.105 72.15H208.105V71.15H207.105V72.15ZM154.605 72.15H153.605V124.5H154.605H155.605V72.15H154.605ZM154.605 124.5V123.5H128.055V124.5V125.5H154.605V124.5ZM128.055 124.5H129.055V1.35H128.055H127.055V124.5H128.055ZM128.055 1.35V2.35H154.605V1.35V0.349998H128.055V1.35ZM154.605 1.35H153.605V48.45H154.605H155.605V1.35H154.605ZM154.605 48.45V49.45H207.105V48.45V47.45H154.605V48.45ZM207.105 48.45H208.105V1.35H207.105H206.105V48.45H207.105ZM207.105 1.35V2.35H233.805V1.35V0.349998H207.105V1.35ZM233.805 1.35H232.805V124.5H233.805H234.805V1.35H233.805ZM233.805 124.5V123.5H207.105V124.5V125.5H233.805V124.5ZM207.105 124.5H208.105V72.15H207.105H206.105V124.5H207.105ZM207.105 72.15V71.15H154.605V72.15V73.15H207.105V72.15ZM330.325 95.85L331.275 95.5368L331.048 94.85H330.325V95.85ZM286.075 95.85V94.85H285.334L285.118 95.5594L286.075 95.85ZM277.375 124.5V125.5H278.116L278.332 124.791L277.375 124.5ZM248.875 124.5L247.928 124.178L247.479 125.5H248.875V124.5ZM290.725 1.35V0.349998H290.009L289.778 1.02824L290.725 1.35ZM327.625 1.35L328.574 1.03551L328.347 0.349998H327.625V1.35ZM368.425 124.5V125.5H369.81L369.374 124.186L368.425 124.5ZM339.775 124.5L338.825 124.813L339.052 125.5H339.775V124.5ZM292.825 72.15L291.868 71.8587L291.475 73.15H292.825V72.15ZM324.475 72.15V73.15H325.852L325.426 71.8406L324.475 72.15ZM308.125 21.9L309.076 21.5906L308.093 18.5707L307.168 21.6087L308.125 21.9ZM330.325 95.85V94.85H286.075V95.85V96.85H330.325V95.85ZM286.075 95.85L285.118 95.5594L276.418 124.209L277.375 124.5L278.332 124.791L287.032 96.1406L286.075 95.85ZM277.375 124.5V123.5H248.875V124.5V125.5H277.375V124.5ZM248.875 124.5L249.822 124.822L291.672 1.67175L290.725 1.35L289.778 1.02824L247.928 124.178L248.875 124.5ZM290.725 1.35V2.35H327.625V1.35V0.349998H290.725V1.35ZM327.625 1.35L326.676 1.66449L367.476 124.814L368.425 124.5L369.374 124.186L328.574 1.03551L327.625 1.35ZM368.425 124.5V123.5H339.775V124.5V125.5H368.425V124.5ZM339.775 124.5L340.725 124.187L331.275 95.5368L330.325 95.85L329.375 96.1632L338.825 124.813L339.775 124.5ZM292.825 72.15V73.15H324.475V72.15V71.15H292.825V72.15ZM324.475 72.15L325.426 71.8406L309.076 21.5906L308.125 21.9L307.174 22.2094L323.524 72.4594L324.475 72.15ZM308.125 21.9L307.168 21.6087L291.868 71.8587L292.825 72.15L293.782 72.4413L309.082 22.1913L308.125 21.9ZM485.227 100.8H486.227V99.8H485.227V100.8ZM485.227 124.5V125.5H486.227V124.5H485.227ZM383.377 124.5H382.377V125.5H383.377V124.5ZM383.377 1.35V0.349998H382.377V1.35H383.377ZM410.977 1.35H411.977V0.349998H410.977V1.35ZM410.977 100.8H409.977V101.8H410.977V100.8ZM485.227 100.8H484.227V124.5H485.227H486.227V100.8H485.227ZM485.227 124.5V123.5H383.377V124.5V125.5H485.227V124.5ZM383.377 124.5H384.377V1.35H383.377H382.377V124.5H383.377ZM383.377 1.35V2.35H410.977V1.35V0.349998H383.377V1.35ZM410.977 1.35H409.977V100.8H410.977H411.977V1.35H410.977ZM410.977 100.8V101.8H485.227V100.8V99.8H410.977V100.8ZM605.051 100.8H606.051V99.8H605.051V100.8ZM605.051 124.5V125.5H606.051V124.5H605.051ZM503.201 124.5H502.201V125.5H503.201V124.5ZM503.201 1.35V0.349998H502.201V1.35H503.201ZM530.801 1.35H531.801V0.349998H530.801V1.35ZM530.801 100.8H529.801V101.8H530.801V100.8ZM605.051 100.8H604.051V124.5H605.051H606.051V100.8H605.051ZM605.051 124.5V123.5H503.201V124.5V125.5H605.051V124.5ZM503.201 124.5H504.201V1.35H503.201H502.201V124.5H503.201ZM503.201 1.35V2.35H530.801V1.35V0.349998H503.201V1.35ZM530.801 1.35H529.801V100.8H530.801H531.801V1.35H530.801ZM530.801 100.8V101.8H605.051V100.8V99.8H530.801V100.8ZM730.275 100.8H731.275V99.8H730.275V100.8ZM730.275 124.5V125.5H731.275V124.5H730.275ZM623.025 124.5H622.025V125.5H623.025V124.5ZM623.025 1.35V0.349998H622.025V1.35H623.025ZM730.275 1.35H731.275V0.349998H730.275V1.35ZM730.275 24.9V25.9H731.275V24.9H730.275ZM649.875 24.9V23.9H648.875V24.9H649.875ZM649.875 48.3H648.875V49.3H649.875V48.3ZM721.875 48.3H722.875V47.3H721.875V48.3ZM721.875 72V73H722.875V72H721.875ZM649.875 72V71H648.875V72H649.875ZM649.875 100.8H648.875V101.8H649.875V100.8ZM730.275 100.8H729.275V124.5H730.275H731.275V100.8H730.275ZM730.275 124.5V123.5H623.025V124.5V125.5H730.275V124.5ZM623.025 124.5H624.025V1.35H623.025H622.025V124.5H623.025ZM623.025 1.35V2.35H730.275V1.35V0.349998H623.025V1.35ZM730.275 1.35H729.275V24.9H730.275H731.275V1.35H730.275ZM730.275 24.9V23.9H649.875V24.9V25.9H730.275V24.9ZM649.875 24.9H648.875V48.3H649.875H650.875V24.9H649.875ZM649.875 48.3V49.3H721.875V48.3V47.3H649.875V48.3ZM721.875 48.3H720.875V72H721.875H722.875V48.3H721.875ZM721.875 72V71H649.875V72V73H721.875V72ZM649.875 72H648.875V100.8H649.875H650.875V72H649.875ZM649.875 100.8V101.8H730.275V100.8V99.8H649.875V100.8ZM777.467 46.8L778.316 46.2721L776.467 43.2971V46.8H777.467ZM777.467 124.5V125.5H778.467V124.5H777.467ZM750.467 124.5H749.467V125.5H750.467V124.5ZM750.467 1.35V0.349998H749.467V1.35H750.467ZM782.417 1.35L783.27 0.827942L782.977 0.349998H782.417V1.35ZM829.517 78.3L828.664 78.8221L830.517 81.8493V78.3H829.517ZM829.517 1.35V0.349998H828.517V1.35H829.517ZM856.967 1.35H857.967V0.349998H856.967V1.35ZM856.967 124.5V125.5H857.967V124.5H856.967ZM825.767 124.5L824.918 125.028L825.211 125.5H825.767V124.5ZM777.467 46.8H776.467V124.5H777.467H778.467V46.8H777.467ZM777.467 124.5V123.5H750.467V124.5V125.5H777.467V124.5ZM750.467 124.5H751.467V1.35H750.467H749.467V124.5H750.467ZM750.467 1.35V2.35H782.417V1.35V0.349998H750.467V1.35ZM782.417 1.35L781.564 1.87206L828.664 78.8221L829.517 78.3L830.37 77.7779L783.27 0.827942L782.417 1.35ZM829.517 78.3H830.517V1.35H829.517H828.517V78.3H829.517ZM829.517 1.35V2.35H856.967V1.35V0.349998H829.517V1.35ZM856.967 1.35H855.967V124.5H856.967H857.967V1.35H856.967ZM856.967 124.5V123.5H825.767V124.5V125.5H856.967V124.5ZM825.767 124.5L826.616 123.972L778.316 46.2721L777.467 46.8L776.617 47.3279L824.918 125.028L825.767 124.5ZM915.07 1.35V0.34993L915.057 0.350075L915.07 1.35ZM990.97 1.35H991.97V0.349998H990.97V1.35ZM990.97 24.9V25.9H991.97V24.9H990.97ZM929.02 24.9V23.9L929.012 23.9L929.02 24.9ZM905.17 45.75L904.17 45.7252L904.17 45.7376V45.75H905.17ZM905.17 84.75H904.17V84.7607L904.17 84.7715L905.17 84.75ZM921.22 100.8L921.209 101.8H921.22V100.8ZM947.77 100.8V101.8L947.781 101.8L947.77 100.8ZM963.82 90.6L964.819 90.6172L964.82 90.6086V90.6H963.82ZM963.82 73.5H964.82V72.5H963.82V73.5ZM933.82 73.5H932.82V74.5H933.82V73.5ZM933.82 49.8V48.8H932.82V49.8H933.82ZM990.97 49.8H991.97V48.8H990.97V49.8ZM990.97 85.95L991.97 85.9583V85.95H990.97ZM984.22 115.65L984.945 116.338L984.951 116.332L984.956 116.327L984.22 115.65ZM911.47 124.5L911.446 125.5L911.458 125.5H911.47V124.5ZM884.47 114.15L883.701 114.79L883.709 114.799L883.716 114.807L884.47 114.15ZM878.02 90.15H877.019L877.02 90.1611L878.02 90.15ZM878.02 36.9L877.02 36.8802L877.02 36.8901V36.9H878.02ZM888.52 8.7L887.906 7.91064L887.902 7.91314L888.52 8.7ZM915.07 1.35V2.35H990.97V1.35V0.349998H915.07V1.35ZM990.97 1.35H989.97V24.9H990.97H991.97V1.35H990.97ZM990.97 24.9V23.9H929.02V24.9V25.9H990.97V24.9ZM929.02 24.9L929.012 23.9C923.869 23.9376 919.768 24.1246 916.517 24.6832C913.264 25.2423 910.762 26.1892 908.898 27.8229C907.021 29.468 905.903 31.7098 905.222 34.6291C904.546 37.5297 904.283 41.1799 904.17 45.7252L905.17 45.75L906.169 45.7748C906.282 41.245 906.543 37.7703 907.17 35.0834C907.792 32.4152 908.756 30.607 910.216 29.327C911.69 28.0358 913.781 27.1827 916.856 26.6543C919.934 26.1254 923.895 25.9374 929.027 25.9L929.02 24.9ZM905.17 45.75H904.17V84.75H905.17H906.17V45.75H905.17ZM905.17 84.75L904.17 84.7715C904.245 88.266 904.424 91.081 904.884 93.3229C905.346 95.5744 906.11 97.342 907.425 98.6571C908.741 99.9734 910.501 100.728 912.738 101.172C914.963 101.613 917.752 101.762 921.209 101.8L921.22 100.8L921.23 99.8001C917.788 99.7626 915.157 99.6123 913.126 99.2097C911.107 98.8093 909.773 98.1766 908.839 97.2429C907.904 96.308 907.262 94.9631 906.843 92.9208C906.422 90.869 906.244 88.209 906.169 84.7285L905.17 84.75ZM921.22 100.8V101.8H947.77V100.8V99.8H921.22V100.8ZM947.77 100.8L947.781 101.8C951.199 101.762 953.95 101.65 956.147 101.358C958.335 101.067 960.068 100.587 961.391 99.7519C964.166 98.0002 964.745 94.9587 964.819 90.6172L963.82 90.6L962.82 90.5828C962.745 94.9413 962.123 96.9248 960.323 98.0606C959.359 98.6693 957.96 99.0989 955.883 99.3751C953.814 99.6503 951.165 99.7626 947.759 99.8001L947.77 100.8ZM963.82 90.6H964.82V73.5H963.82H962.82V90.6H963.82ZM963.82 73.5V72.5H933.82V73.5V74.5H963.82V73.5ZM933.82 73.5H934.82V49.8H933.82H932.82V73.5H933.82ZM933.82 49.8V50.8H990.97V49.8V48.8H933.82V49.8ZM990.97 49.8H989.97V85.95H990.97H991.97V49.8H990.97ZM990.97 85.95L989.97 85.9417C989.82 103.948 988.3 109.732 983.483 114.973L984.22 115.65L984.956 116.327C990.339 110.468 991.82 103.952 991.969 85.9583L990.97 85.95ZM984.22 115.65L983.494 114.962C978.364 120.377 968.942 123.5 957.07 123.5V124.5V125.5C969.197 125.5 979.275 122.323 984.945 116.338L984.22 115.65ZM957.07 124.5V123.5H911.47V124.5V125.5H957.07V124.5ZM911.47 124.5L911.493 123.5C898.758 123.204 891.124 120.257 885.223 113.493L884.47 114.15L883.716 114.807C890.115 122.143 898.381 125.196 911.446 125.5L911.47 124.5ZM884.47 114.15L885.238 113.51C882.673 110.432 881.187 107.934 880.298 104.593C879.396 101.201 879.094 96.8891 879.019 90.1389L878.02 90.15L877.02 90.1611C877.095 96.9109 877.393 101.449 878.366 105.107C879.352 108.816 881.017 111.568 883.701 114.79L884.47 114.15ZM878.02 90.15H879.02V36.9H878.02H877.02V90.15H878.02ZM878.02 36.9L879.019 36.9198C879.169 29.3805 879.878 23.964 881.451 19.7159C883.01 15.5061 885.437 12.3889 889.137 9.48685L888.52 8.7L887.902 7.91314C883.953 11.0111 881.279 14.4189 879.576 19.0216C877.886 23.5859 877.17 29.2695 877.02 36.8802L878.02 36.9ZM888.52 8.7L889.133 9.48935C895.643 4.42664 902.743 2.49858 915.082 2.34993L915.07 1.35L915.057 0.350075C902.496 0.501411 894.896 2.47336 887.906 7.91064L888.52 8.7ZM1118.46 100.8H1119.46V99.8H1118.46V100.8ZM1118.46 124.5V125.5H1119.46V124.5H1118.46ZM1011.21 124.5H1010.21V125.5H1011.21V124.5ZM1011.21 1.35V0.349998H1010.21V1.35H1011.21ZM1118.46 1.35H1119.46V0.349998H1118.46V1.35ZM1118.46 24.9V25.9H1119.46V24.9H1118.46ZM1038.06 24.9V23.9H1037.06V24.9H1038.06ZM1038.06 48.3H1037.06V49.3H1038.06V48.3ZM1110.06 48.3H1111.06V47.3H1110.06V48.3ZM1110.06 72V73H1111.06V72H1110.06ZM1038.06 72V71H1037.06V72H1038.06ZM1038.06 100.8H1037.06V101.8H1038.06V100.8ZM1118.46 100.8H1117.46V124.5H1118.46H1119.46V100.8H1118.46ZM1118.46 124.5V123.5H1011.21V124.5V125.5H1118.46V124.5ZM1011.21 124.5H1012.21V1.35H1011.21H1010.21V124.5H1011.21ZM1011.21 1.35V2.35H1118.46V1.35V0.349998H1011.21V1.35ZM1118.46 1.35H1117.46V24.9H1118.46H1119.46V1.35H1118.46ZM1118.46 24.9V23.9H1038.06V24.9V25.9H1118.46V24.9ZM1038.06 24.9H1037.06V48.3H1038.06H1039.06V24.9H1038.06ZM1038.06 48.3V49.3H1110.06V48.3V47.3H1038.06V48.3ZM1110.06 48.3H1109.06V72H1110.06H1111.06V48.3H1110.06ZM1110.06 72V71H1038.06V72V73H1110.06V72ZM1038.06 72H1037.06V100.8H1038.06H1039.06V72H1038.06ZM1038.06 100.8V101.8H1118.46V100.8V99.8H1038.06V100.8Z" fill="#C71B21" fill-opacity="0.4" mask="url(#path-1-outside-1_86_689)"/>
</svg>
