<svg width="341" height="26" viewBox="0 0 341 26" fill="none" xmlns="http://www.w3.org/2000/svg">
<g clip-path="url(#clip0_287_5106)">
<path d="M33.1431 16.679V8.62402L39.7131 12.654L33.1431 16.679Z" fill="white"/>
<path d="M46.498 16.679V8.62402L53.073 12.654L46.498 16.679Z" fill="white"/>
<path d="M59.8579 16.679V8.62402L66.4279 12.654L59.8579 16.679Z" fill="white"/>
<path d="M73.2129 16.679V8.62402L79.7879 12.654L73.2129 16.679Z" fill="white"/>
<path d="M86.5732 16.679V8.62402L93.1432 12.654L86.5732 16.679Z" fill="white"/>
</g>
<path d="M209.174 25.1514V21.0302C206.472 23.4319 203.278 24.6601 199.13 24.933V20.8664C201.859 20.6754 204.07 20.0204 205.735 18.8468H199.13V15.5171H209.174V14.5073H200.222V11.6142H209.174V10.6863H199.539V7.71141H204.479L204.07 6.48324H199.13V3.23543H201.122L199.812 0.560755H204.234L205.407 3.23543H206.226V0.151367H210.593V3.23543H212.394V0.151367H216.706V3.23543H217.607L218.808 0.560755H223.393L221.974 3.23543H223.857V6.48324H219.108L218.48 7.71141H223.311V10.6863H213.731V11.6142H222.874V14.5073H213.731V15.5171H223.857V18.8468H217.007C218.972 20.1022 221.401 20.8118 223.857 20.7846V24.8784C218.999 24.3599 217.088 23.623 213.731 20.921V25.1514H209.174ZM209.474 7.71141H213.431L214.195 6.48324H208.901L209.474 7.71141Z" fill="white"/>
<path d="M171.346 11.4226V6.81019C176.286 5.36368 179.479 3.4532 182.072 0.369141H186.357C188.731 3.31674 191.924 5.22722 196.864 6.70102V11.2862C191.897 10.2491 188.131 8.20211 184.146 4.35386C180.38 8.12023 177.104 9.92154 171.346 11.4226ZM172.192 24.7141V20.4292H175.085V10.6311H179.615V20.4292H183.054V8.28399H187.776V12.76H195.254V16.8266H187.776V20.4292H196.182V24.7141H172.192Z" fill="white"/>
<path d="M146.537 24.6332V0.861328H167.198V20.2936C167.198 23.3504 165.806 24.5786 162.285 24.6332H146.537ZM151.177 7.35696H162.503V4.87334H151.177V7.35696ZM151.177 14.0436H162.503V11.1779H151.177V14.0436ZM151.177 20.7849H162.503V18.0284H151.177V20.7849Z" fill="white"/>
<path d="M124.348 24.4421V20.5666H131.062V15.5993H126.04V11.6692H131.062V7.73906H125.576V3.59059H131.062V0.342773H135.729V3.59059H141.543V7.73906H135.729V11.6692H140.751V15.5993H135.729V20.5666H142.088V24.4421H124.348ZM124.84 6.4836C122.001 5.66483 120.664 5.36461 117.634 4.84605V0.615699C121.51 1.29801 122.383 1.46177 124.84 2.06221V6.4836ZM124.84 12.1605C122.219 11.3963 120.991 11.096 117.634 10.3864V6.23797C120.473 6.70194 121.919 7.02945 124.84 7.76635V12.1605ZM117.143 25.0971V20.1845C119.627 19.3111 120.364 17.6463 120.555 12.5971H124.84C124.621 19.9934 121.974 24.2784 117.143 25.0971Z" fill="white"/>
<g clip-path="url(#clip1_287_5106)">
<path d="M247.857 16.679V8.62402L254.427 12.654L247.857 16.679Z" fill="white"/>
<path d="M261.212 16.679V8.62402L267.787 12.654L261.212 16.679Z" fill="white"/>
<path d="M274.572 16.679V8.62402L281.142 12.654L274.572 16.679Z" fill="white"/>
<path d="M287.927 16.679V8.62402L294.502 12.654L287.927 16.679Z" fill="white"/>
<path d="M301.287 16.679V8.62402L307.857 12.654L301.287 16.679Z" fill="white"/>
</g>
<defs>
<clipPath id="clip0_287_5106">
<rect width="60" height="8.055" fill="white" transform="translate(33.1431 8.62402)"/>
</clipPath>
<clipPath id="clip1_287_5106">
<rect width="60" height="8.055" fill="white" transform="translate(247.857 8.62402)"/>
</clipPath>
</defs>
</svg>
