<svg width="144" height="81" viewBox="0 0 144 81" fill="none" xmlns="http://www.w3.org/2000/svg">
<path d="M142.382 54.4404C142.382 46.3764 139.693 42.8237 131.821 40.1357V39.6562C140.098 36.0292 142.249 33.0325 142.375 25.8662L142.382 25.1602V17.96C142.382 6.53598 132.685 1.06445 116.365 1.06445V0.0644531C124.609 0.0644531 131.332 1.44153 136.024 4.38086C140.784 7.36243 143.382 11.9089 143.382 17.96V25.1602C143.382 29.0684 142.874 32.0135 141.118 34.4658C139.612 36.5704 137.265 38.1974 133.859 39.8232C136.985 41.0691 139.296 42.5721 140.856 44.6758C142.696 47.1555 143.382 50.312 143.382 54.4404V64.1572L143.381 64.1777C143.134 70.0924 141.517 74.392 137.685 77.1406C133.934 79.8308 128.257 80.8799 120.302 80.8799H76.8691V63.7119H112.929C115.345 63.7598 117.254 63.747 118.767 63.6436C120.288 63.5395 121.344 63.3474 122.085 63.0684C122.799 62.7995 123.182 62.4652 123.424 62.0703C123.68 61.651 123.841 61.0592 123.909 60.1592V53.5098C123.814 52.1332 123.654 51.1726 123.361 50.4717C123.088 49.8157 122.694 49.3754 122.043 49.043C121.344 48.686 120.31 48.4361 118.73 48.293C117.162 48.1508 115.147 48.1196 112.534 48.1436H82.8213V30.9756H117.229C118.721 30.9516 119.883 30.8865 120.793 30.7539C121.712 30.62 122.302 30.4265 122.692 30.1934C123.334 29.8095 123.672 29.1764 123.718 27.4375V22.2041L123.705 21.7803C123.625 19.7364 123.274 18.8269 122.595 18.2861C122.205 17.9761 121.619 17.7155 120.69 17.5195C119.765 17.3242 118.569 17.2071 117.01 17.1357H76.8691V0.0644531H116.365V1.06445H77.8691V16.1357H117.037C123.373 16.4237 124.622 17.4799 124.718 22.1836V27.4639C124.628 30.8838 123.441 31.7723 118.31 31.9492L117.229 31.9756H83.8213V47.1436H112.525L114.385 47.1367C123.177 47.1627 124.549 48.1705 124.909 53.4805V60.2002C124.621 64.136 122.605 64.9039 112.909 64.7119H77.8691V79.8799H120.302L121.757 79.8672C136.496 79.6086 141.917 75.2958 142.382 64.1357V54.4404Z" fill="white"/>
<path d="M66.4863 59.5283V22.376C66.4863 14.4082 65.0466 10.7603 60.6309 6.44043C57.0039 3.09251 52.2056 1.1853 46.9346 1.06934L46.4229 1.06445V0.0644531C52.1322 0.0645049 57.37 2.06957 61.3086 5.70508L61.3193 5.71484L61.3301 5.72559C63.604 7.95017 65.1719 10.0616 66.1514 12.6904C67.1239 15.3008 67.4863 18.3426 67.4863 22.376V59.5283C67.4863 66.2851 65.6091 71.6699 61.7676 75.3574C57.9326 79.0385 52.2942 80.8798 45.0791 80.8799H22.3262C15.0391 80.8798 9.4603 79.1945 5.70898 75.585C1.94994 71.968 0.207035 66.5942 0.207031 59.624V22.2803C0.207031 15.1064 1.74036 9.50785 5.2207 5.70508C8.7179 1.88407 14.0057 0.0644531 21.0791 0.0644531V1.06445L20.4365 1.06934C7.06716 1.28777 1.20703 8.38871 1.20703 22.2803V59.624L1.21191 60.2578C1.42173 73.4612 8.24596 79.8797 22.3262 79.8799H45.0791L45.7354 79.875C59.1999 79.6572 66.2609 72.7004 66.4814 60.1396L66.4863 59.5283ZM40.9502 63.8076V64.8076H27.9902V63.8076H40.9502ZM47.4385 56.168V25.2559C47.4385 21.9386 46.902 20.0628 45.7246 18.9512C44.5266 17.8202 42.4088 17.2324 38.5508 17.2324H28.0869C24.602 17.2324 22.7662 17.7533 21.7227 18.8613C20.6597 19.9902 20.1582 21.9948 20.1582 25.7363V55.1123C20.1582 57.2762 20.202 58.8954 20.3809 60.1289C20.5597 61.3621 20.8573 62.0784 21.2637 62.5381C21.6569 62.9829 22.2666 63.3153 23.3584 63.5264C24.4659 63.7404 25.9529 63.8076 27.9902 63.8076V64.8076C20.3405 64.8076 19.2717 63.8797 19.168 56.6445L19.1582 55.1123V25.7363C19.1582 18.4824 20.9605 16.3636 27.4443 16.2383L28.0869 16.2324H38.5508C46.3266 16.2325 48.4384 18.536 48.4385 25.2559V56.168C48.4385 63.656 47.4782 64.8076 40.9502 64.8076V63.8076C42.5706 63.8076 43.7628 63.7348 44.6572 63.5352C45.5307 63.3401 46.0415 63.0416 46.3857 62.6426C46.7438 62.2274 47.0227 61.5869 47.2002 60.5137C47.3779 59.4389 47.4385 58.0324 47.4385 56.168ZM46.4229 0.0644531V1.06445H21.0791V0.0644531H46.4229Z" fill="white"/>
</svg>
