<svg width="1328" height="61" viewBox="0 0 1328 61" fill="none" xmlns="http://www.w3.org/2000/svg">
<g clip-path="url(#clip0_98_125)">
<path d="M120 39.0551V22.9451L133.14 31.0051L120 39.0551Z" fill="#EEEEEE" fill-opacity="0.929412"/>
<path d="M146.711 39.0551V22.9451L159.861 31.0051L146.711 39.0551Z" fill="#EEEEEE" fill-opacity="0.929412"/>
<path d="M173.43 39.0551V22.9451L186.57 31.0051L173.43 39.0551Z" fill="#EEEEEE" fill-opacity="0.929412"/>
<path d="M200.141 39.0551V22.9451L213.291 31.0051L200.141 39.0551Z" fill="#EEEEEE" fill-opacity="0.929412"/>
<path d="M226.859 39.0551V22.9451L239.999 31.0051L226.859 39.0551Z" fill="#EEEEEE" fill-opacity="0.929412"/>
</g>
<path d="M291.584 58.84V29.016L280.384 46.168C275.392 54.36 270.336 57.176 259.84 57.624V46.296C265.152 46.232 268.032 44.76 270.656 40.6L281.024 24.536H260.736V14.616H291.584V3.224H303.104V14.616H315.456V24.536H303.104V58.84H291.584ZM325.824 36.12V25.24H378.24V36.12H325.824ZM391.936 58.2V48.216H405.568C413.376 48.408 417.344 44.632 417.6 36.952V25.048H404.608C401.344 30.936 397.12 33.944 388.096 36.568V25.112C395.712 22.424 398.528 17.048 399.744 2.648H411.392C410.368 9.304 410.112 10.712 408.896 14.616H443.392V25.048H429.376V36.952C429.312 49.752 421.376 58.072 409.216 58.2H391.936ZM453.824 36.12V25.24H506.24V36.12H453.824ZM516.48 55.448V44.184H538.368V16.984H520.96V6.104H568.384V16.984H549.824V44.184H571.648V55.448H516.48ZM579.712 58.84V48.024H583.744C593.472 48.088 598.464 45.656 603.2 38.552C606.336 34.136 611.264 23.896 614.464 15.128H584.128V4.568H630.4C626.944 15.704 624.064 23 620.032 30.68C627.136 40.6 631.808 48.408 636.544 58.136H622.656C619.84 51.416 617.856 47.64 614.08 41.56C608 52.568 599.552 58.072 587.776 58.84H579.712ZM670.912 22.216V14.68H675.472V22.216H670.912ZM676.864 22.216V14.68H681.52V22.216H676.864ZM643.936 57.544C647.728 48.04 649.216 43.144 651.136 34.024H643.936V25.768H652.432C652.816 22.936 652.912 21.928 653.296 16.456H661.216C660.928 20.104 660.784 21.304 660.256 25.768H663.76C667.888 25.768 669.616 26.44 670.96 28.552C672.256 30.664 672.64 33.832 672.64 42.76C672.64 48.28 672.352 50.152 671.248 52.504C670.096 54.952 667.456 56.824 664.672 57.256C663.04 57.544 662.752 57.544 657.712 57.544V49.624C658.384 49.672 658.912 49.672 659.2 49.672C663.04 49.672 664.192 48.04 664.192 42.76C664.192 38.68 664 35.752 663.664 35.176C663.28 34.504 662.608 34.168 661.456 34.072C661.072 34.024 660.88 34.024 658.96 34.024C656.896 43.384 654.976 50.68 652.72 57.544H643.936ZM676.576 47.944C676.72 45.208 676.768 43.816 676.768 41.464C676.768 32.632 676.528 31.528 672.976 23.704H681.184C684.256 29.176 684.928 32.872 684.928 44.584L684.88 47.944H676.576ZM702.208 52.632C699.008 57.432 696.32 59.224 690.368 60.44V49.112C692.224 48.344 692.992 47.96 693.76 47.192C694.72 46.232 695.68 44.248 695.68 43.096V32.984H690.304V23.064H706.048V44.12C706.88 45.72 708.224 47.32 710.272 48.536L713.92 43.736H708.096V36.44H715.264V34.072H710.016V26.776H715.264V24.408C711.424 24.344 710.528 24.344 709.632 23.704C708.672 23 708.096 21.592 708.096 19.608V10.84H718.72V8.92H708.288V2.392H726.848V10.072C726.848 14.744 725.312 16.152 720.384 16.152H716.672V17.944H721.472C724.224 17.944 725.568 17.432 727.168 15.896V22.68C726.336 23.64 726.016 23.896 724.8 24.28V26.776H731.456V24.408C729.344 23 729.024 22.424 729.024 19.608V10.84H738.816V8.92H729.024V2.392H747.712V11.096C747.712 14.808 746.112 16.152 741.888 16.152H737.792V17.944H744.064C745.664 17.944 746.048 17.752 748.608 15.768V23.064C747.328 24.344 746.24 24.856 744.448 24.856H740.736V26.776H745.984V34.072H740.736V36.44H747.52V43.736H742.144L746.816 48.792H734.912L731.584 43.736H724.928L721.152 48.792H710.784C712.768 49.816 715.328 50.456 718.592 50.456H749.44V59.48H720.832C713.024 59.48 710.656 59.032 707.392 57.176C705.92 56.344 704.704 55.32 702.208 52.632ZM706.112 6.168V17.176C701.248 15.512 695.936 14.104 691.392 13.08V2.52C697.536 3.672 699.968 4.312 706.112 6.168ZM724.8 36.44H731.456V34.072H724.8V36.44ZM801.472 11.544V1.688H806.976V11.544H801.472ZM808.64 11.544V1.688H814.144V11.544H808.64ZM787.328 58.904C778.432 58.904 772.16 53.848 772.16 46.808C772.16 42.648 774.08 39.128 777.536 37.016C779.776 35.608 782.4 35.032 786.24 35.032C786.88 35.032 788.288 35.096 789.888 35.16V24.28H774.336V14.296H789.888V3.224H799.936V14.296H810.304V24.28H799.936V37.272C805.568 39.576 807.872 40.664 811.264 42.648V54.488C806.592 51.224 804.544 49.944 800.768 47.96C800.256 51.736 799.488 53.528 797.632 55.448C795.456 57.688 791.68 58.904 787.328 58.904ZM758.464 58.328C757.44 51.672 757.184 48.28 757.184 40.216C757.184 30.36 757.824 21.272 759.744 3.736H770.496C767.872 20.248 767.232 27.16 767.232 39.448C767.232 48.024 767.552 51.416 769.088 58.328H758.464ZM785.856 49.496C788.416 49.496 790.016 48.28 790.016 46.232C790.016 44.696 788.224 43.608 785.6 43.608C783.744 43.608 782.272 44.888 782.272 46.488C782.272 48.28 783.744 49.496 785.856 49.496ZM828.608 59.288V43.48C826.368 45.72 825.216 46.936 823.488 48.984L820.928 51.8L819.52 53.4V38.68C825.6 32.216 825.664 32.088 828.608 28.76V22.424H820.544V12.504H828.608V2.52H838.784V20.44C840.128 19.48 841.152 18.712 841.856 18.264C842.88 17.432 843.968 16.664 845.056 15.896C849.792 12.376 853.632 10.84 857.984 10.84C861.824 10.84 864.448 11.992 866.496 14.68C868.032 16.728 868.928 19.672 868.928 22.872L868.8 27.48L868.224 41.432L868.16 42.2C868.032 43.992 868.48 45.72 869.184 46.36C869.952 47.064 871.04 47.32 872.832 47.32C873.472 47.32 874.432 47.32 876.288 47.256V57.816L870.72 57.944C864.64 57.944 861.632 57.24 859.52 55.256C857.6 53.4 856.96 51.416 856.96 47.128V46.104L857.472 28.376L857.536 27.16C857.536 24.984 857.472 24.28 857.152 23.576C856.768 22.872 855.808 22.296 854.784 22.296C853.056 22.296 851.392 23.128 847.552 26.008C842.688 29.72 841.536 30.744 838.784 33.752V59.288H828.608ZM912.768 59.544C899.2 59.544 892.032 55.448 892.032 47.576C892.032 41.048 897.792 35.992 905.28 35.992C912.512 35.992 918.208 40.536 918.208 46.296C918.208 46.936 918.144 48.024 918.016 49.048C922.112 48.6 924.096 47.768 925.568 45.784C926.912 43.992 927.68 41.688 927.68 39.192C927.68 33.624 923.776 30.616 916.544 30.616C910.016 30.616 904.384 31.832 897.536 34.84C892.288 37.08 889.92 38.424 885.952 41.432V30.296C886.464 29.912 887.936 29.016 888.064 28.952C890.176 27.8 892.288 26.52 894.4 25.304C895.872 24.472 898.176 23.128 900.672 21.656C907.456 17.624 908.224 17.176 915.008 13.592L892.288 13.976V4.184H931.712V13.592L916.736 22.616C919.744 22.232 920.896 22.168 922.304 22.168C931.712 22.168 939.008 29.208 939.008 38.424C939.008 44.44 936.64 50.008 932.608 53.656C928.128 57.624 921.664 59.544 912.768 59.544ZM907.328 50.2H908.16L908.672 50.136C908.16 46.744 907.008 45.336 904.576 45.336C903.168 45.336 902.4 45.912 902.4 47.064C902.4 48.856 904.512 50.2 907.328 50.2ZM964.352 58.392V50.776C957.12 52.888 953.088 53.784 946.24 55V44.184C949.12 43.8 949.568 43.736 951.936 43.352V33.112H947.264V23.064H951.936V14.168H946.048V5.144H966.4V14.168H961.408V23.064H965.568V33.112H961.408V41.752C963.264 41.304 963.648 41.176 966.016 40.472V49.496H980.48V45.72H968.448V37.336H980.48V33.56H968.64V2.456H1002.94V24.088C1003.07 30.808 1000.32 33.56 993.664 33.56H990.336V37.336H1002.69V45.72H990.336V49.496H1004.99V58.392H964.352ZM977.984 14.168H980.48V11.16H977.984V14.168ZM990.336 14.168H993.088V11.16H990.336V14.168ZM977.984 25.304H980.48V22.296H977.984V25.304ZM990.336 25.304H993.088V22.296H990.336V25.304ZM1012.54 58.52V12.696H1034.05V0.343998H1045.44V12.696H1067.46V49.24C1067.46 56.28 1064.83 58.52 1056.58 58.52H1012.54ZM1022.91 29.784H1034.05V21.976H1022.91V29.784ZM1045.44 29.784H1056.45V21.976H1045.44V29.784ZM1022.91 48.088H1034.05V39.576H1022.91V48.088ZM1045.44 48.088H1056.45V39.576H1045.44V48.088Z" fill="#C71B21"/>
<g clip-path="url(#clip1_98_125)">
<path d="M1088 39.0551V22.9451L1101.14 31.0051L1088 39.0551Z" fill="#EEEEEE" fill-opacity="0.929412"/>
<path d="M1114.71 39.0551V22.9451L1127.86 31.0051L1114.71 39.0551Z" fill="#EEEEEE" fill-opacity="0.929412"/>
<path d="M1141.43 39.0551V22.9451L1154.57 31.0051L1141.43 39.0551Z" fill="#EEEEEE" fill-opacity="0.929412"/>
<path d="M1168.14 39.0551V22.9451L1181.29 31.0051L1168.14 39.0551Z" fill="#EEEEEE" fill-opacity="0.929412"/>
<path d="M1194.86 39.0551V22.9451L1208 31.0051L1194.86 39.0551Z" fill="#EEEEEE" fill-opacity="0.929412"/>
</g>
<defs>
<clipPath id="clip0_98_125">
<rect width="120" height="16.11" fill="white" transform="translate(120 22.9451)"/>
</clipPath>
<clipPath id="clip1_98_125">
<rect width="120" height="16.11" fill="white" transform="translate(1088 22.9451)"/>
</clipPath>
</defs>
</svg>
