<svg width="117" height="81" viewBox="0 0 117 81" fill="none" xmlns="http://www.w3.org/2000/svg">
<path d="M115.82 21.2236C115.82 6.99511 114.83 4.38785 109.531 2.23145L109.005 2.02441C106.701 1.25641 104.78 1.06445 96.5244 1.06445V0.0644531C104.237 0.0644531 106.552 0.225333 108.858 0.927734L109.321 1.0752L109.342 1.08203L109.362 1.08984C110.834 1.65404 112.103 2.2594 113.139 3.12109C114.197 4.00148 114.966 5.10885 115.512 6.60059C116.568 9.48638 116.82 13.9237 116.82 21.2236V80.8799H96.9648V25.4482C96.9648 23.4133 96.8971 21.8893 96.6865 20.7295C96.4776 19.5788 96.1453 18.8907 95.6943 18.4355C95.244 17.9811 94.5598 17.6422 93.4072 17.4268C92.2448 17.2095 90.7096 17.1357 88.6523 17.1357H81.2207V0.0644531H96.5244V1.06445H82.2207V16.1357H88.6523C96.9083 16.1357 97.9648 17.2882 97.9648 25.4482V79.8799H115.82V21.2236Z" fill="white"/>
<path d="M66.5176 59.5283V22.376C66.5176 14.4082 65.0778 10.7603 60.6621 6.44043C57.0352 3.09251 52.2369 1.1853 46.9658 1.06934L46.4541 1.06445V0.0644531C52.1634 0.0645049 57.4013 2.06957 61.3398 5.70508L61.3506 5.71484L61.3613 5.72559C63.6353 7.95017 65.2031 10.0616 66.1826 12.6904C67.1551 15.3008 67.5176 18.3426 67.5176 22.376V59.5283C67.5175 66.2851 65.6404 71.6699 61.7988 75.3574C57.9639 79.0385 52.3254 80.8798 45.1104 80.8799H22.3574C15.0704 80.8798 9.49155 79.1945 5.74023 75.585C1.98119 71.968 0.238285 66.5942 0.238281 59.624V22.2803C0.238281 15.1064 1.77161 9.50785 5.25195 5.70508C8.74915 1.88407 14.037 0.0644531 21.1104 0.0644531V1.06445L20.4678 1.06934C7.09841 1.28777 1.23828 8.38871 1.23828 22.2803V59.624L1.24316 60.2578C1.45298 73.4612 8.27721 79.8797 22.3574 79.8799H45.1104L45.7666 79.875C59.2312 79.6572 66.2921 72.7004 66.5127 60.1396L66.5176 59.5283ZM40.9814 63.8076V64.8076H28.0215V63.8076H40.9814ZM47.4697 56.168V25.2559C47.4697 21.9386 46.9332 20.0628 45.7559 18.9512C44.5578 17.8202 42.44 17.2324 38.582 17.2324H28.1182C24.6333 17.2324 22.7974 17.7533 21.7539 18.8613C20.6909 19.9902 20.1895 21.9948 20.1895 25.7363V55.1123C20.1895 57.2762 20.2333 58.8954 20.4121 60.1289C20.5909 61.3621 20.8886 62.0784 21.2949 62.5381C21.6882 62.9829 22.2979 63.3153 23.3896 63.5264C24.4972 63.7404 25.9841 63.8076 28.0215 63.8076V64.8076C20.3718 64.8076 19.3029 63.8797 19.1992 56.6445L19.1895 55.1123V25.7363C19.1895 18.4824 20.9917 16.3636 27.4756 16.2383L28.1182 16.2324H38.582C46.3578 16.2325 48.4697 18.536 48.4697 25.2559V56.168C48.4697 63.656 47.5094 64.8076 40.9814 64.8076V63.8076C42.6019 63.8076 43.7941 63.7348 44.6885 63.5352C45.5619 63.3401 46.0727 63.0416 46.417 62.6426C46.7751 62.2274 47.054 61.5869 47.2314 60.5137C47.4092 59.4389 47.4697 58.0324 47.4697 56.168ZM46.4541 0.0644531V1.06445H21.1104V0.0644531H46.4541Z" fill="white"/>
</svg>
