<svg width="375" height="55" viewBox="0 0 375 55" fill="none" xmlns="http://www.w3.org/2000/svg">
<g clip-path="url(#clip0_285_2885)">
<path d="M15.4834 31.5L15.4834 23.5L22.0534 27.5025L15.4834 31.5Z" fill="#EEEEEE" fill-opacity="0.929412"/>
<path d="M28.8384 31.5V23.5L35.4134 27.5025L28.8384 31.5Z" fill="#EEEEEE" fill-opacity="0.929412"/>
<path d="M42.1982 31.5V23.5L48.7682 27.5025L42.1982 31.5Z" fill="#EEEEEE" fill-opacity="0.929412"/>
<path d="M55.5532 31.5V23.5L62.1282 27.5025L55.5532 31.5Z" fill="#EEEEEE" fill-opacity="0.929412"/>
<path d="M68.9136 31.5V23.5L75.4836 27.5025L68.9136 31.5Z" fill="#EEEEEE" fill-opacity="0.929412"/>
</g>
<path d="M243.674 54.189V34.833H252.757V29.6155H257.569V34.833H266.869V50.2691C266.869 53.2428 265.76 54.189 262.273 54.189H243.674ZM248.053 42.0509H252.757V38.7528H248.053V42.0509ZM257.569 42.0509H262.219V38.7528H257.569V42.0509ZM248.053 49.7825H252.757V46.1871H248.053V49.7825ZM257.569 49.7825H262.219V46.1871H257.569V49.7825Z" fill="#C71B21"/>
<path d="M223.318 54.1347V50.9177C220.263 51.8098 218.56 52.1883 215.668 52.7019V48.1332C216.884 47.971 217.073 47.944 218.074 47.7818V43.4564H216.1V39.2121H218.074V35.4545H215.586V31.6427H224.183V35.4545H222.074V39.2121H223.832V43.4564H222.074V47.106C222.858 46.9167 223.021 46.8627 224.021 46.5653V50.377H230.13V48.782H225.048V45.2406H230.13V43.6457H225.129V30.5073H239.619V39.6447C239.673 42.4832 238.511 43.6457 235.699 43.6457H234.294V45.2406H239.511V48.782H234.294V50.377H240.484V54.1347H223.318ZM229.076 35.4545H230.13V34.1839H229.076V35.4545ZM234.294 35.4545H235.456V34.1839H234.294V35.4545ZM229.076 40.1583H230.13V38.8877H229.076V40.1583ZM234.294 40.1583H235.456V38.8877H234.294V40.1583Z" fill="#C71B21"/>
<path d="M201.529 54.6214C195.798 54.6214 192.77 52.8912 192.77 49.5661C192.77 46.8087 195.203 44.673 198.366 44.673C201.421 44.673 203.827 46.5924 203.827 49.0254C203.827 49.2957 203.8 49.7553 203.745 50.1879C205.476 49.9986 206.314 49.6472 206.935 48.8091C207.503 48.0522 207.828 47.079 207.828 46.0247C207.828 43.6728 206.178 42.4022 203.124 42.4022C200.366 42.4022 197.987 42.9158 195.095 44.1864C192.878 45.1326 191.878 45.7003 190.202 46.9709V42.267C190.418 42.1048 191.04 41.7263 191.094 41.6993C191.986 41.2127 192.878 40.672 193.77 40.1584C194.392 39.807 195.365 39.2392 196.419 38.6175C199.285 36.9144 199.609 36.7251 202.475 35.2112L192.878 35.3734V31.2373H209.531V35.2112L203.205 39.023C204.475 38.8608 204.962 38.8337 205.557 38.8337C209.531 38.8337 212.612 41.8074 212.612 45.7003C212.612 48.2414 211.612 50.5934 209.909 52.1343C208.017 53.8104 205.286 54.6214 201.529 54.6214ZM199.231 50.6745H199.582L199.799 50.6474C199.582 49.2146 199.096 48.6199 198.068 48.6199C197.474 48.6199 197.149 48.8632 197.149 49.3498C197.149 50.1068 198.041 50.6745 199.231 50.6745Z" fill="#C71B21"/>
<path d="M165.98 54.5132V47.8359C165.034 48.7821 164.547 49.2957 163.817 50.1608L162.736 51.3503L162.141 52.0261V45.8084C164.709 43.078 164.736 43.0239 165.98 41.6182V38.9419H162.574V34.7517H165.98V30.5344H170.278V38.1038C170.846 37.6983 171.278 37.3739 171.576 37.1847C172.008 36.8333 172.468 36.5088 172.927 36.1844C174.928 34.6976 176.55 34.0488 178.388 34.0488C180.01 34.0488 181.119 34.5354 181.984 35.6708C182.633 36.5359 183.011 37.7794 183.011 39.1311L182.957 41.0775L182.714 46.9708L182.687 47.2953C182.633 48.0522 182.822 48.7821 183.119 49.0524C183.444 49.3498 183.903 49.4579 184.66 49.4579C184.93 49.4579 185.336 49.4579 186.12 49.4309V53.8915L183.768 53.9455C181.2 53.9455 179.929 53.6481 179.037 52.8101C178.226 52.0261 177.956 51.1881 177.956 49.3768V48.9443L178.172 41.456L178.199 40.9424C178.199 40.0232 178.172 39.7258 178.037 39.4285C177.875 39.1311 177.469 38.8878 177.037 38.8878C176.307 38.8878 175.604 39.2392 173.982 40.4558C171.927 42.0237 171.441 42.4562 170.278 43.7268V54.5132H165.98Z" fill="#C71B21"/>
<path d="M154.516 34.346V30.1829H156.841V34.346H154.516ZM157.544 34.346V30.1829H159.868V34.346H157.544ZM148.541 54.3509C144.784 54.3509 142.134 52.2152 142.134 49.2415C142.134 47.4844 142.945 45.9975 144.405 45.1054C145.351 44.5107 146.46 44.2674 148.082 44.2674C148.352 44.2674 148.947 44.2944 149.623 44.3214V39.7257H143.054V35.5085H149.623V30.8317H153.867V35.5085H158.246V39.7257H153.867V45.2135C156.246 46.1868 157.219 46.6463 158.652 47.4844V52.4856C156.678 51.1069 155.813 50.5662 154.218 49.7282C154.002 51.3231 153.678 52.0801 152.894 52.8911C151.975 53.8373 150.38 54.3509 148.541 54.3509ZM136.349 54.1076C135.917 51.2961 135.809 49.8633 135.809 46.4571C135.809 42.2939 136.079 38.4551 136.89 31.0479H141.432C140.323 38.0226 140.053 40.9422 140.053 46.1327C140.053 49.7552 140.188 51.188 140.837 54.1076H136.349ZM147.92 50.377C149.001 50.377 149.677 49.8633 149.677 48.9982C149.677 48.3494 148.92 47.8899 147.811 47.8899C147.028 47.8899 146.406 48.4305 146.406 49.1064C146.406 49.8633 147.028 50.377 147.92 50.377Z" fill="#C71B21"/>
<path d="M112.588 51.7018C111.236 53.7294 110.101 54.4863 107.587 54.9999V50.215C108.371 49.8906 108.695 49.7284 109.019 49.404C109.425 48.9985 109.83 48.1604 109.83 47.6738V43.4025H107.56V39.2123H114.21V48.1064C114.561 48.7822 115.129 49.4581 115.994 49.9717L117.535 47.9442H115.075V44.8623H118.103V43.8621H115.886V40.7803H118.103V39.78C116.481 39.753 116.102 39.753 115.724 39.4827C115.318 39.1853 115.075 38.5905 115.075 37.7525V34.0489H119.562V33.2379H115.156V30.4805H122.996V33.7245C122.996 35.698 122.347 36.2927 120.265 36.2927H118.697V37.0496H120.725C121.887 37.0496 122.455 36.8334 123.131 36.1846V39.0501C122.779 39.4556 122.644 39.5638 122.131 39.726V40.7803H124.942V39.78C124.05 39.1853 123.915 38.942 123.915 37.7525V34.0489H128.051V33.2379H123.915V30.4805H131.809V34.157C131.809 35.725 131.133 36.2927 129.349 36.2927H127.618V37.0496H130.268C130.944 37.0496 131.106 36.9685 132.187 36.1305V39.2123C131.646 39.753 131.187 39.9693 130.43 39.9693H128.862V40.7803H131.079V43.8621H128.862V44.8623H131.728V47.9442H129.457L131.43 50.0798H126.402L124.996 47.9442H122.185L120.59 50.0798H116.21C117.048 50.5124 118.13 50.7827 119.508 50.7827H132.539V54.5944H120.455C117.156 54.5944 116.156 54.4052 114.778 53.6212C114.156 53.2698 113.642 52.8373 112.588 51.7018ZM114.237 32.0755V36.7252C112.182 36.0224 109.939 35.4276 108.019 34.9951V30.5345C110.614 31.0211 111.642 31.2915 114.237 32.0755ZM122.131 44.8623H124.942V43.8621H122.131V44.8623Z" fill="#C71B21"/>
<path d="M277.184 8.83944V5.43506H279.244V8.83944H277.184ZM279.873 8.83944V5.43506H281.977V8.83944H279.873ZM264.998 24.7988C266.711 20.5054 267.383 18.2936 268.251 14.1737H264.998V10.4441H268.836C269.01 9.1647 269.053 8.70934 269.226 6.23736H272.804C272.674 7.88535 272.609 8.42745 272.371 10.4441H273.954C275.818 10.4441 276.599 10.7476 277.206 11.7017C277.792 12.6558 277.965 14.087 277.965 18.1202C277.965 20.6138 277.835 21.4595 277.336 22.522C276.816 23.6279 275.623 24.4736 274.365 24.6687C273.628 24.7988 273.498 24.7988 271.221 24.7988V21.221C271.525 21.2427 271.763 21.2427 271.894 21.2427C273.628 21.2427 274.149 20.5054 274.149 18.1202C274.149 16.277 274.062 14.9543 273.91 14.6941C273.737 14.3905 273.433 14.2387 272.913 14.1954C272.739 14.1737 272.652 14.1737 271.785 14.1737C270.853 18.4021 269.985 21.698 268.966 24.7988H264.998ZM279.743 20.462C279.808 19.2261 279.83 18.5972 279.83 17.5347C279.83 13.5449 279.721 13.0461 278.117 9.51164H281.825C283.213 11.9836 283.516 13.6533 283.516 18.9442L283.494 20.462H279.743Z" fill="#C71B21"/>
<path d="M235.984 25.384V20.4979H237.806C242.2 20.5268 244.456 19.4282 246.595 16.2189C248.012 14.224 250.238 9.59811 251.684 5.63717H237.979V0.866699H258.883C257.321 5.89738 256.02 9.19334 254.199 12.6628C257.408 17.1441 259.519 20.6714 261.658 25.066H255.384C254.112 22.0302 253.216 20.3244 251.51 17.5778C248.763 22.5507 244.947 25.0371 239.627 25.384H235.984Z" fill="#C71B21"/>
<path d="M207.421 23.8526V18.7641H217.309V6.47656H209.445V1.56152H230.868V6.47656H222.484V18.7641H232.343V23.8526H207.421Z" fill="#C71B21"/>
<path d="M179.116 15.1211V10.2061H202.795V15.1211H179.116Z" fill="#C71B21"/>
<path d="M151.158 25.0956V20.5853H157.316C160.844 20.672 162.636 18.9662 162.752 15.4968V10.1192H156.883C155.408 12.7791 153.5 14.1379 149.423 15.3233V10.1481C152.864 8.93379 154.136 6.50519 154.685 0H159.947C159.485 3.00684 159.369 3.64291 158.82 5.40653H174.403V10.1192H168.072V15.4968C168.043 21.2792 164.458 25.0377 158.964 25.0956H151.158Z" fill="#C71B21"/>
<path d="M121.292 15.1211V10.2061H144.97V15.1211H121.292Z" fill="#C71B21"/>
<path d="M105.824 25.385V11.912L100.764 19.6604C98.509 23.3611 96.2249 24.6333 91.4834 24.8357V19.7182C93.8831 19.6893 95.1841 19.0244 96.3695 17.1451L101.053 9.88818H91.8882V5.40682H105.824V0.260498H111.028V5.40682H116.608V9.88818H111.028V25.385H105.824Z" fill="#C71B21"/>
<g clip-path="url(#clip1_285_2885)">
<path d="M299.517 31.5V23.5L306.087 27.5025L299.517 31.5Z" fill="#EEEEEE" fill-opacity="0.929412"/>
<path d="M312.872 31.5V23.5L319.447 27.5025L312.872 31.5Z" fill="#EEEEEE" fill-opacity="0.929412"/>
<path d="M326.231 31.5V23.5L332.801 27.5025L326.231 31.5Z" fill="#EEEEEE" fill-opacity="0.929412"/>
<path d="M339.586 31.5V23.5L346.161 27.5025L339.586 31.5Z" fill="#EEEEEE" fill-opacity="0.929412"/>
<path d="M352.947 31.5V23.5L359.517 27.5025L352.947 31.5Z" fill="#EEEEEE" fill-opacity="0.929412"/>
</g>
<defs>
<clipPath id="clip0_285_2885">
<rect width="60" height="8" fill="white" transform="translate(15.4834 23.5)"/>
</clipPath>
<clipPath id="clip1_285_2885">
<rect width="60" height="8" fill="white" transform="translate(299.517 23.5)"/>
</clipPath>
</defs>
</svg>
