<svg width="239" height="38" viewBox="0 0 239 38" fill="none" xmlns="http://www.w3.org/2000/svg">
<path d="M7.12 36.76V21.36H1.4V16.24H3.52L4.52 14.4L1.96 10.16C1.44 9.48 1.2 8.88 1.2 8.32C1.2 7.92 1.36 7.36 1.56 6.96L4.68 0.759999H11.12L7.12 7.76L7.96 9.16L11.56 3.04H17.28L11.84 12.48H15.96L17.68 16.8V19.2C17.76 20.72 17.12 21.32 15.4 21.36H12.84V36.76H7.12ZM18.44 19.56V13.68C20.88 13 22.08 12.48 24.16 11.24C22.96 9.72 22.32 8.64 21.4 6.52H19.68V1.32H37.6V6.28C36.16 8.48 35.4 9.36 33.04 11.6C35 12.68 36.2 13.08 39 13.6V19.4C34.8 19.04 30.56 17.52 28 15.4C24.12 17.76 22.36 18.52 18.44 19.56ZM28.76 8.16L30.6 6.52H27.56C28 7.32 28.08 7.44 28.76 8.16ZM9.48 16.24H12.32L11.28 13.36L9.48 16.24ZM18.56 36.16V30.6H25.48V27.32H19.88V21.96H25.48V18H31.64V21.96H37.44V27.32H31.64V30.6H38.4V36.16H18.56ZM14.08 33V22.92H18.08V33H14.08ZM0.8 33.68C1.4 31.2 1.64 28.72 1.64 25.08L1.6 23.16H5.8L5.88 26.84C5.88 29.56 5.72 31.12 5.16 33.68H0.8ZM52.72 36.12V31.36C48.2 32.68 45.68 33.24 41.4 34V27.24C43.2 27 43.48 26.96 44.96 26.72V20.32H42.04V14.04H44.96V8.48H41.28V2.84H54V8.48H50.88V14.04H53.48V20.32H50.88V25.72C52.04 25.44 52.28 25.36 53.76 24.92V30.56H62.8V28.2H55.28V22.96H62.8V20.6H55.4V1.16H76.84V14.68C76.92 18.88 75.2 20.6 71.04 20.6H68.96V22.96H76.68V28.2H68.96V30.56H78.12V36.12H52.72ZM61.24 8.48H62.8V6.6H61.24V8.48ZM68.96 8.48H70.68V6.6H68.96V8.48ZM61.24 15.44H62.8V13.56H61.24V15.44ZM68.96 15.44H70.68V13.56H68.96V15.44ZM96.08 22.56V15.04H103.88V22.56H96.08ZM144.16 36.16V30H148.68V21.76C146.48 26.64 143.6 29.92 139.72 32V24.16C142.72 21.92 144.24 19.6 146.6 13.68H140.4V7.64H148.68V0.439998H155.28V7.64H158.24V13.68H155.28V29.56C155.36 34.28 153.48 36.2 148.76 36.16H144.16ZM120.92 36.64C122.6 34.48 123.2 33.36 124 30.68H122.76V0.839998H138.84V26.76C138.8 28.56 138.48 29.16 137 30.24C138.04 33.12 138.52 34.28 139.56 36.64H133C132.24 34.08 131.92 32.96 131.32 30.68H129.72C129.24 33.16 128.88 34.2 127.72 36.64H120.92ZM128.8 9.6H132.64V6.48H128.8V9.6ZM128.8 17.44H132.64V14.36H128.8V17.44ZM128.8 25.28H132.64V22.12H128.8V25.28ZM178.52 19.28V13.72C180.32 13.44 181.12 13.16 182.88 12.32C181.88 11.24 181.76 11.08 180.92 9.92L178.24 11.56V5.08C180.76 3.4 181.92 2.28 183.04 0.439998H189.92L188.2 2.76H197.8V7.24H196.32C194.56 10.12 193.96 10.92 192.56 12.48C194.36 13.16 196.04 13.44 198.52 13.48V19.12C194.36 18.88 190.28 17.8 187.84 16.28C184.88 17.84 182.08 18.72 178.52 19.28ZM163.84 36.64V31.2H166.68V25.76C164.92 29.4 163.72 30.92 161.48 32.4V24.28C163.72 22.04 164.44 20.88 165.4 18.32H161.56V13.12H164.88C163.96 10.96 163.48 9.92 162.4 7.72H167.48L168.72 10.2L170.32 6.6H162.2V1.44H177.12V6.2L173.64 13.12H177.8V21.2H183.44V18.44H189.36V21.2H197.48C197.44 27.76 197.08 31.92 196.48 32.88C195.4 35.2 193.4 36.12 189.64 36.08H186.64V31.8C184.76 34.52 181.64 36.08 177.04 36.64V30.76C180.52 30.12 182.4 28.76 182.6 26.64H177.4V22.8C176.92 24.72 175.96 25.32 173.4 25.32H172.04V31.36C172.2 35.28 171 36.56 167.12 36.64H163.84ZM187.56 9.32C188.48 8.4 188.6 8.24 189.36 7.32H185.56C186.4 8.32 186.52 8.48 187.56 9.32ZM172.04 20.4H173.4V18.32H172.04V20.4ZM187.28 30.72H189.12C190.76 30.72 191.2 30 191.2 27.28V26.64H188.6C188.16 28.6 188.08 28.88 187.28 30.72ZM238.4 37.52C235.44 36.56 234.32 35.88 232.04 33.68C229.72 35.6 228.4 36.32 225.56 37.16V33.68C224.16 35.12 223.48 35.36 220.32 35.32H215.28V19.04H226.2V30.32C227.36 30 227.56 29.88 228.6 29.04C227.36 26.08 226.64 22.28 226.4 17.68H214.12V36.84H208.76V33.04L201.08 34.28V28.24L202.84 28.12V6.88H201.32V1.4H215.6V4.48H218.2V0.319997H223.44V4.48H226.4V0.319997H231.48V2.96C231.52 5.96 231.56 8.04 231.56 8.96C231.56 9.56 231.6 10.88 231.64 12.44H238.28V17.68H231.68C231.8 20.72 231.92 21.76 232.44 24.08C233.08 22 233.24 21.08 233.44 18.88H238.76C238.44 22.76 237.4 26.2 235.8 29C236.52 29.76 236.92 30 238.4 30.56V37.52ZM233.28 10.28C232.72 6.12 232.6 5.44 232.08 3.12H237.12C237.68 5.36 238 6.84 238.52 10.28H233.28ZM207.52 10.48H209.12V6.88H207.52V10.48ZM214.12 12.6H216.48L215.88 9.48H215V6.88H214.12V12.6ZM220.24 12.6H221.16L221.76 9.48H219.68L220.24 12.6ZM224.84 12.6H226.4V9.48H225.68L224.84 12.6ZM207.52 18.92H209.12V15.28H207.52V18.92ZM219.48 25.12H221.52V23.36H219.48V25.12ZM207.52 27.6L209.12 27.48V23.76H207.52V27.6ZM219.48 30.32H221.52V28.52H219.48V30.32Z" fill="#C71B21"/>
</svg>
