<svg width="640" height="65" viewBox="0 0 640 65" fill="none" xmlns="http://www.w3.org/2000/svg">
<g clip-path="url(#clip0_145_414)">
<path d="M0 40.5549L0 24.4449L13.14 32.5049L0 40.5549Z" fill="white"/>
<path d="M26.7109 40.5549L26.7109 24.4449L39.8609 32.5049L26.7109 40.5549Z" fill="white"/>
<path d="M53.4297 40.5549V24.4449L66.5697 32.5049L53.4297 40.5549Z" fill="white"/>
<path d="M80.1406 40.5549V24.4449L93.2906 32.5049L80.1406 40.5549Z" fill="white"/>
<path d="M106.859 40.5549V24.4449L119.999 32.5049L106.859 40.5549Z" fill="white"/>
</g>
<path d="M205.632 53.736C205.632 58.856 203.072 61.416 197.952 61.416H186.56V52.008H194.368V42.984C190.4 47.528 179.392 54.952 170.56 58.664V46.824C175.552 44.904 181.76 41.448 187.776 37.032C182.016 35.176 176.384 33.768 172.352 32.872V23.208C180.224 24.68 185.472 25.96 189.184 27.176V35.944C190.976 34.536 192.704 33.128 194.368 31.592V20.264H172.352V10.856H194.368V3.304H205.632V10.856H213.76L210.496 4.264H221.952L224.64 10.856H227.776V20.264H205.632V24.232H209.984C210.304 26.664 210.432 27.432 211.136 29.8C216.896 28.008 222.016 26.152 227.776 23.72V34.024C224.256 35.112 218.304 36.904 214.592 37.992C218.816 42.664 221.76 44.584 229.44 47.464V58.856C222.976 57 219.008 55.08 214.592 51.752C210.432 48.616 208.192 45.928 205.632 41V53.736ZM293.12 60.84C287.232 59.176 282.56 56.488 276.928 51.56C270.336 45.544 267.584 41.32 264.192 31.848C259.712 46.248 249.408 56.36 234.688 60.776V48.168C242.944 45.544 248.896 39.976 253.568 30.696C256.384 24.872 257.792 17.256 257.792 7.528V3.688H269.12V7.592C269.184 17.576 271.168 25.832 275.136 32.744C278.784 39.336 287.36 46.76 293.12 48.424V60.84ZM330.32 60.456C317.36 60.456 313.904 60.264 311.12 59.304C308.624 58.488 306.752 56.616 305.696 53.88C305.264 52.824 305.072 51.816 305.072 50.76C305.072 47.64 307.232 44.52 311.024 42.312C313.568 40.776 315.632 40.008 320.864 38.664C320.864 37.08 320.768 36.408 320.48 35.88C320.096 35.208 319.376 34.824 318.512 34.824C315.68 34.824 312.608 36.744 309.584 40.536H300.32C304.16 35.688 306.128 32.856 309.296 27.576H300.656V20.808H313.52L315.296 17.208H323.888L322.448 20.808H337.52V27.576H318.272L316.304 31.08C319.328 29.448 320.96 28.92 322.976 28.92C325.376 28.92 327.248 30.024 328.352 32.04C328.88 33.096 329.024 34.056 329.024 37.08L339.872 35.928V43.608L329.024 44.424V50.52H320.864V45.816C315.488 47.208 313.808 48.36 313.808 50.616C313.808 52.776 315.056 53.352 319.856 53.352C324.704 53.352 331.136 53.112 337.328 52.68V60.312C333.92 60.408 332.624 60.456 330.32 60.456ZM352.064 22.824H346.112V13.864H352.064V3.496H361.856V13.864H367.04V22.824H361.856V30.888L367.168 29.8V38.696L361.856 40.04V52.712C361.856 58.6 358.848 61.288 352.064 61.288H347.136V51.688H352.064V41.96L345.856 42.856V33.064L352.064 32.424V22.824ZM384.256 16.808C383.168 20.904 381.44 25.256 378.88 29.48H368.256C370.752 25.512 372.48 22.12 373.824 18.408H368.512V4.328H404.544V18.408H398.656C400.192 21.928 402.368 25.704 404.672 29.48H393.28C390.848 25.064 389.248 21.544 387.712 16.808H394.112V12.52H377.92V16.808H384.256ZM367.168 60.456V50.216C371.904 48.552 375.232 45.672 377.344 41.192H368.704V32.68H381.12V27.88H391.424V32.872H404.608V41.192H395.264C398.72 45.864 401.152 48.04 405.568 49.768V60.456C402.048 59.496 400.128 58.152 397.056 55.912C394.304 53.864 392.384 51.688 391.104 49.512V61.416H380.992V50.408C378.88 53.672 377.6 55.08 375.168 56.808C372.736 58.536 370.56 59.56 367.168 60.456ZM421.12 61.288V50.984H431.424C438.912 50.984 440.384 49.96 440.896 44.456C437.504 46.056 435.648 46.504 432.704 46.504C425.6 46.504 420.288 41.64 420.288 35.112C420.288 31.784 421.696 28.84 424.576 26.344C427.328 23.976 430.144 23.016 434.56 23.016C436.48 23.016 437.76 23.208 440.384 23.784V20.392L412.288 20.712V10.856L440.384 10.664V4.008H451.776V10.472L466.688 10.28V20.264L451.776 20.392V44.648C451.84 49.768 450.816 52.968 447.936 56.296C444.224 60.136 440.832 61.288 433.024 61.288H421.12ZM435.264 37.736C438.144 37.736 440.064 36.392 440.064 34.408C440.064 32.744 438.208 31.592 435.584 31.592C433.088 31.592 430.848 33.128 430.848 34.792C430.848 36.52 432.64 37.736 435.264 37.736Z" fill="white"/>
<g clip-path="url(#clip1_145_414)">
<path d="M520 40.5549V24.4449L533.14 32.5049L520 40.5549Z" fill="white"/>
<path d="M546.711 40.5549V24.4449L559.861 32.5049L546.711 40.5549Z" fill="white"/>
<path d="M573.43 40.5549V24.4449L586.57 32.5049L573.43 40.5549Z" fill="white"/>
<path d="M600.141 40.5549V24.4449L613.291 32.5049L600.141 40.5549Z" fill="white"/>
<path d="M626.859 40.5549V24.4449L639.999 32.5049L626.859 40.5549Z" fill="white"/>
</g>
<defs>
<clipPath id="clip0_145_414">
<rect width="120" height="16.11" fill="white" transform="translate(0 24.4449)"/>
</clipPath>
<clipPath id="clip1_145_414">
<rect width="120" height="16.11" fill="white" transform="translate(520 24.4449)"/>
</clipPath>
</defs>
</svg>
