<svg width="641" height="60" viewBox="0 0 641 60" fill="none" xmlns="http://www.w3.org/2000/svg">
<g clip-path="url(#clip0_98_110)">
<path d="M0.5 38.0551L0.5 21.9451L13.64 30.0051L0.5 38.0551Z" fill="#C71B21"/>
<path d="M27.2109 38.0551L27.2109 21.9451L40.3609 30.0051L27.2109 38.0551Z" fill="#C71B21"/>
<path d="M53.9297 38.0551V21.9451L67.0697 30.0051L53.9297 38.0551Z" fill="#C71B21"/>
<path d="M80.6406 38.0551V21.9451L93.7906 30.0051L80.6406 38.0551Z" fill="#C71B21"/>
<path d="M107.359 38.0551V21.9451L120.499 30.0051L107.359 38.0551Z" fill="#C71B21"/>
</g>
<path d="M206.132 51.236C206.132 56.356 203.572 58.916 198.452 58.916H187.06V49.508H194.868V40.484C190.9 45.028 179.892 52.452 171.06 56.164V44.324C176.052 42.404 182.26 38.948 188.276 34.532C182.516 32.676 176.884 31.268 172.852 30.372V20.708C180.724 22.18 185.972 23.46 189.684 24.676V33.444C191.476 32.036 193.204 30.628 194.868 29.092V17.764H172.852V8.356H194.868V0.803997H206.132V8.356H214.26L210.996 1.764H222.452L225.14 8.356H228.276V17.764H206.132V21.732H210.484C210.804 24.164 210.932 24.932 211.636 27.3C217.396 25.508 222.516 23.652 228.276 21.22V31.524C224.756 32.612 218.804 34.404 215.092 35.492C219.316 40.164 222.26 42.084 229.94 44.964V56.356C223.476 54.5 219.508 52.58 215.092 49.252C210.932 46.116 208.692 43.428 206.132 38.5V51.236ZM293.62 58.34C287.732 56.676 283.06 53.988 277.428 49.06C270.836 43.044 268.084 38.82 264.692 29.348C260.212 43.748 249.908 53.86 235.188 58.276V45.668C243.444 43.044 249.396 37.476 254.068 28.196C256.884 22.372 258.292 14.756 258.292 5.028V1.188H269.62V5.092C269.684 15.076 271.668 23.332 275.636 30.244C279.284 36.836 287.86 44.26 293.62 45.924V58.34ZM330.82 57.956C317.86 57.956 314.404 57.764 311.62 56.804C309.124 55.988 307.252 54.116 306.196 51.38C305.764 50.324 305.572 49.316 305.572 48.26C305.572 45.14 307.732 42.02 311.524 39.812C314.068 38.276 316.132 37.508 321.364 36.164C321.364 34.58 321.268 33.908 320.98 33.38C320.596 32.708 319.876 32.324 319.012 32.324C316.18 32.324 313.108 34.244 310.084 38.036H300.82C304.66 33.188 306.628 30.356 309.796 25.076H301.156V18.308H314.02L315.796 14.708H324.388L322.948 18.308H338.02V25.076H318.772L316.804 28.58C319.828 26.948 321.46 26.42 323.476 26.42C325.876 26.42 327.748 27.524 328.852 29.54C329.38 30.596 329.524 31.556 329.524 34.58L340.372 33.428V41.108L329.524 41.924V48.02H321.364V43.316C315.988 44.708 314.308 45.86 314.308 48.116C314.308 50.276 315.556 50.852 320.356 50.852C325.204 50.852 331.636 50.612 337.828 50.18V57.812C334.42 57.908 333.124 57.956 330.82 57.956ZM352.564 20.324H346.612V11.364H352.564V0.995998H362.356V11.364H367.54V20.324H362.356V28.388L367.668 27.3V36.196L362.356 37.54V50.212C362.356 56.1 359.348 58.788 352.564 58.788H347.636V49.188H352.564V39.46L346.356 40.356V30.564L352.564 29.924V20.324ZM384.756 14.308C383.668 18.404 381.94 22.756 379.38 26.98H368.756C371.252 23.012 372.98 19.62 374.324 15.908H369.012V1.828H405.044V15.908H399.156C400.692 19.428 402.868 23.204 405.172 26.98H393.78C391.348 22.564 389.748 19.044 388.212 14.308H394.612V10.02H378.42V14.308H384.756ZM367.668 57.956V47.716C372.404 46.052 375.732 43.172 377.844 38.692H369.204V30.18H381.62V25.38H391.924V30.372H405.108V38.692H395.764C399.22 43.364 401.652 45.54 406.068 47.268V57.956C402.548 56.996 400.628 55.652 397.556 53.412C394.804 51.364 392.884 49.188 391.604 47.012V58.916H381.492V47.908C379.38 51.172 378.1 52.58 375.668 54.308C373.236 56.036 371.06 57.06 367.668 57.956ZM421.62 58.788V48.484H431.924C439.412 48.484 440.884 47.46 441.396 41.956C438.004 43.556 436.148 44.004 433.204 44.004C426.1 44.004 420.788 39.14 420.788 32.612C420.788 29.284 422.196 26.34 425.076 23.844C427.828 21.476 430.644 20.516 435.06 20.516C436.98 20.516 438.26 20.708 440.884 21.284V17.892L412.788 18.212V8.356L440.884 8.164V1.508H452.276V7.972L467.188 7.78V17.764L452.276 17.892V42.148C452.34 47.268 451.316 50.468 448.436 53.796C444.724 57.636 441.332 58.788 433.524 58.788H421.62ZM435.764 35.236C438.644 35.236 440.564 33.892 440.564 31.908C440.564 30.244 438.708 29.092 436.084 29.092C433.588 29.092 431.348 30.628 431.348 32.292C431.348 34.02 433.14 35.236 435.764 35.236Z" fill="#C71B21"/>
<g clip-path="url(#clip1_98_110)">
<path d="M520.5 38.0551V21.9451L533.64 30.0051L520.5 38.0551Z" fill="#C71B21"/>
<path d="M547.211 38.0551V21.9451L560.361 30.0051L547.211 38.0551Z" fill="#C71B21"/>
<path d="M573.93 38.0551V21.9451L587.07 30.0051L573.93 38.0551Z" fill="#C71B21"/>
<path d="M600.641 38.0551V21.9451L613.791 30.0051L600.641 38.0551Z" fill="#C71B21"/>
<path d="M627.359 38.0551V21.9451L640.499 30.0051L627.359 38.0551Z" fill="#C71B21"/>
</g>
<defs>
<clipPath id="clip0_98_110">
<rect width="120" height="16.11" fill="white" transform="translate(0.5 21.9451)"/>
</clipPath>
<clipPath id="clip1_98_110">
<rect width="120" height="16.11" fill="white" transform="translate(520.5 21.9451)"/>
</clipPath>
</defs>
</svg>
