<svg width="784" height="65" viewBox="0 0 784 65" fill="none" xmlns="http://www.w3.org/2000/svg">
<g clip-path="url(#clip0_98_196)">
<path d="M0 40.1759L0 24.0659L13.14 32.1259L0 40.1759Z" fill="#EEEEEE" fill-opacity="0.929412"/>
<path d="M26.7109 40.1759L26.7109 24.0659L39.8609 32.1259L26.7109 40.1759Z" fill="#EEEEEE" fill-opacity="0.929412"/>
<path d="M53.4297 40.1759V24.0659L66.5697 32.1259L53.4297 40.1759Z" fill="#EEEEEE" fill-opacity="0.929412"/>
<path d="M80.1406 40.1759V24.0659L93.2906 32.1259L80.1406 40.1759Z" fill="#EEEEEE" fill-opacity="0.929412"/>
<path d="M106.859 40.1759V24.0659L119.999 32.1259L106.859 40.1759Z" fill="#EEEEEE" fill-opacity="0.929412"/>
</g>
<path d="M147.584 60.6651V52.1531H137.856V43.9611H147.584V41.1451H139.264V16.4411H147.584V14.1371H137.856V6.71309H147.584V2.23309H157.056V6.71309H166.784V14.1371H157.056V16.4411H165.888V33.9771C165.952 39.4811 164.352 41.2731 159.616 41.1451H157.056V43.9611H166.464V49.9771L169.088 49.7211L172.544 32.2491H167.424V22.9051H196.992V32.2491H182.656L179.392 48.5691C181.376 48.1851 181.824 48.1211 184.384 47.4811C183.552 43.9611 183.36 43.3211 182.016 39.1611H191.616C193.728 44.3451 195.84 51.0651 198.016 59.7051H187.456L186.624 56.0571C179.52 58.1051 175.232 58.8091 166.016 59.6411V52.1531H157.056V60.6651H147.584ZM169.536 14.0731V5.43309H195.584V14.0731H169.536ZM147.328 25.5291H149.504V23.4811H147.328V25.5291ZM155.328 25.5291H157.76V23.4811H155.328V25.5291ZM147.328 33.9771H149.504V31.0971H147.328V33.9771ZM155.328 33.9771H157.76V31.0971H155.328V33.9771ZM261.44 61.7531C256.704 60.2171 254.912 59.1291 251.264 55.6091C247.552 58.6811 245.44 59.8331 240.896 61.1771V55.6091C238.656 57.9131 237.568 58.2971 232.512 58.2331H224.448V32.1851H241.92V50.2331C243.776 49.7211 244.096 49.5291 245.76 48.1851C243.776 43.4491 242.624 37.3691 242.24 30.0091H222.592V60.6651H214.016V54.5851L201.728 56.5691V46.9051L204.544 46.7131V12.7291H202.112V3.96109H224.96V8.88909H229.12V2.23309H237.504V8.88909H242.24V2.23309H250.368V6.45709C250.432 11.2571 250.496 14.5851 250.496 16.0571C250.496 17.0171 250.56 19.1291 250.624 21.6251H261.248V30.0091H250.688C250.88 34.8731 251.072 36.5371 251.904 40.2491C252.928 36.9211 253.184 35.4491 253.504 31.9291H262.016C261.504 38.1371 259.84 43.6411 257.28 48.1211C258.432 49.3371 259.072 49.7211 261.44 50.6171V61.7531ZM253.248 18.1691C252.352 11.5131 252.16 10.4251 251.328 6.71309H259.392C260.288 10.2971 260.8 12.6651 261.632 18.1691H253.248ZM212.032 18.4891H214.592V12.7291H212.032V18.4891ZM222.592 21.8811H226.368L225.408 16.8891H224V12.7291H222.592V21.8811ZM232.384 21.8811H233.856L234.816 16.8891H231.488L232.384 21.8811ZM239.744 21.8811H242.24V16.8891H241.088L239.744 21.8811ZM212.032 31.9931H214.592V26.1691H212.032V31.9931ZM231.168 41.9131H234.432V39.0971H231.168V41.9131ZM212.032 45.8811L214.592 45.6891V39.7371H212.032V45.8811ZM231.168 50.2331H234.432V47.3531H231.168V50.2331ZM266.56 26.9371V18.6811H285.76V15.1611H270.464V6.84109H285.76V2.36109H296.704V6.84109H309.504C310.528 5.88109 311.488 4.53709 312.256 3.44909H324.352C320.448 9.84909 316.416 15.1611 313.152 18.6811H325.44V26.9371H306.112C304.512 28.2171 303.232 29.2411 301.44 30.3931H320.448V51.1291C320.448 54.0731 319.68 56.5691 318.016 58.1051C316.288 59.7051 313.984 60.1531 308.672 60.1531H276.096V42.3611C272.192 43.7691 270.912 44.2171 266.56 45.3691V34.4251C274.368 32.8251 283.2 30.0091 288.384 26.9371H266.56ZM304.064 15.1611H296.704V18.6811H300.416C301.568 17.6571 303.04 16.3131 304.064 15.1611ZM287.104 40.8891H309.44V37.6891H287.104V40.8891ZM287.104 51.4491H309.44V47.9931H287.104V51.4491ZM331.712 59.9611V49.1451H335.744C345.472 49.2091 350.464 46.7771 355.2 39.6731C358.336 35.2571 363.264 25.0171 366.464 16.2491H336.128V5.68909H382.4C378.944 16.8251 376.064 24.1211 372.032 31.8011C379.136 41.7211 383.808 49.5291 388.544 59.2571H374.656C371.84 52.5371 369.856 48.7611 366.08 42.6811C360 53.6891 351.552 59.1931 339.776 59.9611H331.712ZM404.288 60.1531V3.44909H416V20.5371C430.912 24.1211 436.352 25.6571 445.76 28.9211V40.7611C437.184 37.6251 429.12 35.2571 416 32.0571V60.1531H404.288ZM461.824 37.2411V26.3611H514.24V37.2411H461.824ZM528.128 58.5531V47.6091H548.224C560.192 47.4811 564.224 43.0011 563.968 30.2011V3.57709H575.616V28.9211C575.616 40.4411 574.336 45.9451 570.56 50.6171C566.272 55.9291 559.104 58.5531 549.056 58.5531H528.128ZM528.192 38.6491V3.83309H539.84V38.6491H528.192ZM589.824 37.2411V26.3611H642.24V37.2411H589.824Z" fill="#C71B21"/>
<g clip-path="url(#clip1_98_196)">
<path d="M664 40.1759V24.0659L677.14 32.1259L664 40.1759Z" fill="#EEEEEE" fill-opacity="0.929412"/>
<path d="M690.711 40.1759V24.0659L703.861 32.1259L690.711 40.1759Z" fill="#EEEEEE" fill-opacity="0.929412"/>
<path d="M717.43 40.1759V24.0659L730.57 32.1259L717.43 40.1759Z" fill="#EEEEEE" fill-opacity="0.929412"/>
<path d="M744.141 40.1759V24.0659L757.291 32.1259L744.141 40.1759Z" fill="#EEEEEE" fill-opacity="0.929412"/>
<path d="M770.859 40.1759V24.0659L783.999 32.1259L770.859 40.1759Z" fill="#EEEEEE" fill-opacity="0.929412"/>
</g>
<defs>
<clipPath id="clip0_98_196">
<rect width="120" height="16.11" fill="white" transform="translate(0 24.0659)"/>
</clipPath>
<clipPath id="clip1_98_196">
<rect width="120" height="16.11" fill="white" transform="translate(664 24.0659)"/>
</clipPath>
</defs>
</svg>
