<svg width="737" height="61" viewBox="0 0 737 61" fill="none" xmlns="http://www.w3.org/2000/svg">
<g clip-path="url(#clip0_98_168)">
<path d="M0.5 38.1759L0.5 22.0659L13.64 30.1259L0.5 38.1759Z" fill="#EEEEEE" fill-opacity="0.929412"/>
<path d="M27.2109 38.1759L27.2109 22.0659L40.3609 30.1259L27.2109 38.1759Z" fill="#EEEEEE" fill-opacity="0.929412"/>
<path d="M53.9297 38.1759V22.0659L67.0697 30.1259L53.9297 38.1759Z" fill="#EEEEEE" fill-opacity="0.929412"/>
<path d="M80.6406 38.1759V22.0659L93.7906 30.1259L80.6406 38.1759Z" fill="#EEEEEE" fill-opacity="0.929412"/>
<path d="M107.359 38.1759V22.0659L120.499 30.1259L107.359 38.1759Z" fill="#EEEEEE" fill-opacity="0.929412"/>
</g>
<path d="M169.396 1.06509H178.42L178.1 2.79309C190.004 2.60109 193.844 2.34509 200.18 1.06509V8.55309C195.188 9.32109 194.996 9.32109 191.86 9.57709V11.0491H201.076V13.7371H203.636V1.06509H211.7V13.7371H221.876C221.876 33.4491 221.428 45.8011 221.108 49.8971C220.724 54.7611 218.612 58.2171 212.66 58.2171H208.884V51.1771C207.476 54.3131 204.468 57.2571 200.82 58.4731V56.1051C194.612 57.1931 184.628 58.0251 175.412 58.2171V50.7931C177.652 50.7931 179.764 50.7291 183.86 50.4731V48.2971H175.412V42.0891H183.86V40.2971H175.412V19.9451H183.86V18.1531H175.156V14.9531L173.428 19.4971V58.7291H164.852V31.5291L162.228 35.1771V20.4571C165.94 15.4651 168.052 9.76909 169.396 1.06509ZM176.564 11.0491H183.86V9.76909H176.884L176.564 11.0491ZM200.82 19.9451V18.1531H191.86V19.9451H200.82ZM191.86 42.0891H201.076V47.5931C201.908 46.2491 202.548 44.8411 202.996 42.6011C203.38 40.5531 203.636 36.5211 203.636 33.3211V23.4651H201.076V32.8731C201.076 38.3771 199.156 40.2971 193.844 40.2971H191.86V42.0891ZM213.62 23.4651H211.7V34.1531C211.7 35.6251 211.572 41.0651 211.252 43.4331C210.932 45.6091 210.484 47.7851 209.844 49.1291C212.212 49.1291 212.98 48.2331 213.108 45.9291C213.236 43.6251 213.62 37.0971 213.62 23.4651ZM182.004 27.4971H184.372V25.3851H182.004V27.4971ZM191.348 27.4971H193.716V25.3851H191.348V27.4971ZM182.004 34.5371H184.372V32.3611H182.004V34.5371ZM191.348 34.5371H193.716V32.3611H191.348V34.5371ZM191.86 48.2971V50.0251C194.42 49.8971 198.58 49.6411 200.82 49.3851V48.2971H191.86ZM260.404 42.0251L258.036 33.3851L230.708 33.7691V23.5931L255.476 23.3371L253.556 16.8091L232.82 17.1931V7.52909L250.74 7.40109L248.884 1.38509H260.468L262.26 7.20909L279.924 6.88909V16.4251L264.884 16.6811L266.868 23.0811L282.292 22.8891V33.0011L269.556 33.1931L271.924 42.0251H260.404ZM257.908 58.0891C248.5 58.0891 243.38 57.5771 239.604 56.2331C235.252 54.6331 232.244 50.6011 232.244 46.4411C232.244 43.7531 233.524 40.1051 235.38 37.8011H246.004C244.148 42.5371 244.084 42.7291 244.084 44.0731C244.084 46.5691 247.476 47.7851 254.516 47.7851C261.748 47.7851 268.724 47.3371 279.796 46.2491V57.0651C269.748 57.8331 264.628 58.0891 257.908 58.0891ZM291.828 59.1131V47.9131C297.396 46.6331 301.684 43.0491 304.052 37.8011C306.1 33.1291 306.74 27.8811 306.74 17.7691H292.02V7.59309H314.484V0.873093H326.452V7.59309H348.084V17.7691H317.94V22.6971H344.564C344.244 38.8891 343.924 44.3931 343.092 47.5291C342.26 50.8571 340.34 53.8011 337.78 55.6571C334.26 58.0251 332.852 58.2811 324.148 58.3451H316.724V48.1051H325.236C332.532 48.0411 332.596 47.8491 332.788 34.7931L332.852 32.6171H317.108C315.124 46.7611 305.524 56.8091 291.828 59.1131ZM372.756 56.6171C372.084 56.6171 371.124 56.6171 369.972 56.5691V48.6011C370.836 48.6491 372.18 48.6491 372.372 48.6491C374.916 48.6491 375.828 48.0731 376.308 46.2011C376.596 45.1451 376.884 42.0731 376.884 39.8171C376.884 37.9931 376.644 35.2091 376.404 34.4891C376.068 33.4331 374.916 32.6651 373.62 32.6651H371.028C368.628 45.0491 367.38 49.8011 364.932 56.3771H355.956C359.22 48.4091 361.524 40.7771 363.012 32.7131L356.004 33.0491V24.5531H364.356C364.692 21.9131 364.836 20.0411 365.028 15.5771H373.332C373.14 18.7931 372.996 20.5211 372.42 24.5531H376.932C380.34 24.5531 383.124 26.0891 384.18 28.5851C385.14 30.7451 385.62 34.5371 385.62 39.4811C385.62 45.5291 385.14 49.1771 383.988 51.5771C382.404 54.9371 378.66 56.6171 372.756 56.6171ZM389.556 45.8171C389.7 42.5051 389.748 40.8731 389.748 38.9531C389.748 32.6171 389.412 29.9291 388.26 26.9531C387.348 24.6011 386.532 23.0171 385.188 21.0011H393.54C396.132 23.9291 396.996 26.1851 397.716 31.6091C398.052 34.0091 398.196 37.0331 398.196 40.6331C398.196 41.8331 398.148 43.1291 398.1 45.8171H389.556ZM437.7 23.7371C426.084 22.9691 419.892 22.7291 412.404 22.7291H407.172V15.3371C423.924 15.5291 424.98 15.5771 437.7 16.2491V23.7371ZM407.508 56.8571V48.7931H418.164C426.084 48.7931 426.42 48.7931 428.196 48.6491C431.268 48.4091 432.372 48.0251 433.188 47.0171C433.908 46.0571 434.292 44.9531 434.292 43.8491C434.292 40.9691 431.844 39.2891 427.716 39.2891C424.5 39.2891 421.284 40.2491 418.692 41.9291C417.492 42.6971 416.676 43.4171 415.14 45.1451H407.508V25.7051H415.764V36.0731C422.1 32.9051 425.556 31.8971 429.732 31.8971C437.892 31.8971 443.604 36.7451 443.604 43.7531C443.604 48.6491 441.252 52.7771 437.22 54.9371C435.108 56.0891 432.948 56.5691 428.82 56.7611C426.804 56.8571 425.268 56.8571 418.212 56.8571H407.508ZM456.564 19.9451H450.612V10.9851H456.564V0.617092H466.356V10.9851H471.54V19.9451H466.356V28.0091L471.668 26.9211V35.8171L466.356 37.1611V49.8331C466.356 55.7211 463.348 58.4091 456.564 58.4091H451.636V48.8091H456.564V39.0811L450.356 39.9771V30.1851L456.564 29.5451V19.9451ZM488.756 13.9291C487.668 18.0251 485.94 22.3771 483.38 26.6011H472.756C475.252 22.6331 476.98 19.2411 478.324 15.5291H473.012V1.44909H509.044V15.5291H503.156C504.692 19.0491 506.868 22.8251 509.172 26.6011H497.78C495.348 22.1851 493.748 18.6651 492.212 13.9291H498.612V9.64109H482.42V13.9291H488.756ZM471.668 57.5771V47.3371C476.404 45.6731 479.732 42.7931 481.844 38.3131H473.204V29.8011H485.62V25.0011H495.924V29.9931H509.108V38.3131H499.764C503.22 42.9851 505.652 45.1611 510.068 46.8891V57.5771C506.548 56.6171 504.628 55.2731 501.556 53.0331C498.804 50.9851 496.884 48.8091 495.604 46.6331V58.5371H485.492V47.5291C483.38 50.7931 482.1 52.2011 479.668 53.9291C477.236 55.6571 475.06 56.6811 471.668 57.5771ZM525.62 58.4091V48.1051H535.924C543.412 48.1051 544.884 47.0811 545.396 41.5771C542.004 43.1771 540.148 43.6251 537.204 43.6251C530.1 43.6251 524.788 38.7611 524.788 32.2331C524.788 28.9051 526.196 25.9611 529.076 23.4651C531.828 21.0971 534.644 20.1371 539.06 20.1371C540.98 20.1371 542.26 20.3291 544.884 20.9051V17.5131L516.788 17.8331V7.97709L544.884 7.78509V1.12909H556.276V7.59309L571.188 7.40109V17.3851L556.276 17.5131V41.7691C556.34 46.8891 555.316 50.0891 552.436 53.4171C548.724 57.2571 545.332 58.4091 537.524 58.4091H525.62ZM539.764 34.8571C542.644 34.8571 544.564 33.5131 544.564 31.5291C544.564 29.8651 542.708 28.7131 540.084 28.7131C537.588 28.7131 535.348 30.2491 535.348 31.9131C535.348 33.6411 537.14 34.8571 539.764 34.8571Z" fill="#C71B21"/>
<g clip-path="url(#clip1_98_168)">
<path d="M616.5 38.1759V22.0659L629.64 30.1259L616.5 38.1759Z" fill="#EEEEEE" fill-opacity="0.929412"/>
<path d="M643.211 38.1759V22.0659L656.361 30.1259L643.211 38.1759Z" fill="#EEEEEE" fill-opacity="0.929412"/>
<path d="M669.93 38.1759V22.0659L683.07 30.1259L669.93 38.1759Z" fill="#EEEEEE" fill-opacity="0.929412"/>
<path d="M696.641 38.1759V22.0659L709.791 30.1259L696.641 38.1759Z" fill="#EEEEEE" fill-opacity="0.929412"/>
<path d="M723.359 38.1759V22.0659L736.499 30.1259L723.359 38.1759Z" fill="#EEEEEE" fill-opacity="0.929412"/>
</g>
<defs>
<clipPath id="clip0_98_168">
<rect width="120" height="16.11" fill="white" transform="translate(0.5 22.0659)"/>
</clipPath>
<clipPath id="clip1_98_168">
<rect width="120" height="16.11" fill="white" transform="translate(616.5 22.0659)"/>
</clipPath>
</defs>
</svg>
