<svg width="343" height="26" viewBox="0 0 343 26" fill="none" xmlns="http://www.w3.org/2000/svg">
<g clip-path="url(#clip0_287_3509)">
<path d="M0 16.937L0 8.93701L6.57 12.9395L0 16.937Z" fill="#EEEEEE" fill-opacity="0.929412"/>
<path d="M13.355 16.937L13.355 8.93701L19.93 12.9395L13.355 16.937Z" fill="#EEEEEE" fill-opacity="0.929412"/>
<path d="M26.7148 16.937V8.93701L33.2848 12.9395L26.7148 16.937Z" fill="#EEEEEE" fill-opacity="0.929412"/>
<path d="M40.0698 16.937V8.93701L46.6448 12.9395L40.0698 16.937Z" fill="#EEEEEE" fill-opacity="0.929412"/>
<path d="M53.4302 16.937V8.93701L60.0002 12.9395L53.4302 16.937Z" fill="#EEEEEE" fill-opacity="0.929412"/>
</g>
<path d="M239.307 25.1361V20.7324H243.711C246.911 20.7324 247.54 20.2948 247.759 17.9425C246.309 18.6263 245.516 18.8177 244.258 18.8177C241.222 18.8177 238.951 16.739 238.951 13.949C238.951 12.5267 239.553 11.2685 240.784 10.2017C241.96 9.1897 243.164 8.77942 245.051 8.77942C245.871 8.77942 246.418 8.86147 247.54 9.10764V7.65797L235.532 7.79473V3.58247L247.54 3.50041V0.655762H252.409V3.41835L258.782 3.33629V7.60326L252.409 7.65797V18.0245C252.436 20.2127 251.998 21.5803 250.767 23.0026C249.181 24.6438 247.731 25.1361 244.394 25.1361H239.307ZM245.352 15.0705C246.583 15.0705 247.403 14.4961 247.403 13.6481C247.403 12.937 246.61 12.4446 245.488 12.4446C244.422 12.4446 243.464 13.1011 243.464 13.8123C243.464 14.5508 244.23 15.0705 245.352 15.0705Z" fill="#C71B21"/>
<path d="M209.793 8.69743H207.25V4.86809H209.793V0.437012H213.978V4.86809H216.194V8.69743H213.978V12.1438L216.248 11.6788V15.4808L213.978 16.0552V21.471C213.978 23.9874 212.693 25.1362 209.793 25.1362H207.687V21.0333H209.793V16.8758L207.14 17.2587V13.0738L209.793 12.8003V8.69743ZM223.552 6.1263C223.087 7.87686 222.348 9.73682 221.254 11.5421H216.713C217.78 9.84623 218.519 8.39655 219.093 6.81011H216.823V0.792593H232.222V6.81011H229.706C230.362 8.31449 231.292 9.92828 232.277 11.5421H227.408C226.369 9.65476 225.685 8.15038 225.029 6.1263H227.764V4.29369H220.844V6.1263H223.552ZM216.248 24.7806V20.4042C218.273 19.6931 219.695 18.4622 220.598 16.5476H216.905V12.9097H222.211V10.8583H226.615V12.9917H232.25V16.5476H228.256C229.733 18.5443 230.773 19.4743 232.66 20.2128V24.7806C231.156 24.3703 230.335 23.7959 229.022 22.8386C227.846 21.9633 227.025 21.0333 226.478 20.1034V25.1909H222.157V20.4863C221.254 21.8813 220.707 22.483 219.668 23.2215C218.628 23.96 217.698 24.3977 216.248 24.7806Z" fill="#C71B21"/>
<path d="M201.731 10.318C196.767 9.98979 194.12 9.88722 190.92 9.88722H188.684V6.72803C195.844 6.81008 196.295 6.8306 201.731 7.1178V10.318ZM188.828 24.4729V21.0265H193.382C196.767 21.0265 196.91 21.0265 197.669 20.9649C198.982 20.8624 199.454 20.6982 199.803 20.2674C200.111 19.8572 200.275 19.3853 200.275 18.9135C200.275 17.6826 199.228 16.9646 197.464 16.9646C196.09 16.9646 194.715 17.3749 193.608 18.0929C193.095 18.4212 192.746 18.7289 192.089 19.4674H188.828V11.1591H192.356V15.5902C195.064 14.2362 196.541 13.8055 198.326 13.8055C201.813 13.8055 204.254 15.8774 204.254 18.8725C204.254 20.9649 203.249 22.7292 201.526 23.6523C200.623 24.1446 199.7 24.3498 197.936 24.4318C197.074 24.4729 196.418 24.4729 193.402 24.4729H188.828Z" fill="#C71B21"/>
<path d="M173.975 24.3703C173.688 24.3703 173.278 24.3703 172.786 24.3498V20.9444C173.155 20.9649 173.729 20.9649 173.811 20.9649C174.899 20.9649 175.288 20.7187 175.493 19.9187C175.617 19.4674 175.74 18.1544 175.74 17.1903C175.74 16.4107 175.637 15.2209 175.534 14.9132C175.391 14.4619 174.899 14.1336 174.345 14.1336H173.237C172.211 19.4263 171.678 21.4572 170.632 24.2677H166.795C168.19 20.8623 169.175 17.6006 169.811 14.1542L166.816 14.2978V10.6667H170.385C170.529 9.53845 170.591 8.73839 170.673 6.83057H174.222C174.14 8.20502 174.078 8.94354 173.832 10.6667H175.76C177.217 10.6667 178.406 11.3232 178.858 12.3899C179.268 13.3131 179.473 14.9337 179.473 17.0467C179.473 19.6315 179.268 21.1906 178.776 22.2163C178.099 23.6523 176.499 24.3703 173.975 24.3703ZM181.155 19.7546C181.217 18.3391 181.237 17.6416 181.237 16.821C181.237 14.1131 181.094 12.9643 180.602 11.6924C180.212 10.6873 179.863 10.0103 179.289 9.14868H182.858C183.966 10.4001 184.335 11.3642 184.643 13.6823C184.786 14.708 184.848 16.0004 184.848 17.539C184.848 18.0519 184.827 18.6058 184.807 19.7546H181.155Z" fill="#C71B21"/>
<path d="M139.389 25.437V20.6504C141.768 20.1033 143.601 18.5716 144.613 16.3287C145.488 14.332 145.762 12.0891 145.762 7.76741H139.471V3.41838H149.071V0.546387H154.186V3.41838H163.431V7.76741H150.548V9.87354H161.927C161.79 16.7937 161.653 19.146 161.298 20.4863C160.942 21.9086 160.122 23.1668 159.028 23.96C157.523 24.972 156.922 25.0815 153.202 25.1088H150.029V20.7324H153.667C156.785 20.7051 156.812 20.623 156.894 15.0431L156.922 14.1132H150.193C149.345 20.158 145.242 24.4524 139.389 25.437Z" fill="#C71B21"/>
<path d="M125.959 18.1339L124.947 14.4413L113.267 14.6054V10.2564L123.852 10.147L123.032 7.35706L114.17 7.52117V3.39096L121.828 3.33626L121.035 0.765137H125.986L126.752 3.2542L134.301 3.11744V7.19294L127.873 7.30235L128.721 10.0376L135.313 9.95553V14.2772L129.87 14.3593L130.882 18.1339H125.959ZM124.892 24.9993C120.871 24.9993 118.683 24.7805 117.069 24.2061C115.209 23.5223 113.924 21.7991 113.924 20.0212C113.924 18.8724 114.471 17.3133 115.264 16.3286H119.804C119.011 18.3527 118.984 18.4348 118.984 19.0092C118.984 20.0759 120.433 20.5956 123.442 20.5956C126.533 20.5956 129.514 20.4041 134.246 19.9391V24.5617C129.952 24.8899 127.764 24.9993 124.892 24.9993Z" fill="#C71B21"/>
<path d="M87.0635 0.628418H90.9201L90.7834 1.36693C95.8709 1.28487 97.5121 1.17547 100.22 0.628418V3.82865C98.0865 4.15687 98.0044 4.15687 96.6641 4.26628V4.89539H100.603V6.04419H101.697V0.628418H105.143V6.04419H109.492C109.492 14.4687 109.301 19.7477 109.164 21.4983C109 23.5771 108.097 25.0541 105.554 25.0541H103.94V22.0453C103.338 23.3856 102.053 24.6438 100.493 25.1635V24.1515C97.8403 24.6164 93.5733 24.972 89.6346 25.0541V21.8812C90.5919 21.8812 91.4945 21.8539 93.2451 21.7444V20.8145H89.6346V18.1613H93.2451V17.3954H89.6346V8.69737H93.2451V7.9315H89.5252V6.56388L88.7867 8.5059V25.2729H85.1214V13.6481L84 15.2072V8.91619C85.5864 6.7827 86.4891 4.34834 87.0635 0.628418ZM90.1269 4.89539H93.2451V4.34834H90.2637L90.1269 4.89539ZM100.493 8.69737V7.9315H96.6641V8.69737H100.493ZM96.6641 18.1613H100.603V20.5136C100.958 19.9392 101.232 19.3374 101.423 18.3801C101.588 17.5048 101.697 15.7816 101.697 14.414V10.2017H100.603V14.2225C100.603 16.5748 99.7823 17.3954 97.5121 17.3954H96.6641V18.1613ZM105.964 10.2017H105.143V14.7696C105.143 15.3987 105.089 17.7236 104.952 18.7357C104.815 19.6657 104.624 20.5956 104.35 21.17C105.362 21.17 105.69 20.7871 105.745 19.8024C105.8 18.8177 105.964 16.0278 105.964 10.2017ZM92.4519 11.9249H93.4639V11.0223H92.4519V11.9249ZM96.4453 11.9249H97.4574V11.0223H96.4453V11.9249ZM92.4519 14.9337H93.4639V14.0037H92.4519V14.9337ZM96.4453 14.9337H97.4574V14.0037H96.4453V14.9337ZM96.6641 20.8145V21.553C97.7582 21.4983 99.5361 21.3889 100.493 21.2795V20.8145H96.6641Z" fill="#C71B21"/>
<g clip-path="url(#clip1_287_3509)">
<path d="M282.782 16.937V8.93701L289.352 12.9395L282.782 16.937Z" fill="#EEEEEE" fill-opacity="0.929412"/>
<path d="M296.137 16.937V8.93701L302.712 12.9395L296.137 16.937Z" fill="#EEEEEE" fill-opacity="0.929412"/>
<path d="M309.497 16.937V8.93701L316.067 12.9395L309.497 16.937Z" fill="#EEEEEE" fill-opacity="0.929412"/>
<path d="M322.852 16.937V8.93701L329.427 12.9395L322.852 16.937Z" fill="#EEEEEE" fill-opacity="0.929412"/>
<path d="M336.212 16.937V8.93701L342.782 12.9395L336.212 16.937Z" fill="#EEEEEE" fill-opacity="0.929412"/>
</g>
<defs>
<clipPath id="clip0_287_3509">
<rect width="60" height="8" fill="white" transform="translate(0 8.93701)"/>
</clipPath>
<clipPath id="clip1_287_3509">
<rect width="60" height="8" fill="white" transform="translate(282.782 8.93701)"/>
</clipPath>
</defs>
</svg>
