<svg width="673" height="61" viewBox="0 0 673 61" fill="none" xmlns="http://www.w3.org/2000/svg">
<g clip-path="url(#clip0_98_168)">
<path d="M0.5 38.1759L0.5 22.0659L13.64 30.1259L0.5 38.1759Z" fill="#EEEEEE" fill-opacity="0.929412"/>
<path d="M27.2109 38.1759L27.2109 22.0659L40.3609 30.1259L27.2109 38.1759Z" fill="#EEEEEE" fill-opacity="0.929412"/>
<path d="M53.9297 38.1759V22.0659L67.0697 30.1259L53.9297 38.1759Z" fill="#EEEEEE" fill-opacity="0.929412"/>
<path d="M80.6406 38.1759V22.0659L93.7906 30.1259L80.6406 38.1759Z" fill="#EEEEEE" fill-opacity="0.929412"/>
<path d="M107.359 38.1759V22.0659L120.499 30.1259L107.359 38.1759Z" fill="#EEEEEE" fill-opacity="0.929412"/>
</g>
<path d="M221.94 59.7531C217.204 58.2171 215.412 57.1291 211.764 53.6091C208.052 56.6811 205.94 57.8331 201.396 59.1771V53.6091C199.156 55.9131 198.068 56.2971 193.012 56.2331H184.948V30.1851H202.42V48.2331C204.276 47.7211 204.596 47.5291 206.26 46.1851C204.276 41.4491 203.124 35.3691 202.74 28.0091H183.092V58.6651H174.516V52.5851L162.228 54.5691V44.9051L165.044 44.7131V10.7291H162.612V1.96109H185.46V6.88909H189.62V0.233089H198.004V6.88909H202.74V0.233089H210.868V4.45709C210.932 9.25709 210.996 12.5851 210.996 14.0571C210.996 15.0171 211.06 17.1291 211.124 19.6251H221.748V28.0091H211.188C211.38 32.8731 211.572 34.5371 212.404 38.2491C213.428 34.9211 213.684 33.4491 214.004 29.9291H222.516C222.004 36.1371 220.34 41.6411 217.78 46.1211C218.932 47.3371 219.572 47.7211 221.94 48.6171V59.7531ZM213.748 16.1691C212.852 9.51309 212.66 8.42509 211.828 4.71309H219.892C220.788 8.29709 221.3 10.6651 222.132 16.1691H213.748ZM172.532 16.4891H175.092V10.7291H172.532V16.4891ZM183.092 19.8811H186.868L185.908 14.8891H184.5V10.7291H183.092V19.8811ZM192.884 19.8811H194.356L195.316 14.8891H191.988L192.884 19.8811ZM200.244 19.8811H202.74V14.8891H201.588L200.244 19.8811ZM172.532 29.9931H175.092V24.1691H172.532V29.9931ZM191.668 39.9131H194.932V37.0971H191.668V39.9131ZM172.532 43.8811L175.092 43.6891V37.7371H172.532V43.8811ZM191.668 48.2331H194.932V45.3531H191.668V48.2331ZM248.052 58.2811V50.7931H263.028V48.7451H250.228V41.6411H263.028V39.7851H251.572V19.8171H263.028V17.9611H249.908V11.4331H263.028V9.57709C261.3 9.64109 260.02 9.64109 259.636 9.64109L249.908 9.76909V2.53709C266.932 2.28109 271.732 2.02509 283.892 0.553093V8.55309C278.9 9.00109 276.468 9.12909 271.988 9.32109V11.4331H285.684V17.9611H271.988V19.8171H284.084V31.7851C284.212 37.6731 282.548 39.6571 277.364 39.7851H271.988V41.6411H284.596V48.7451H271.988V50.7931H285.876V58.2811H248.052ZM233.204 59.6251V46.5691C229.94 51.4331 229.108 52.3931 226.228 54.8891V39.2091C229.172 36.0731 231.412 32.1691 232.756 27.8171H227.508V18.6011H233.204V12.9051C230.58 13.2251 230.196 13.2891 227.508 13.5451V4.13709C234.42 3.56109 238.324 3.11309 248.756 1.57709V11.1131C246.068 11.5611 245.684 11.6251 242.932 11.8811V18.6011H249.204V27.8171H242.932V30.3131C245.62 32.3611 246.004 32.6811 248.436 34.7291V47.9131C246.004 45.1611 245.62 44.7771 242.932 42.0251V59.6251H233.204ZM259.956 27.5611H263.028V25.7691H259.956V27.5611ZM271.988 27.5611H275.124V25.7691H271.988V27.5611ZM259.956 33.5771H263.028V32.0411H259.956V33.5771ZM271.988 33.5771H275.124V32.0411H271.988V33.5771ZM308.756 56.6171C308.084 56.6171 307.124 56.6171 305.972 56.5691V48.6011C306.836 48.6491 308.18 48.6491 308.372 48.6491C310.916 48.6491 311.828 48.0731 312.308 46.2011C312.596 45.1451 312.884 42.0731 312.884 39.8171C312.884 37.9931 312.644 35.2091 312.404 34.4891C312.068 33.4331 310.916 32.6651 309.62 32.6651H307.028C304.628 45.0491 303.38 49.8011 300.932 56.3771H291.956C295.22 48.4091 297.524 40.7771 299.012 32.7131L292.004 33.0491V24.5531H300.356C300.692 21.9131 300.836 20.0411 301.028 15.5771H309.332C309.14 18.7931 308.996 20.5211 308.42 24.5531H312.932C316.34 24.5531 319.124 26.0891 320.18 28.5851C321.14 30.7451 321.62 34.5371 321.62 39.4811C321.62 45.5291 321.14 49.1771 319.988 51.5771C318.404 54.9371 314.66 56.6171 308.756 56.6171ZM325.556 45.8171C325.7 42.5051 325.748 40.8731 325.748 38.9531C325.748 32.6171 325.412 29.9291 324.26 26.9531C323.348 24.6011 322.532 23.0171 321.188 21.0011H329.54C332.132 23.9291 332.996 26.1851 333.716 31.6091C334.052 34.0091 334.196 37.0331 334.196 40.6331C334.196 41.8331 334.148 43.1291 334.1 45.8171H325.556ZM373.7 23.7371C362.084 22.9691 355.892 22.7291 348.404 22.7291H343.172V15.3371C359.924 15.5291 360.98 15.5771 373.7 16.2491V23.7371ZM343.508 56.8571V48.7931H354.164C362.084 48.7931 362.42 48.7931 364.196 48.6491C367.268 48.4091 368.372 48.0251 369.188 47.0171C369.908 46.0571 370.292 44.9531 370.292 43.8491C370.292 40.9691 367.844 39.2891 363.716 39.2891C360.5 39.2891 357.284 40.2491 354.692 41.9291C353.492 42.6971 352.676 43.4171 351.14 45.1451H343.508V25.7051H351.764V36.0731C358.1 32.9051 361.556 31.8971 365.732 31.8971C373.892 31.8971 379.604 36.7451 379.604 43.7531C379.604 48.6491 377.252 52.7771 373.22 54.9371C371.108 56.0891 368.948 56.5691 364.82 56.7611C362.804 56.8571 361.268 56.8571 354.212 56.8571H343.508ZM392.564 19.9451H386.612V10.9851H392.564V0.617092H402.356V10.9851H407.54V19.9451H402.356V28.0091L407.668 26.9211V35.8171L402.356 37.1611V49.8331C402.356 55.7211 399.348 58.4091 392.564 58.4091H387.636V48.8091H392.564V39.0811L386.356 39.9771V30.1851L392.564 29.5451V19.9451ZM424.756 13.9291C423.668 18.0251 421.94 22.3771 419.38 26.6011H408.756C411.252 22.6331 412.98 19.2411 414.324 15.5291H409.012V1.44909H445.044V15.5291H439.156C440.692 19.0491 442.868 22.8251 445.172 26.6011H433.78C431.348 22.1851 429.748 18.6651 428.212 13.9291H434.612V9.64109H418.42V13.9291H424.756ZM407.668 57.5771V47.3371C412.404 45.6731 415.732 42.7931 417.844 38.3131H409.204V29.8011H421.62V25.0011H431.924V29.9931H445.108V38.3131H435.764C439.22 42.9851 441.652 45.1611 446.068 46.8891V57.5771C442.548 56.6171 440.628 55.2731 437.556 53.0331C434.804 50.9851 432.884 48.8091 431.604 46.6331V58.5371H421.492V47.5291C419.38 50.7931 418.1 52.2011 415.668 53.9291C413.236 55.6571 411.06 56.6811 407.668 57.5771ZM461.62 58.4091V48.1051H471.924C479.412 48.1051 480.884 47.0811 481.396 41.5771C478.004 43.1771 476.148 43.6251 473.204 43.6251C466.1 43.6251 460.788 38.7611 460.788 32.2331C460.788 28.9051 462.196 25.9611 465.076 23.4651C467.828 21.0971 470.644 20.1371 475.06 20.1371C476.98 20.1371 478.26 20.3291 480.884 20.9051V17.5131L452.788 17.8331V7.97709L480.884 7.78509V1.12909H492.276V7.59309L507.188 7.40109V17.3851L492.276 17.5131V41.7691C492.34 46.8891 491.316 50.0891 488.436 53.4171C484.724 57.2571 481.332 58.4091 473.524 58.4091H461.62ZM475.764 34.8571C478.644 34.8571 480.564 33.5131 480.564 31.5291C480.564 29.8651 478.708 28.7131 476.084 28.7131C473.588 28.7131 471.348 30.2491 471.348 31.9131C471.348 33.6411 473.14 34.8571 475.764 34.8571Z" fill="#C71B21"/>
<g clip-path="url(#clip1_98_168)">
<path d="M552.5 38.1759V22.0659L565.64 30.1259L552.5 38.1759Z" fill="#EEEEEE" fill-opacity="0.929412"/>
<path d="M579.211 38.1759V22.0659L592.361 30.1259L579.211 38.1759Z" fill="#EEEEEE" fill-opacity="0.929412"/>
<path d="M605.93 38.1759V22.0659L619.07 30.1259L605.93 38.1759Z" fill="#EEEEEE" fill-opacity="0.929412"/>
<path d="M632.641 38.1759V22.0659L645.791 30.1259L632.641 38.1759Z" fill="#EEEEEE" fill-opacity="0.929412"/>
<path d="M659.359 38.1759V22.0659L672.499 30.1259L659.359 38.1759Z" fill="#EEEEEE" fill-opacity="0.929412"/>
</g>
<defs>
<clipPath id="clip0_98_168">
<rect width="120" height="16.11" fill="white" transform="translate(0.5 22.0659)"/>
</clipPath>
<clipPath id="clip1_98_168">
<rect width="120" height="16.11" fill="white" transform="translate(552.5 22.0659)"/>
</clipPath>
</defs>
</svg>
